<svg width="32" height="32" viewBox="0 0 32 32" fill="none" xmlns="http://www.w3.org/2000/svg">
<circle cx="16" cy="16" r="15" fill="#FFFEF9" stroke="#797876" stroke-width="0.588235"/>
<path d="M24.9998 17.0312C24.9998 17.1721 24.9439 17.3072 24.8442 17.4069C24.7446 17.5065 24.6095 17.5625 24.4686 17.5625H23.4061V18.625C23.4061 18.7659 23.3501 18.901 23.2505 19.0006C23.1509 19.1003 23.0157 19.1562 22.8748 19.1562C22.7339 19.1562 22.5988 19.1003 22.4992 19.0006C22.3995 18.901 22.3436 18.7659 22.3436 18.625V17.5625H21.2811C21.1402 17.5625 21.0051 17.5065 20.9054 17.4069C20.8058 17.3072 20.7498 17.1721 20.7498 17.0312C20.7498 16.8903 20.8058 16.7552 20.9054 16.6556C21.0051 16.5559 21.1402 16.5 21.2811 16.5H22.3436V15.4375C22.3436 15.2966 22.3995 15.1614 22.4992 15.0618C22.5988 14.9622 22.7339 14.9062 22.8748 14.9062C23.0157 14.9062 23.1509 14.9622 23.2505 15.0618C23.3501 15.1614 23.4061 15.2966 23.4061 15.4375V16.5H24.4686C24.6095 16.5 24.7446 16.5559 24.8442 16.6556C24.9439 16.7552 24.9998 16.8903 24.9998 17.0312ZM21.1569 20.9392C21.2476 21.0472 21.2917 21.1868 21.2795 21.3272C21.2673 21.4677 21.1998 21.5976 21.0918 21.6883C20.9839 21.779 20.8443 21.8231 20.7038 21.8109C20.5633 21.7987 20.4335 21.7312 20.3428 21.6232C19.0067 20.0321 17.1699 19.1562 15.1717 19.1562C13.1735 19.1562 11.3367 20.0321 10.0006 21.6232C9.90995 21.7311 9.78011 21.7985 9.63969 21.8107C9.49928 21.8228 9.35979 21.7787 9.25192 21.688C9.14404 21.5973 9.07662 21.4674 9.06448 21.327C9.05233 21.1866 9.09647 21.0471 9.18717 20.9392C10.1793 19.7585 11.4131 18.9198 12.7844 18.4709C11.9516 17.9522 11.3104 17.1764 10.9578 16.2608C10.6052 15.3453 10.5604 14.3398 10.8301 13.3964C11.0998 12.4531 11.6695 11.6233 12.4528 11.0326C13.2362 10.4419 14.1906 10.1223 15.1717 10.1223C16.1528 10.1223 17.1073 10.4419 17.8906 11.0326C18.6739 11.6233 19.2436 12.4531 19.5133 13.3964C19.7831 14.3398 19.7382 15.3453 19.3856 16.2608C19.033 17.1764 18.3918 17.9522 17.559 18.4709C18.9303 18.9198 20.1641 19.7585 21.1569 20.9392ZM15.1717 18.0937C15.8547 18.0937 16.5223 17.8912 17.0902 17.5118C17.658 17.1323 18.1006 16.593 18.362 15.962C18.6233 15.3311 18.6917 14.6368 18.5585 13.9669C18.4252 13.2971 18.0964 12.6818 17.6134 12.1989C17.1305 11.7159 16.5152 11.3871 15.8454 11.2538C15.1755 11.1206 14.4812 11.189 13.8502 11.4503C13.2193 11.7117 12.68 12.1543 12.3005 12.7221C11.9211 13.29 11.7186 13.9576 11.7186 14.6406C11.7196 15.5561 12.0838 16.4338 12.7311 17.0812C13.3785 17.7285 14.2562 18.0927 15.1717 18.0937Z" fill="#797876"/>
</svg>
