<svg width="15" height="9" viewBox="0 0 15 9" fill="none" xmlns="http://www.w3.org/2000/svg">
<path d="M7.49576 9C7.64257 9 7.77809 8.97348 7.90231 8.92043C8.02654 8.86149 8.14511 8.77308 8.25805 8.65521L14.712 1.76817C14.904 1.56778 15 1.32613 15 1.04322C15 0.848724 14.9548 0.674853 14.8645 0.521612C14.7798 0.362476 14.6612 0.235758 14.5088 0.141455C14.3619 0.0471526 14.1982 1.07288e-06 14.0175 1.07288e-06C13.7465 1.07288e-06 13.5065 0.109038 13.2976 0.327113L7.49576 6.5334L1.69396 0.327113C1.48504 0.109038 1.24788 1.07288e-06 0.982496 1.07288e-06C0.79616 1.07288e-06 0.629588 0.0471526 0.482778 0.141455C0.335968 0.235758 0.220215 0.362476 0.135517 0.521612C0.0451722 0.674853 0 0.848724 0 1.04322C0 1.32613 0.0931677 1.56778 0.279503 1.76817L6.73348 8.65521C6.84641 8.77308 6.96499 8.86149 7.08921 8.92043C7.21344 8.97348 7.34895 9 7.49576 9Z" fill="#B9BBBD"/>
</svg>
