<svg width="358" height="373" viewBox="0 0 358 373" fill="none" xmlns="http://www.w3.org/2000/svg">
<path d="M129.039 315.353V340.862L107.288 341.617V316.657L129.039 315.353Z" fill="#FFFEF9" stroke="#1F1F1F" stroke-width="0.598541" stroke-miterlimit="10"/>
<path d="M161.629 369.042L103.738 368.767L105.187 334.53L132.337 336.481L133.115 349.865L161.629 369.042Z" fill="#1F1F1F"/>
<path d="M144.715 354.509L141.111 362.422" stroke="#1F1F1F" stroke-width="0.598541" stroke-linecap="round" stroke-linejoin="round"/>
<path d="M139.403 351.577L135.812 359.489" stroke="#1F1F1F" stroke-width="0.598541" stroke-linecap="round" stroke-linejoin="round"/>
<path d="M135.379 350.367C135.379 350.367 150.319 344.382 147.889 340.144C143.974 333.321 135.379 350.367 135.379 350.367Z" stroke="#1F1F1F" stroke-width="0.598541" stroke-linecap="round" stroke-linejoin="round"/>
<path d="M138.778 336.003L134.971 350.631" stroke="#1F1F1F" stroke-width="0.598541" stroke-linecap="round" stroke-linejoin="round"/>
<path d="M115.062 368.814C115.924 367.234 116.379 365.415 116.295 363.487C116.056 357.813 111.232 353.384 105.558 353.635C105.151 353.647 104.756 353.695 104.372 353.767L104.337 354.473C104.744 354.402 105.163 354.342 105.582 354.33C110.873 354.102 115.374 358.22 115.601 363.523C115.685 365.451 115.182 367.27 114.272 368.814H115.062Z" fill="#FFFEF9"/>
<path d="M97.5112 321.23L134.968 320.297L142.27 161.767L89.4548 161.659L97.5112 321.23Z" fill="#1F1F1F"/>
<path d="M89.4548 161.659L97.5112 321.23" stroke="#1F1F1F" stroke-width="0.598541" stroke-linecap="round" stroke-linejoin="round"/>
<path d="M96.746 306.183H135.508" stroke="#1F1F1F" stroke-width="0.598541" stroke-linecap="round" stroke-linejoin="round"/>
<path d="M40.1146 314.047L35.1826 339.341L56.0358 342.944L60.9318 318.991L40.1146 314.047Z" fill="#FFFEF9" stroke="#1F1F1F" stroke-width="0.598541" stroke-miterlimit="10"/>
<path d="M-0.000976562 368.838L57.8899 368.562L60.0447 334.757L32.2125 336.073L28.5135 349.66L-0.000976562 368.838Z" fill="#1F1F1F"/>
<path d="M16.9302 354.306L20.5214 362.218" stroke="#1F1F1F" stroke-width="0.598541" stroke-miterlimit="10" stroke-linecap="round"/>
<path d="M22.2292 351.373L25.8325 359.297" stroke="#1F1F1F" stroke-width="0.598541" stroke-miterlimit="10" stroke-linecap="round"/>
<path d="M26.2514 350.163C26.2514 350.163 11.3118 344.178 13.7419 339.94C17.6564 333.117 26.2514 350.163 26.2514 350.163Z" stroke="#1F1F1F" stroke-width="0.598541" stroke-miterlimit="10" stroke-linecap="round"/>
<path d="M22.8518 335.81L26.6585 350.426" stroke="#1F1F1F" stroke-width="0.598541" stroke-miterlimit="10" stroke-linecap="round"/>
<path d="M46.5636 368.622C45.7017 367.042 45.2468 365.223 45.3306 363.295C45.5701 357.621 50.3943 353.192 56.0684 353.443C56.4754 353.455 58.2711 353.659 58.6662 353.719L58.5105 354.449C58.1035 354.377 56.4635 354.162 56.0326 354.138C50.7415 353.91 46.2404 358.028 46.0129 363.331C45.9292 365.258 46.4319 367.078 47.3417 368.622H46.5517H46.5636Z" fill="#FFFEF9"/>
<path d="M62.512 164.531L34.0454 316.908L72.4838 325.252L114.872 166.95L62.512 164.531Z" fill="#1F1F1F"/>
<path d="M72.4744 325.252L111.08 181.111H122.536" stroke="#1F1F1F" stroke-width="0.598541" stroke-linecap="round" stroke-linejoin="round"/>
<path d="M57.1306 193.309C57.1306 193.309 69.1852 193.286 76.3318 179.399" stroke="#1F1F1F" stroke-width="0.598541" stroke-linecap="round" stroke-linejoin="round"/>
<path d="M36.3123 304.734L75.7561 312.994" stroke="#1F1F1F" stroke-width="0.598541" stroke-linecap="round" stroke-linejoin="round"/>
<path d="M96.2925 65.1623L98.2796 54.4724C98.2796 54.4724 131.08 56.5194 142.129 96.0111C153.178 135.491 147.025 180.824 147.025 180.824H105.833L96.2925 65.1623Z" fill="#FFFEF9" stroke="#1F1F1F" stroke-width="0.598541" stroke-miterlimit="10"/>
<path d="M135.746 87.0451C136.656 87.4282 137.087 88.4816 136.704 89.3914C136.321 90.3012 135.267 90.7321 134.358 90.3491C133.448 89.966 133.017 88.9126 133.4 88.0028C133.783 87.093 134.836 86.6621 135.746 87.0451Z" fill="#FFFEF9"/>
<path d="M136.127 111.334C137.037 111.717 137.467 112.771 137.084 113.68C136.701 114.59 135.648 115.021 134.738 114.638C133.828 114.255 133.397 113.201 133.781 112.292C134.164 111.382 135.217 110.951 136.127 111.334Z" fill="#FFFEF9"/>
<path d="M144.56 121.27C145.47 121.653 145.901 122.706 145.518 123.616C145.135 124.526 144.081 124.957 143.171 124.574C142.262 124.191 141.831 123.137 142.214 122.228C142.597 121.318 143.65 120.887 144.56 121.27Z" fill="#FFFEF9"/>
<path d="M140.469 133.755C141.379 134.138 141.81 135.192 141.427 136.102C141.044 137.011 139.991 137.442 139.081 137.059C138.171 136.676 137.74 135.623 138.123 134.713C138.506 133.803 139.56 133.372 140.469 133.755Z" fill="#FFFEF9"/>
<path d="M140.469 150.682C141.379 151.065 141.81 152.118 141.427 153.028C141.044 153.938 139.991 154.369 139.081 153.986C138.171 153.603 137.74 152.549 138.123 151.639C138.506 150.73 139.56 150.299 140.469 150.682Z" fill="#FFFEF9"/>
<path d="M146.473 163.946C147.383 164.329 147.814 165.382 147.431 166.292C147.048 167.202 145.994 167.633 145.084 167.25C144.175 166.867 143.744 165.813 144.127 164.903C144.51 163.994 145.563 163.563 146.473 163.946Z" fill="#FFFEF9"/>
<path d="M138.631 170.578C139.54 170.961 139.971 172.014 139.588 172.924C139.205 173.834 138.152 174.265 137.242 173.882C136.332 173.499 135.901 172.445 136.284 171.535C136.667 170.626 137.721 170.195 138.631 170.578Z" fill="#FFFEF9"/>
<path d="M143.373 100.811C142.654 100.788 141.972 101.207 141.685 101.901C141.302 102.811 141.733 103.864 142.642 104.247C143.157 104.463 143.708 104.415 144.163 104.175C143.911 103.05 143.648 101.937 143.385 100.811H143.373Z" fill="#FFFEF9"/>
<path d="M148.592 141.907C147.73 141.644 146.784 142.063 146.425 142.913C146.042 143.823 146.473 144.876 147.383 145.259C147.814 145.439 148.281 145.439 148.688 145.283C148.664 144.17 148.64 143.044 148.604 141.907H148.592Z" fill="#FFFEF9"/>
<path d="M135.054 180.92V92.5873C135.054 72.1172 117.158 55.5256 95.0834 55.5256C73.0092 55.5256 55.1128 72.1172 55.1128 92.5873V180.92H135.066H135.054Z" fill="#FFFEF9"/>
<path d="M95.0737 55.5376C72.9994 55.5376 55.103 72.1292 55.103 92.5993V180.932H135.056V92.5993" stroke="#1F1F1F" stroke-width="0.598541" stroke-miterlimit="10"/>
<path d="M135.056 177.305H55.103V188.246H135.056V177.305Z" fill="#FFFEF9" stroke="#1F1F1F" stroke-width="0.598541" stroke-miterlimit="10"/>
<path d="M74.1273 162.186C75.0371 162.569 75.468 163.622 75.085 164.532C74.7019 165.442 73.6485 165.873 72.7387 165.489C71.829 165.106 71.398 164.053 71.781 163.143C72.1641 162.233 73.2175 161.802 74.1273 162.186Z" fill="#FFFEF9"/>
<path d="M66.1168 152.142C67.0266 152.525 67.4576 153.579 67.0745 154.489C66.6914 155.398 65.638 155.829 64.7282 155.446C63.8185 155.063 63.3875 154.01 63.7705 153.1C64.1536 152.19 65.2071 151.759 66.1168 152.142Z" fill="#FFFEF9"/>
<path d="M82.9608 171.332C83.8706 171.715 84.3015 172.768 83.9185 173.678C83.5354 174.588 82.482 175.019 81.5722 174.636C80.6625 174.253 80.2315 173.199 80.6145 172.289C80.9976 171.38 82.051 170.949 82.9608 171.332Z" fill="#FFFEF9"/>
<path d="M93.8187 162.186C94.7285 162.569 95.1595 163.622 94.7764 164.532C94.3933 165.442 93.3399 165.873 92.4301 165.489C91.5203 165.106 91.0894 164.053 91.4724 163.143C91.8555 162.233 92.909 161.802 93.8187 162.186Z" fill="#FFFEF9"/>
<path d="M102.578 171.643C103.488 172.026 103.919 173.08 103.536 173.989C103.153 174.899 102.099 175.33 101.189 174.947C100.28 174.564 99.8487 173.511 100.232 172.601C100.615 171.691 101.668 171.26 102.578 171.643Z" fill="#FFFEF9"/>
<path d="M108.515 162.186C109.425 162.569 109.856 163.622 109.473 164.532C109.09 165.442 108.036 165.873 107.126 165.489C106.216 165.106 105.786 164.053 106.169 163.143C106.552 162.233 107.605 161.802 108.515 162.186Z" fill="#FFFEF9"/>
<path d="M115.606 171.092C116.516 171.475 116.947 172.529 116.564 173.439C116.181 174.348 115.127 174.779 114.217 174.396C113.308 174.013 112.877 172.96 113.26 172.05C113.643 171.14 114.696 170.709 115.606 171.092Z" fill="#FFFEF9"/>
<path d="M124.333 161.971C125.243 162.354 125.674 163.407 125.291 164.317C124.908 165.227 123.854 165.658 122.945 165.275C122.035 164.892 121.604 163.838 121.987 162.928C122.37 162.019 123.423 161.588 124.333 161.971Z" fill="#FFFEF9"/>
<path d="M115.606 153.531C116.516 153.914 116.947 154.968 116.564 155.877C116.181 156.787 115.127 157.218 114.217 156.835C113.308 156.452 112.877 155.399 113.26 154.489C113.643 153.579 114.696 153.148 115.606 153.531Z" fill="#FFFEF9"/>
<path d="M132.579 152.705C133.488 153.088 133.919 154.141 133.536 155.051C133.153 155.961 132.1 156.392 131.19 156.009C130.28 155.626 129.849 154.572 130.232 153.663C130.615 152.753 131.669 152.322 132.579 152.705Z" fill="#FFFEF9"/>
<path d="M102.054 150.634C102.964 151.017 103.395 152.071 103.012 152.98C102.629 153.89 101.575 154.321 100.665 153.938C99.7557 153.555 99.3247 152.502 99.7078 151.592C100.091 150.682 101.144 150.251 102.054 150.634Z" fill="#FFFEF9"/>
<path d="M83.7741 151.748C84.6838 152.131 85.1148 153.184 84.7317 154.094C84.3486 155.004 83.2953 155.435 82.3855 155.052C81.4757 154.668 81.0447 153.615 81.4278 152.705C81.8108 151.795 82.8643 151.365 83.7741 151.748Z" fill="#FFFEF9"/>
<path d="M93.5172 141.716C94.427 142.099 94.858 143.152 94.4749 144.062C94.0918 144.972 93.0384 145.403 92.1286 145.02C91.2188 144.637 90.7879 143.583 91.1709 142.674C91.554 141.764 92.6075 141.333 93.5172 141.716Z" fill="#FFFEF9"/>
<path d="M112.766 140.052C113.676 140.435 114.107 141.489 113.724 142.398C113.341 143.308 112.287 143.739 111.377 143.356C110.468 142.973 110.037 141.92 110.42 141.01C110.803 140.1 111.856 139.669 112.766 140.052Z" fill="#FFFEF9"/>
<path d="M122.316 131.254C123.226 131.637 123.657 132.69 123.274 133.6C122.891 134.51 121.838 134.941 120.928 134.558C120.018 134.175 119.587 133.121 119.97 132.212C120.353 131.302 121.407 130.871 122.316 131.254Z" fill="#FFFEF9"/>
<path d="M132.747 135.659C133.656 136.042 134.087 137.095 133.704 138.005C133.321 138.915 132.268 139.346 131.358 138.963C130.448 138.579 130.017 137.526 130.4 136.616C130.783 135.706 131.837 135.276 132.747 135.659Z" fill="#FFFEF9"/>
<path d="M131.068 122.562C131.978 122.945 132.409 123.999 132.026 124.908C131.643 125.818 130.59 126.249 129.68 125.866C128.77 125.483 128.339 124.43 128.722 123.52C129.105 122.61 130.159 122.179 131.068 122.562Z" fill="#FFFEF9"/>
<path d="M111.822 124.131C112.732 124.514 113.163 125.567 112.78 126.477C112.396 127.387 111.343 127.818 110.433 127.435C109.523 127.052 109.093 125.998 109.476 125.088C109.859 124.179 110.912 123.748 111.822 124.131Z" fill="#FFFEF9"/>
<path d="M122.264 115.991C123.174 116.374 123.605 117.428 123.222 118.337C122.839 119.247 121.786 119.678 120.876 119.295C119.966 118.912 119.535 117.859 119.918 116.949C120.301 116.039 121.355 115.608 122.264 115.991Z" fill="#FFFEF9"/>
<path d="M92.0341 103.242C92.9439 103.625 93.3748 104.678 92.9917 105.588C92.6087 106.498 91.5552 106.929 90.6454 106.545C89.7356 106.162 89.3047 105.109 89.6878 104.199C90.0708 103.289 91.1243 102.858 92.0341 103.242Z" fill="#FFFEF9"/>
<path d="M99.6245 91.8811C100.534 92.2641 100.965 93.3176 100.582 94.2273C100.199 95.1371 99.1457 95.5681 98.2359 95.185C97.3261 94.802 96.8952 93.7485 97.2782 92.8387C97.6613 91.929 98.7147 91.498 99.6245 91.8811Z" fill="#FFFEF9"/>
<path d="M113.438 95.7714C114.348 96.1545 114.779 97.2079 114.396 98.1177C114.013 99.0275 112.96 99.4584 112.05 99.0753C111.14 98.6923 110.709 97.6388 111.092 96.7291C111.475 95.8193 112.529 95.3883 113.438 95.7714Z" fill="#FFFEF9"/>
<path d="M128.436 101.35C129.346 101.733 129.777 102.786 129.394 103.696C129.011 104.606 127.957 105.037 127.047 104.654C126.138 104.271 125.707 103.217 126.09 102.307C126.473 101.398 127.526 100.967 128.436 101.35Z" fill="#FFFEF9"/>
<path d="M130.319 79.6472C131.229 80.0302 131.66 81.0837 131.277 81.9935C130.894 82.9032 129.841 83.3342 128.931 82.9511C128.021 82.5681 127.59 81.5146 127.973 80.6049C128.356 79.6951 129.41 79.2641 130.319 79.6472Z" fill="#FFFEF9"/>
<path d="M115.606 82.7475C116.516 83.1306 116.947 84.184 116.564 85.0938C116.181 86.0036 115.127 86.4345 114.217 86.0515C113.308 85.6684 112.877 84.615 113.26 83.7052C113.643 82.7954 114.696 82.3645 115.606 82.7475Z" fill="#FFFEF9"/>
<path d="M104.617 80.0423C105.527 80.4254 105.958 81.4788 105.575 82.3886C105.192 83.2984 104.138 83.7293 103.228 83.3463C102.319 82.9632 101.888 81.9098 102.271 81C102.654 80.0902 103.707 79.6593 104.617 80.0423Z" fill="#FFFEF9"/>
<path d="M111.664 67.9271C112.573 68.3102 113.004 69.3636 112.621 70.2734C112.238 71.1832 111.185 71.6141 110.275 71.231C109.365 70.848 108.934 69.7945 109.317 68.8848C109.7 67.975 110.754 67.544 111.664 67.9271Z" fill="#FFFEF9"/>
<path d="M123.05 72.9911C123.96 73.3742 124.391 74.4276 124.008 75.3374C123.625 76.2472 122.572 76.6781 121.662 76.2951C120.752 75.912 120.321 74.8586 120.704 73.9488C121.087 73.039 122.141 72.608 123.05 72.9911Z" fill="#FFFEF9"/>
<path d="M92.0341 75.3012C92.9439 75.6842 93.3748 76.7377 92.9917 77.6475C92.6087 78.5572 91.5552 78.9882 90.6454 78.6051C89.7356 78.2221 89.3047 77.1686 89.6878 76.2588C90.0708 75.3491 91.1243 74.9181 92.0341 75.3012Z" fill="#FFFEF9"/>
<path d="M100.21 63.8573C101.12 64.2403 101.551 65.2938 101.168 66.2035C100.785 67.1133 99.7314 67.5443 98.8216 67.1612C97.9118 66.7781 97.4809 65.7247 97.8639 64.8149C98.247 63.9051 99.3004 63.4742 100.21 63.8573Z" fill="#FFFEF9"/>
<path d="M85.9317 86.099C86.8415 86.4821 87.2724 87.5355 86.8894 88.4453C86.5063 89.3551 85.4529 89.786 84.5431 89.403C83.6333 89.0199 83.2024 87.9665 83.5855 87.0567C83.9685 86.1469 85.0219 85.716 85.9317 86.099Z" fill="#FFFEF9"/>
<path d="M74.1347 90.2535C75.0445 90.6366 75.4754 91.69 75.0923 92.5998C74.7093 93.5096 73.6558 93.9405 72.746 93.5575C71.8362 93.1744 71.4053 92.121 71.7884 91.2112C72.1714 90.3014 73.2249 89.8704 74.1347 90.2535Z" fill="#FFFEF9"/>
<path d="M81.5098 100.225C82.4196 100.608 82.8506 101.661 82.4676 102.571C82.0845 103.481 81.031 103.912 80.1213 103.529C79.2115 103.146 78.7805 102.092 79.1636 101.183C79.5467 100.273 80.6001 99.8419 81.5098 100.225Z" fill="#FFFEF9"/>
<path d="M69.0604 105.217C69.9702 105.6 70.4012 106.653 70.0181 107.563C69.635 108.473 68.5816 108.904 67.6718 108.521C66.762 108.138 66.3311 107.084 66.7141 106.175C67.0972 105.265 68.1507 104.834 69.0604 105.217Z" fill="#FFFEF9"/>
<path d="M125.851 90.2535C126.761 90.6366 127.191 91.69 126.808 92.5998C126.425 93.5096 125.372 93.9405 124.462 93.5575C123.552 93.1744 123.121 92.121 123.504 91.2112C123.887 90.3014 124.941 89.8704 125.851 90.2535Z" fill="#FFFEF9"/>
<path d="M103.841 133.444C104.751 133.827 105.182 134.881 104.799 135.79C104.416 136.7 103.362 137.131 102.452 136.748C101.543 136.365 101.112 135.311 101.495 134.402C101.878 133.492 102.931 133.061 103.841 133.444Z" fill="#FFFEF9"/>
<path d="M126.797 144.804C127.707 145.187 128.138 146.24 127.755 147.15C127.372 148.06 126.319 148.491 125.409 148.108C124.499 147.725 124.068 146.671 124.451 145.762C124.834 144.852 125.888 144.421 126.797 144.804Z" fill="#FFFEF9"/>
<path d="M131.313 172.254C132.223 172.637 132.654 173.69 132.271 174.6C131.888 175.51 130.834 175.941 129.924 175.558C129.015 175.175 128.584 174.121 128.967 173.212C129.35 172.302 130.403 171.871 131.313 172.254Z" fill="#FFFEF9"/>
<path d="M65.2047 171.451C66.1144 171.834 66.5454 172.887 66.1623 173.797C65.7792 174.707 64.7259 175.138 63.8161 174.755C62.9063 174.372 62.4754 173.318 62.8584 172.409C63.2415 171.499 64.2949 171.068 65.2047 171.451Z" fill="#FFFEF9"/>
<path d="M55.1035 165.37C55.1634 165.406 55.2233 165.442 55.2951 165.478C56.2049 165.861 57.2583 165.43 57.6413 164.52C58.0244 163.611 57.5935 162.557 56.6837 162.174C56.145 161.947 55.5704 162.006 55.1035 162.282V165.37Z" fill="#FFFEF9"/>
<path d="M119.203 64.6115C119.981 64.9347 120.855 64.6714 121.334 64.0249C120.412 63.2828 119.442 62.5884 118.449 61.9301C118.377 62.0378 118.305 62.1455 118.257 62.2772C117.874 63.187 118.305 64.2404 119.215 64.6235L119.203 64.6115Z" fill="#FFFEF9"/>
<path d="M109.118 60.2543C110.028 60.6373 111.082 60.2064 111.465 59.2966C111.62 58.9135 111.632 58.5185 111.536 58.1474C110.639 57.7763 109.729 57.4411 108.795 57.1299C108.52 57.3214 108.292 57.5728 108.161 57.908C107.778 58.8178 108.209 59.8712 109.118 60.2543Z" fill="#FFFEF9"/>
<path d="M135.056 164.317C134.17 164.006 133.189 164.425 132.818 165.299C132.434 166.208 132.865 167.262 133.775 167.645C134.206 167.825 134.661 167.825 135.068 167.681V164.317H135.056Z" fill="#FFFEF9"/>
<path d="M135.055 95.6281C134.361 95.6281 133.691 96.0351 133.403 96.7174C133.02 97.6272 133.451 98.6806 134.361 99.0637C134.588 99.1595 134.828 99.2073 135.055 99.2073V95.6281Z" fill="#FFFEF9"/>
<path d="M123.633 103.636C123.549 100.799 121.012 101.302 121.012 101.302C120.988 100.237 120.281 98.6205 117.863 99.9133C115.445 101.206 106.563 106.832 106.563 106.832C106.563 106.832 110.501 100.105 108.107 99.0634C105.713 98.0339 83.6147 115.535 83.6147 115.535L92.0542 131.84C92.0542 131.84 115.804 121.078 121.143 117.127C126.482 113.177 126.925 109.466 125.142 107.12C125.321 104.738 123.621 103.648 123.621 103.648L123.633 103.636Z" fill="#FFFEF9"/>
<path d="M121.01 101.303C121.01 101.303 123.547 100.801 123.619 103.638C123.703 106.762 115.766 111.754 115.766 111.754" stroke="#1F1F1F" stroke-width="0.598541" stroke-linecap="round" stroke-linejoin="round"/>
<path d="M123.626 103.637C123.626 103.637 125.338 104.727 125.147 107.109C124.943 109.778 118.06 114.65 118.06 114.65" stroke="#1F1F1F" stroke-width="0.598541" stroke-linecap="round" stroke-linejoin="round"/>
<path d="M125.15 107.109C126.934 109.455 126.491 113.166 121.152 117.116C115.813 121.067 92.0625 131.828 92.0625 131.828L83.623 115.524C83.623 115.524 105.721 98.0228 108.115 99.0523C110.51 100.082 106.571 106.821 106.571 106.821C106.571 106.821 115.453 101.195 117.872 99.9022C120.29 98.6094 120.996 100.225 121.02 101.291C121.044 102.787 119.081 105.181 113.694 108.545" stroke="#1F1F1F" stroke-width="0.598541" stroke-linecap="round" stroke-linejoin="round"/>
<path d="M84.3432 56.8789C84.3432 56.8789 64.4597 59.5364 44.9592 86.9496C23.4955 117.116 27.0867 147.103 39.309 153.687C51.5312 160.271 81.0871 153.567 98.2892 133.037L86.4142 108.162L48.8617 114.65" stroke="#1F1F1F" stroke-width="0.299271" stroke-linecap="round" stroke-linejoin="round"/>
<path d="M86.4044 108.162L61.5051 112.459L61.6846 112.424L68.3524 94.2278L84.3335 56.8669C84.3335 56.8669 64.4499 59.5244 44.9494 86.9376C23.4857 117.104 27.077 147.091 39.2992 153.675C51.5214 160.259 81.0774 153.555 98.2795 133.025L86.4044 108.15V108.162Z" fill="#FFFEF9"/>
<path d="M61.6951 112.435L68.3628 94.2391" stroke="#1F1F1F" stroke-width="0.598541" stroke-linecap="round" stroke-linejoin="round"/>
<path d="M84.3407 56.8783C84.3407 56.8783 64.4572 59.5358 44.9567 86.949C23.493 117.116 27.0843 147.102 39.3065 153.686C51.5287 160.27 81.0847 153.567 98.2868 133.037L86.4117 108.161L48.8592 114.65" stroke="#1F1F1F" stroke-width="0.598541" stroke-linecap="round" stroke-linejoin="round"/>
<path d="M74.5347 115.428C75.4445 115.811 75.8755 116.864 75.4925 117.774C75.1094 118.684 74.0559 119.115 73.1462 118.732C72.2364 118.349 71.8054 117.295 72.1885 116.386C72.5716 115.476 73.625 115.045 74.5347 115.428Z" fill="#FFFEF9"/>
<path d="M85.0343 121.832C85.9441 122.215 86.375 123.269 85.992 124.178C85.6089 125.088 84.5555 125.519 83.6457 125.136C82.7359 124.753 82.3049 123.7 82.688 122.79C83.0711 121.88 84.1245 121.449 85.0343 121.832Z" fill="#FFFEF9"/>
<path d="M76.3292 132.523C77.239 132.906 77.67 133.959 77.2869 134.869C76.9038 135.779 75.8504 136.21 74.9406 135.827C74.0308 135.443 73.5999 134.39 73.9829 133.48C74.366 132.57 75.4194 132.139 76.3292 132.523Z" fill="#FFFEF9"/>
<path d="M69.0504 146.66C69.9602 147.043 70.3912 148.096 70.0081 149.006C69.625 149.916 68.5716 150.347 67.6618 149.964C66.752 149.581 66.3211 148.527 66.7041 147.618C67.0872 146.708 68.1407 146.277 69.0504 146.66Z" fill="#FFFEF9"/>
<path d="M61.3192 128.129C62.229 128.512 62.6599 129.566 62.2769 130.476C61.8938 131.385 60.8404 131.816 59.9306 131.433C59.0209 131.05 58.5899 129.997 58.9729 129.087C59.356 128.177 60.4094 127.746 61.3192 128.129Z" fill="#FFFEF9"/>
<path d="M49.1439 121.054C50.0537 121.437 50.4847 122.491 50.1016 123.401C49.7185 124.31 48.6651 124.741 47.7553 124.358C46.8455 123.975 46.4146 122.922 46.7976 122.012C47.1807 121.102 48.2342 120.671 49.1439 121.054Z" fill="#FFFEF9"/>
<path d="M53.9759 139.633C54.8857 140.016 55.3166 141.07 54.9336 141.98C54.5505 142.889 53.4971 143.32 52.5873 142.937C51.6775 142.554 51.2466 141.501 51.6297 140.591C52.0127 139.681 53.0661 139.25 53.9759 139.633Z" fill="#FFFEF9"/>
<path d="M42.5694 150.443C43.4792 150.826 43.9102 151.879 43.5271 152.789C43.1441 153.699 42.0906 154.13 41.1808 153.747C40.271 153.364 39.8401 152.31 40.2232 151.401C40.6062 150.491 41.6597 150.06 42.5694 150.443Z" fill="#FFFEF9"/>
<path d="M39.2304 135.348C40.1401 135.731 40.5711 136.784 40.188 137.694C39.805 138.604 38.7515 139.035 37.8417 138.652C36.932 138.269 36.501 137.215 36.8841 136.305C37.2671 135.396 38.3206 134.965 39.2304 135.348Z" fill="#FFFEF9"/>
<path d="M37.8068 116.266C38.7166 116.649 39.1475 117.702 38.7644 118.612C38.3814 119.522 37.3279 119.953 36.4182 119.569C35.5084 119.186 35.0774 118.133 35.4605 117.223C35.8435 116.313 36.897 115.882 37.8068 116.266Z" fill="#FFFEF9"/>
<path d="M51.7169 106.522C52.6267 106.905 53.0577 107.959 52.6746 108.868C52.2915 109.778 51.2381 110.209 50.3283 109.826C49.4185 109.443 48.9876 108.39 49.3706 107.48C49.7537 106.57 50.8071 106.139 51.7169 106.522Z" fill="#FFFEF9"/>
<path d="M49.1439 91.8818C50.0537 92.2649 50.4847 93.3183 50.1016 94.2281C49.7185 95.1379 48.6651 95.5688 47.7553 95.1858C46.8455 94.8027 46.4146 93.7493 46.7976 92.8395C47.1807 91.9297 48.2342 91.4987 49.1439 91.8818Z" fill="#FFFEF9"/>
<path d="M62.901 86.3275C63.8108 86.7105 64.2417 87.764 63.8587 88.6738C63.4756 89.5835 62.4222 90.0145 61.5124 89.6314C60.6026 89.2484 60.1716 88.1949 60.5547 87.2851C60.9378 86.3754 61.9912 85.9444 62.901 86.3275Z" fill="#FFFEF9"/>
<path d="M65.338 71.3402C66.2477 71.7233 66.6788 72.7767 66.2957 73.6865C65.9126 74.5963 64.8592 75.0272 63.9494 74.6442C63.0396 74.2611 62.6087 73.2077 62.9917 72.2979C63.3748 71.3881 64.4282 70.9572 65.338 71.3402Z" fill="#FFFEF9"/>
<path d="M74.1271 77.8637C75.0369 78.2468 75.4678 79.3002 75.0848 80.21C74.7017 81.1198 73.6482 81.5508 72.7384 81.1677C71.8287 80.7846 71.3977 79.7312 71.7808 78.8214C72.1639 77.9116 73.2173 77.4807 74.1271 77.8637Z" fill="#FFFEF9"/>
<path d="M74.5347 65.4142C75.4445 65.7973 75.8755 66.8507 75.4925 67.7605C75.1094 68.6703 74.0559 69.1012 73.1462 68.7182C72.2364 68.3351 71.8054 67.2817 72.1885 66.3719C72.5716 65.4621 73.625 65.0311 74.5347 65.4142Z" fill="#FFFEF9"/>
<path d="M86.1835 63.858C87.0933 64.2411 87.5242 65.2945 87.1411 66.2043C86.7581 67.1141 85.7046 67.545 84.7948 67.1619C83.8851 66.7789 83.4541 65.7254 83.8372 64.8157C84.2203 63.9059 85.2737 63.4749 86.1835 63.858Z" fill="#FFFEF9"/>
<path d="M61.8948 112.759C62.8046 113.142 63.2356 114.195 62.8526 115.105C62.4695 116.015 61.416 116.446 60.5063 116.063C59.5965 115.68 59.1655 114.626 59.5486 113.717C59.9317 112.807 60.9851 112.376 61.8948 112.759Z" fill="#FFFEF9"/>
<path d="M90.3902 136.521C91.3 136.904 91.731 137.958 91.3479 138.867C90.9649 139.777 89.9114 140.208 89.0016 139.825C88.0918 139.442 87.6609 138.388 88.044 137.479C88.427 136.569 89.4804 136.138 90.3902 136.521Z" fill="#FFFEF9"/>
<path d="M65.244 98.9203C64.3343 98.5372 63.2808 98.9682 62.8977 99.878C62.5147 100.788 62.9456 101.841 63.8554 102.224C64.406 102.452 65.0046 102.392 65.4834 102.093L66.2376 100.022C66.0819 99.5428 65.7348 99.1358 65.244 98.9203Z" fill="#FFFEF9"/>
<path d="M77.7494 110.795C78.6592 111.179 79.7126 110.748 80.0957 109.838C80.1795 109.634 80.2154 109.431 80.2274 109.227L76.7917 109.826C76.9593 110.245 77.2945 110.604 77.7494 110.795Z" fill="#FFFEF9"/>
<path d="M77.756 60.3026C78.6657 60.6856 79.7192 60.2547 80.1023 59.3449C80.2938 58.89 80.2818 58.4112 80.1023 57.9802C79.1326 58.3034 78.0074 58.7344 76.7744 59.2611C76.942 59.704 77.2771 60.0871 77.756 60.2906V60.3026Z" fill="#FFFEF9"/>
<path d="M52.5918 80.0904C53.5016 80.4734 54.555 80.0425 54.938 79.1327C55.3211 78.2229 54.8902 77.1695 53.9804 76.7864C53.7529 76.6906 53.5255 76.6428 53.2861 76.6428C52.6995 77.2772 52.101 77.9356 51.5144 78.6179C51.5862 79.2404 51.9693 79.815 52.5918 80.0784V80.0904Z" fill="#FFFEF9"/>
<path d="M37.9274 101.961C38.2626 101.159 37.9753 100.249 37.2691 99.7823C36.7423 100.848 36.2396 101.913 35.7727 102.979C36.6346 103.242 37.5683 102.823 37.9274 101.973V101.961Z" fill="#FFFEF9"/>
<path d="M29.9903 130.188C29.8227 130.116 29.6551 130.08 29.4875 130.068C29.4875 131.277 29.5115 132.45 29.5833 133.6C30.1699 133.504 30.6846 133.121 30.936 132.534C31.3191 131.624 30.8881 130.571 29.9784 130.188H29.9903Z" fill="#FFFEF9"/>
<path d="M57.7266 155.626C57.583 155.135 57.2239 154.705 56.7211 154.489C55.8114 154.106 54.7579 154.537 54.3748 155.447C54.291 155.626 54.2551 155.818 54.2432 156.009C55.3804 155.926 56.5415 155.794 57.7266 155.626Z" fill="#FFFEF9"/>
<path d="M86.4037 108.162L78.4551 109.539L92.7602 138.807C94.6995 137.024 96.555 135.108 98.2908 133.049L86.4157 108.174L86.4037 108.162Z" fill="#FFFEF9" stroke="#1F1F1F" stroke-width="0.598541" stroke-linecap="round" stroke-linejoin="round"/>
<path d="M88.9482 5.91919C82.9748 8.88796 79.4673 15.9507 80.2095 23.4684C81.239 33.8352 90.265 41.5324 90.265 41.5324L90.8995 24.2944L91.893 23.7677L88.9602 5.93116L88.9482 5.91919Z" fill="#1F1F1F"/>
<path d="M86.6151 26.8197C87.9199 26.8197 89.129 27.2267 90.1106 27.933V24.3298C90.0747 18.6197 94.1567 13.9271 99.1725 13.9151L106.714 13.8912C111.73 13.8673 115.848 18.5239 115.872 24.234L115.92 35.9295C115.944 41.6396 111.85 46.3321 106.834 46.3441H102.476L102.5 52.6647C102.5 55.2504 100.405 57.3693 97.8198 57.3812H94.8271C92.2414 57.4052 90.1225 55.2983 90.1106 52.7126L90.0867 45.59V45.1949L90.0627 38.0723C90.0627 37.9286 90.0627 37.785 90.0867 37.6533C89.117 38.3356 87.9319 38.7426 86.6511 38.7426C83.3351 38.7546 80.6297 36.0971 80.6177 32.8051C80.6057 29.5131 83.2872 26.8436 86.6031 26.8317L86.6151 26.8197Z" fill="#FFFEF9" stroke="#1F1F1F" stroke-width="0.598541" stroke-linecap="round" stroke-linejoin="round"/>
<path d="M89.5006 33.5715C89.5006 33.5715 89.752 29.5254 85.5981 29.9922" stroke="#1F1F1F" stroke-width="0.598541" stroke-linecap="round" stroke-linejoin="round"/>
<path d="M86.5566 10.3C86.808 10.0367 87.0833 9.80924 87.3467 9.55785L86.413 7.52281C89.1663 5.33215 92.6857 4.14704 96.6959 4.50616C109.361 -1.29969 113.73 7.85799 117.334 8.67201C120.35 9.35435 121.799 8.4685 121.823 8.33682C122.014 12.3231 117.238 12.6822 117.238 12.6822L124.672 10.6352L124.552 11.8084C123.834 16.2376 118.698 17.1114 117.621 17.3149L121.799 16.6925C120.973 19.338 118.052 21.2653 116.232 21.4688C113.766 21.7442 112.102 21.6244 110.965 21.3611C113.228 22.5223 115.61 22.9652 117.525 23.1088C112.102 24.7608 104.238 23.1687 100.323 19.2782C100.06 20.0682 99.6766 21.0738 99.0781 22.3547C97.7852 25.1199 94.9601 27.0712 92.7336 28.2443L94.3497 35.8578C94.3497 35.8578 103.663 33.5953 109.397 33.6432C115.131 33.691 115.921 35.9655 115.921 35.9655C115.921 35.9655 115.873 43.8064 109.96 45.7337C104.944 47.3737 102.478 46.3921 102.478 46.3921C102.478 46.3921 96.1452 44.7521 93.1047 41.4362C91.7639 39.9757 91.1654 39.0779 90.4591 37.6534L90.1958 28.4837C89.9683 28.3161 89.8127 28.1964 89.6092 28.0528C89.6092 28.0528 88.2206 26.8677 86.6883 26.8677C85.2638 26.8677 83.8872 27.4183 82.8337 28.2204C81.1458 24.9763 80.9423 16.046 86.5566 10.3479V10.3Z" fill="#1F1F1F"/>
<path d="M104.211 29.5603C104.211 27.8126 103.433 26.4 102.499 26.412C101.565 26.424 100.799 27.8365 100.811 29.5723" stroke="#1F1F1F" stroke-width="0.598541" stroke-linecap="round" stroke-linejoin="round"/>
<path d="M114.84 29.0578C114.84 27.5734 114.182 26.3643 113.38 26.3643C112.578 26.3643 111.931 27.5734 111.943 29.0697" stroke="#1F1F1F" stroke-width="0.598541" stroke-linecap="round" stroke-linejoin="round"/>
<path d="M107.814 32.6971L110.83 30.8536L108.173 26.3765" stroke="#1F1F1F" stroke-width="0.598541" stroke-linecap="round" stroke-linejoin="round"/>
<path d="M99.7227 25.754L102.644 24.5809" stroke="#1F1F1F" stroke-width="0.598541" stroke-linecap="round" stroke-linejoin="round"/>
<path d="M112.182 24.7125L114.971 25.1195" stroke="#1F1F1F" stroke-width="0.598541" stroke-linecap="round" stroke-linejoin="round"/>
<path d="M111.057 36.8989C111.057 38.3474 109.896 39.5206 108.447 39.5206C106.999 39.5206 105.826 38.3594 105.826 36.9109L111.057 36.887V36.8989Z" fill="#FFFEF9"/>
<path d="M96.381 6.0504C96.2972 6.0504 96.2254 6.02646 96.1535 5.99055C95.9381 5.85887 95.8663 5.58354 95.998 5.38004C96.1177 5.1885 98.8709 0.639586 102.534 0.00513197C102.797 -0.0307805 103.013 0.124842 103.049 0.376229C103.097 0.615646 102.929 0.855063 102.69 0.890975C99.4336 1.4536 96.8 5.79901 96.7761 5.83493C96.6923 5.97858 96.5486 6.0504 96.393 6.0504H96.381Z" fill="#1F1F1F"/>
<path d="M86.6731 59.41L105.958 59.2888C108.43 59.2733 110.422 57.2563 110.407 54.7837L110.392 52.4135C110.376 49.9409 108.359 47.9491 105.887 47.9646L86.602 48.0858C84.1294 48.1013 82.1376 50.1183 82.1531 52.5909L82.168 54.9611C82.1836 57.4337 84.2006 59.4255 86.6731 59.41Z" fill="#FFFEF9" stroke="#1F1F1F" stroke-width="0.598541" stroke-miterlimit="10"/>
<path d="M233.71 85.458C229.711 77.8805 223.199 64.1499 220.195 64.952C219.153 65.2273 218.758 66.3526 218.674 67.6813L218.59 67.5975C217.752 66.3765 214.736 63.1683 212.234 61.8037C209.66 60.4031 208.499 62.5339 208.499 62.5339L209.193 62.893L209.157 62.9409C208.331 62.3663 207.637 62.1149 207.122 62.2945C205.518 62.8691 206.141 64.4732 206.141 64.4732L206.237 64.521C205.387 64.1859 204.704 64.2697 204.213 64.7964C203.148 65.9336 204.429 67.2504 204.429 67.2504L204.573 67.3222C204.285 67.1905 204.01 67.1187 203.783 67.1427C202.334 67.2743 201.34 68.7946 204.321 73.176C207.302 77.5573 220.218 94.5319 220.218 94.5319C220.218 94.5319 237.732 93.0356 233.734 85.458H233.71ZM205.135 67.6574C205.016 67.5736 204.884 67.5018 204.764 67.4419L205.147 67.6215V67.6574H205.135Z" fill="#FFFEF9"/>
<path d="M220.148 80.5741C220.148 80.5741 218.413 75.7858 219.514 73.4634C219.514 73.4634 217.18 65.7542 220.184 64.9522C223.189 64.1501 229.701 77.8807 233.699 85.4582C237.697 93.0357 220.184 94.5321 220.184 94.5321C220.184 94.5321 207.256 77.5575 204.287 73.1761C201.306 68.7948 202.3 67.2745 203.748 67.1428C205.867 66.9513 210.715 73.5951 210.715 73.5951" stroke="#1F1F1F" stroke-width="0.598541" stroke-linecap="round" stroke-linejoin="round"/>
<path d="M204.405 67.2625C204.405 67.2625 203.124 65.9457 204.19 64.8085C205.255 63.6713 207.182 64.5212 209.864 67.466C212.545 70.4108 213.563 71.6199 213.563 71.6199" stroke="#1F1F1F" stroke-width="0.598541" stroke-linecap="round" stroke-linejoin="round"/>
<path d="M206.127 64.4852C206.127 64.4852 205.504 62.8691 207.108 62.3065C208.712 61.7319 212.04 65.3591 215.56 69.6446" stroke="#1F1F1F" stroke-width="0.598541" stroke-linecap="round" stroke-linejoin="round"/>
<path d="M208.489 62.534C208.489 62.534 209.662 60.4032 212.224 61.8038C214.786 63.2044 217.91 66.5682 218.664 67.7054" stroke="#1F1F1F" stroke-width="0.598541" stroke-linecap="round" stroke-linejoin="round"/>
<path d="M259.162 111.016L235.448 83.244L215.852 93.072C215.852 93.072 217.54 122.365 232.91 139.615C247.216 155.667 269.876 147.455 274.82 143.038C279.764 138.621 295.111 86.0691 295.111 86.0691L280.937 83.3158L255.487 106.671" fill="#FFFEF9"/>
<path d="M232.966 102.23C233.301 99.5245 233.624 96.8191 233.96 94.1137C234.031 93.575 233.732 93.0364 233.169 92.9286C232.667 92.8329 232.056 93.168 231.984 93.7187C231.649 96.4241 231.326 99.1295 230.991 101.835C230.931 102.374 231.218 102.912 231.781 103.02C232.284 103.116 232.894 102.781 232.966 102.23Z" fill="#FFFEF9"/>
<path d="M245.081 106.528C245.5 109.221 245.919 111.914 246.337 114.608C246.421 115.147 246.852 115.577 247.415 115.53C247.93 115.494 248.42 114.991 248.337 114.452C247.918 111.759 247.499 109.065 247.08 106.372C246.996 105.833 246.565 105.402 246.002 105.45C245.488 105.486 244.997 105.989 245.081 106.528Z" fill="#FFFEF9"/>
<path d="M247.112 126.291C249.842 126.219 252.571 126.159 255.288 126.087C255.827 126.075 256.318 125.704 256.342 125.13C256.366 124.615 255.935 124.064 255.384 124.076C252.655 124.148 249.925 124.208 247.208 124.28C246.669 124.292 246.179 124.663 246.155 125.237C246.131 125.752 246.562 126.303 247.112 126.291Z" fill="#FFFEF9"/>
<path d="M251.7 144.703C254.346 144.02 256.979 143.338 259.625 142.668C260.152 142.536 260.547 142.069 260.439 141.506C260.355 141.004 259.804 140.549 259.278 140.692C256.632 141.375 253.998 142.057 251.353 142.727C250.826 142.859 250.431 143.326 250.539 143.889C250.623 144.391 251.173 144.846 251.7 144.703Z" fill="#FFFEF9"/>
<path d="M261.658 108.778C261 111.424 260.341 114.069 259.683 116.715C259.551 117.241 259.778 117.804 260.317 117.984C260.808 118.139 261.454 117.876 261.586 117.349C262.244 114.704 262.903 112.058 263.561 109.413C263.693 108.886 263.465 108.323 262.927 108.144C262.436 107.988 261.79 108.251 261.658 108.778Z" fill="#FFFEF9"/>
<path d="M231.566 120.114C234.116 121.072 236.677 122.018 239.227 122.975C239.73 123.167 240.317 123.011 240.568 122.485C240.783 122.018 240.592 121.335 240.077 121.144C237.527 120.186 234.966 119.241 232.416 118.283C231.913 118.091 231.326 118.247 231.075 118.774C230.86 119.241 231.051 119.923 231.566 120.114Z" fill="#FFFEF9"/>
<path d="M236.665 134.359C238.341 136.514 240.005 138.669 241.681 140.823C242.016 141.254 242.591 141.422 243.07 141.111C243.501 140.823 243.692 140.153 243.357 139.722C241.681 137.567 240.017 135.413 238.341 133.258C238.006 132.827 237.431 132.659 236.953 132.971C236.522 133.258 236.33 133.928 236.665 134.359Z" fill="#FFFEF9"/>
<path d="M248.077 98.0282C246.748 98.0043 245.407 97.9923 244.078 97.9684C243.54 97.9684 243.037 98.3036 242.989 98.8782C242.941 99.3929 243.348 99.9675 243.899 99.9675C245.874 99.9915 247.849 100.027 249.812 100.051L248.077 98.0163V98.0282Z" fill="#FFFEF9"/>
<path d="M265.875 97.1178C265.827 97.9078 265.779 98.6979 265.732 99.476C265.696 100.015 266.019 100.529 266.594 100.613C267.096 100.685 267.695 100.302 267.731 99.7513C267.814 98.2191 267.91 96.6988 267.994 95.1665L265.875 97.1178Z" fill="#FFFEF9"/>
<path d="M229.316 127.74C228.873 127.489 228.179 127.632 227.952 128.123L226.695 130.829C227.09 131.535 227.509 132.217 227.94 132.911C228.526 131.643 229.113 130.386 229.699 129.117C229.927 128.626 229.819 128.027 229.316 127.74Z" fill="#FFFEF9"/>
<path d="M224.252 112.082C222.3 111.04 220.361 110.011 218.41 108.97C218.613 109.831 218.829 110.705 219.068 111.591C220.433 112.321 221.798 113.052 223.174 113.77C223.653 114.021 224.252 113.949 224.563 113.459C224.838 113.028 224.73 112.321 224.252 112.07V112.082Z" fill="#FFFEF9"/>
<path d="M235.466 83.2321L215.869 93.0601C215.869 93.0601 216.133 97.5492 217.366 104.049L242.157 91.073L235.466 83.2321Z" fill="#1F1F1F"/>
<path d="M220.714 102.289L221.804 101.727L219.17 91.3959L218.081 91.9465L220.714 102.289Z" fill="#FFFEF9"/>
<path d="M221.828 90.0676L225.443 99.8118L226.508 99.2612L222.905 89.5289L221.828 90.0676Z" fill="#FFFEF9"/>
<path d="M231.63 85.1589L236.622 93.9695L237.675 93.4068L232.696 84.6202L231.63 85.1589Z" fill="#FFFEF9"/>
<path d="M227.851 87.0508L226.786 87.5775L230.94 96.9387L231.993 96.388L227.851 87.0508Z" fill="#FFFEF9"/>
<path d="M259.162 111.016L235.448 83.244L215.852 93.072C215.852 93.072 217.54 122.365 232.91 139.615C247.216 155.667 269.876 147.455 274.82 143.038C279.764 138.621 295.111 86.0691 295.111 86.0691L280.937 83.3158L255.487 106.671" stroke="#1F1F1F" stroke-width="0.598541" stroke-linecap="round" stroke-linejoin="round"/>
<path d="M255.502 311.528L251.851 339.084L270.454 344.543L274.189 314.76L255.502 311.528Z" fill="#FFFEF9" stroke="#1F1F1F" stroke-width="0.598541" stroke-miterlimit="10"/>
<path d="M258.998 312.126L255.335 340.318" stroke="#1F1F1F" stroke-width="0.598541" stroke-miterlimit="10"/>
<path d="M263.418 312.964L259.707 341.155" stroke="#1F1F1F" stroke-width="0.598541" stroke-miterlimit="10"/>
<path d="M266.983 313.635L263.081 341.85" stroke="#1F1F1F" stroke-width="0.598541" stroke-miterlimit="10"/>
<path d="M270.37 314.269L266.803 342.903" stroke="#1F1F1F" stroke-width="0.598541" stroke-miterlimit="10"/>
<path d="M222.254 368.365L272.435 367.911L277.116 338.127L247.392 337.9L244.005 350.673L222.254 368.365Z" fill="#FFFEF9"/>
<path d="M258.445 358.885C257.906 361.638 257.858 365.84 258.589 368.031H260.492H261.246L272.427 367.935L275.276 349.763C268.979 348.638 260.073 350.529 258.421 358.909L258.445 358.885Z" fill="#1F1F1F"/>
<path d="M222.254 368.365L272.435 367.911L277.116 338.127L247.392 337.9L244.005 350.673L222.254 368.365Z" stroke="#1F1F1F" stroke-width="0.598541" stroke-linecap="round" stroke-linejoin="round"/>
<path d="M241.478 314.892L279.437 316.185L305.893 180.663L259.039 180.387L241.478 314.892Z" fill="#FFFEF9"/>
<path d="M299.059 214.349V215.713L299.957 211.117V200.714H301.992L302.171 199.816H299.969V187.079H304.661L304.841 186.181H299.969V180.627H299.071V186.181H286.334V180.555H285.436V186.181H272.699V180.471H271.801V186.181H259.064V180.387L258.167 187.259V199.804H256.527L256.407 200.702H258.167V213.439H254.743L254.623 214.337H258.155V227.074H252.959L252.839 227.972H258.155V240.708H251.176L251.056 241.606H258.155V254.343H249.392L249.272 255.241H258.155V267.978H247.608L247.489 268.876H258.143V281.613H245.825L245.705 282.511H258.143V295.248H245.406V284.809L244.508 291.68V295.248H244.041L243.921 296.145H244.508V308.882H242.257L242.138 309.78H244.496V314.964L245.394 314.999V309.792H258.131V315.442L259.028 315.478V309.804H271.765V315.909L272.663 315.945V309.804H280.66L280.839 308.906H272.663V296.169H283.329L283.509 295.272H272.675V282.535H285.412V285.551L286.31 280.954V268.9H288.668L288.848 268.002H286.322V255.265H291.338L291.517 254.367H286.322V241.63H293.995L294.175 240.732H286.322V227.995H296.665L296.844 227.098H286.322V214.361H299.059V214.349ZM286.322 187.079H299.059V199.816H286.322V187.079ZM286.322 200.714H299.059V213.451H286.322V200.714ZM258.155 308.906H245.418V296.169H258.155V308.906ZM271.789 308.906H259.052V296.169H271.789V308.906ZM271.789 295.272H259.052V282.535H271.789V295.272ZM271.789 281.637H259.052V268.9H271.789V281.637ZM271.789 268.002H259.052V255.265H271.789V268.002ZM271.789 254.367H259.052V241.63H271.789V254.367ZM271.789 240.732H259.052V227.995H271.789V240.732ZM271.789 227.098H259.052V214.361H271.789V227.098ZM271.789 213.463H259.052V200.726H271.789V213.463ZM271.789 199.828H259.052V187.091H271.789V199.828ZM285.424 281.649H272.687V268.912H285.424V281.649ZM285.424 268.014H272.687V255.277H285.424V268.014ZM285.424 254.379H272.687V241.642H285.424V254.379ZM285.424 240.744H272.687V228.007H285.424V240.744ZM285.424 227.11H272.687V214.373H285.424V227.11ZM285.424 213.475H272.687V200.738H285.424V213.475ZM285.424 199.84H272.687V187.103H285.424V199.84Z" fill="#1F1F1F"/>
<path d="M241.478 314.892L279.437 316.185L305.893 180.663L259.039 180.387L241.478 314.892Z" stroke="#1F1F1F" stroke-width="0.598541" stroke-miterlimit="10"/>
<path d="M311.651 312.63L313.159 340.378L332.456 342.305L330.613 312.354L311.651 312.63Z" fill="#FFFEF9" stroke="#1F1F1F" stroke-width="0.598541" stroke-miterlimit="10"/>
<path d="M315.207 312.57L316.811 340.953" stroke="#1F1F1F" stroke-width="0.598541" stroke-miterlimit="10"/>
<path d="M319.688 312.57L321.256 340.977" stroke="#1F1F1F" stroke-width="0.598541" stroke-miterlimit="10"/>
<path d="M323.333 312.57L324.698 341.024" stroke="#1F1F1F" stroke-width="0.598541" stroke-miterlimit="10"/>
<path d="M326.769 312.57L328.553 341.384" stroke="#1F1F1F" stroke-width="0.598541" stroke-miterlimit="10"/>
<path d="M288.799 368.33L338.526 367.887L336.395 338.092L308.515 337.876L308.611 350.769L288.799 368.33Z" fill="#FFFEF9"/>
<path d="M338.523 367.887C338.523 367.887 338.523 363.745 337.302 350.853L337.242 349.967C330.646 349.177 324.397 353.534 322.973 360.154C322.386 362.895 322.722 365.613 323.751 368.019H324.697C333.675 368.019 338.535 367.887 338.535 367.887H338.523Z" fill="#1F1F1F"/>
<path d="M288.799 368.33L338.526 367.887L336.395 338.092L308.515 337.876L308.611 350.769L288.799 368.33Z" stroke="#1F1F1F" stroke-width="0.598541" stroke-linecap="round" stroke-linejoin="round"/>
<path d="M279.438 179.645L300.016 314.891H338.862L326.759 177.239L279.438 179.645Z" fill="#FFFEF9"/>
<path d="M327.227 314.891V309.816H338.42L338.336 308.918H327.215V296.181H337.211L337.127 295.283H327.215V282.546H336.014L335.93 281.648H327.215V268.911H334.817L334.733 268.014H327.215V255.277H333.608L333.524 254.379H327.203V241.642H332.399L332.315 240.744H327.203V228.007H331.202L331.118 227.109H327.203V214.372H330.005L329.921 213.475H327.203V200.738H328.796L328.712 199.84H327.191V187.103H327.586L327.503 186.205H327.179V182.578L326.713 177.251L326.282 177.275V186.205H313.545V177.933L312.647 177.981V186.217H299.91V178.627L299.012 178.675V186.217H286.275V179.322L285.377 179.37V186.217H280.397L280.529 187.115H285.377V199.852H282.468L282.6 200.75H285.377V213.487H284.539L284.671 214.384H285.365V218.969L286.263 224.871V214.384H299V227.121H286.598L286.73 228.019H298.988V240.756H288.669L288.801 241.654H298.988V254.391H290.74L290.872 255.289H298.976V268.026H292.811L292.943 268.923H298.976V281.66H294.882L295.014 282.558H298.976V295.295H296.953L297.085 296.193H298.964V308.559L299.862 314.46V309.828H312.599V314.903H313.497V309.828H326.234V314.903H327.132L327.227 314.891ZM299.06 213.463H286.323V200.726H299.06V213.463ZM299.06 199.828H286.323V187.091H299.06V199.828ZM312.695 308.918H299.958V296.181H312.695V308.918ZM312.695 295.283H299.958V282.546H312.695V295.283ZM312.695 281.648H299.958V268.911H312.695V281.648ZM312.695 268.014H299.958V255.277H312.695V268.014ZM312.695 254.379H299.958V241.642H312.695V254.379ZM312.695 240.744H299.958V228.007H312.695V240.744ZM312.695 227.109H299.958V214.372H312.695V227.109ZM312.695 213.475H299.958V200.738H312.695V213.475ZM312.695 199.84H299.958V187.103H312.695V199.84ZM313.593 187.103H326.33V199.84H313.593V187.103ZM313.593 200.738H326.33V213.475H313.593V200.738ZM313.593 214.372H326.33V227.109H313.593V214.372ZM313.593 228.007H326.33V240.744H313.593V228.007ZM313.593 241.642H326.33V254.379H313.593V241.642ZM313.593 255.277H326.33V268.014H313.593V255.277ZM313.593 268.911H326.33V281.648H313.593V268.911ZM313.593 282.546H326.33V295.283H313.593V282.546ZM313.593 308.918V296.181H326.33V308.918H313.593Z" fill="#1F1F1F"/>
<path d="M279.438 179.645L300.016 314.891H338.862L326.759 177.239L279.438 179.645Z" stroke="#1F1F1F" stroke-width="0.598541" stroke-miterlimit="10"/>
<path d="M283.771 77.3783C283.771 77.3783 257.662 102.373 250.217 192.466L334.156 193.735C334.156 193.735 332.289 132.612 322.975 108.311C313.662 84.0101 294.293 76.7438 294.293 76.7438L283.771 77.3783Z" fill="#FFFEF9"/>
<path d="M317.75 179.046C315.895 177.046 314.039 175.047 312.184 173.048C311.813 172.653 311.214 172.533 310.771 172.881C310.376 173.204 310.233 173.898 310.604 174.293C312.459 176.292 314.315 178.291 316.17 180.291C316.541 180.686 317.14 180.805 317.583 180.458C317.978 180.135 318.121 179.441 317.75 179.046Z" fill="#FFFEF9"/>
<path d="M296.266 176.508C294.566 178.639 292.866 180.781 291.179 182.912C290.843 183.331 290.807 183.942 291.226 184.337C291.598 184.684 292.304 184.708 292.651 184.289C294.351 182.158 296.051 180.015 297.739 177.885C298.074 177.466 298.11 176.855 297.691 176.46C297.32 176.113 296.613 176.089 296.266 176.508Z" fill="#FFFEF9"/>
<path d="M301.045 169.242C299.178 167.255 297.298 165.28 295.431 163.292C295.06 162.897 294.461 162.778 294.018 163.137C293.623 163.46 293.492 164.154 293.863 164.549C295.73 166.536 297.61 168.512 299.477 170.499C299.848 170.894 300.447 171.014 300.89 170.654C301.285 170.331 301.416 169.637 301.045 169.242Z" fill="#FFFEF9"/>
<path d="M283.146 170.954C280.715 172.187 278.285 173.42 275.843 174.653C275.364 174.893 275.077 175.443 275.293 175.97C275.484 176.437 276.119 176.76 276.609 176.521C279.04 175.288 281.47 174.055 283.912 172.822C284.39 172.582 284.678 172.032 284.462 171.505C284.271 171.026 283.636 170.715 283.146 170.954Z" fill="#FFFEF9"/>
<path d="M262.729 155.272C264.226 152.997 265.722 150.711 267.218 148.437C267.518 147.982 267.494 147.371 267.039 147.024C266.632 146.713 265.925 146.749 265.626 147.204C264.13 149.478 262.634 151.764 261.137 154.039C260.838 154.494 260.862 155.104 261.317 155.451C261.724 155.763 262.43 155.727 262.729 155.272Z" fill="#FFFEF9"/>
<path d="M279.674 139.231C281.219 136.98 282.775 134.742 284.319 132.491C284.63 132.048 284.618 131.438 284.175 131.079C283.78 130.755 283.074 130.779 282.763 131.222C281.219 133.473 279.662 135.711 278.118 137.962C277.807 138.405 277.819 139.015 278.262 139.374C278.657 139.698 279.363 139.674 279.674 139.231Z" fill="#FFFEF9"/>
<path d="M273.837 127.535C274.16 124.83 274.483 122.125 274.818 119.407C274.878 118.869 274.591 118.33 274.028 118.222C273.525 118.126 272.915 118.474 272.843 119.012C272.52 121.718 272.197 124.423 271.861 127.14C271.802 127.679 272.089 128.218 272.652 128.326C273.154 128.421 273.765 128.074 273.837 127.535Z" fill="#FFFEF9"/>
<path d="M294.083 120.365C292.119 118.474 290.144 116.582 288.181 114.703C287.786 114.332 287.187 114.236 286.756 114.619C286.373 114.954 286.278 115.661 286.673 116.044C288.636 117.935 290.611 119.827 292.574 121.706C292.969 122.077 293.568 122.173 293.999 121.79C294.382 121.455 294.478 120.748 294.083 120.365Z" fill="#FFFEF9"/>
<path d="M279.55 107.52C280.113 104.851 280.675 102.181 281.25 99.5119C281.358 98.9851 281.118 98.4225 280.568 98.2669C280.077 98.1232 279.43 98.4105 279.323 98.9492C278.76 101.619 278.197 104.288 277.623 106.958C277.515 107.484 277.755 108.047 278.305 108.203C278.796 108.346 279.442 108.059 279.55 107.52Z" fill="#FFFEF9"/>
<path d="M290.308 79.3408C289.541 81.9624 288.763 84.5721 287.997 87.1937C287.841 87.7084 288.045 88.283 288.584 88.4985C289.063 88.6781 289.733 88.4387 289.877 87.912C290.643 85.2903 291.421 82.6807 292.187 80.0591C292.343 79.5443 292.139 78.9697 291.6 78.7662C291.122 78.5867 290.451 78.8261 290.308 79.3528V79.3408Z" fill="#FFFEF9"/>
<path d="M299.168 105.533C297.947 107.975 296.738 110.417 295.517 112.859C295.277 113.35 295.373 113.949 295.864 114.236C296.307 114.499 297.001 114.38 297.24 113.889L300.891 106.563C301.131 106.072 301.035 105.473 300.544 105.186C300.101 104.923 299.407 105.042 299.168 105.533Z" fill="#FFFEF9"/>
<path d="M302.76 135.915C300.797 134.023 298.822 132.132 296.859 130.253C296.464 129.882 295.865 129.786 295.434 130.169C295.051 130.504 294.955 131.21 295.35 131.593C297.314 133.485 299.289 135.376 301.252 137.256C301.647 137.627 302.246 137.722 302.677 137.339C303.06 137.004 303.155 136.298 302.76 135.915Z" fill="#FFFEF9"/>
<path d="M304.933 126.422C306.561 124.243 308.201 122.052 309.829 119.874C310.152 119.443 310.164 118.832 309.733 118.449C309.35 118.114 308.643 118.102 308.308 118.545C306.68 120.724 305.04 122.914 303.412 125.093C303.089 125.524 303.077 126.134 303.508 126.518C303.891 126.853 304.597 126.865 304.933 126.422Z" fill="#FFFEF9"/>
<path d="M267.721 176.687C266.14 178.914 264.572 181.14 262.992 183.367C262.681 183.81 262.681 184.42 263.124 184.78C263.519 185.103 264.225 185.091 264.536 184.648C266.116 182.421 267.685 180.195 269.265 177.968C269.576 177.525 269.576 176.915 269.133 176.556C268.738 176.232 268.032 176.244 267.721 176.687Z" fill="#FFFEF9"/>
<path d="M285.541 159.258C283.374 157.606 281.195 155.954 279.028 154.314C278.598 153.991 277.987 153.967 277.604 154.398C277.269 154.781 277.257 155.487 277.688 155.822C279.854 157.474 282.033 159.126 284.2 160.766C284.631 161.089 285.241 161.113 285.624 160.682C285.96 160.299 285.972 159.593 285.541 159.258Z" fill="#FFFEF9"/>
<path d="M311.388 164.094C310.466 161.533 309.544 158.959 308.623 156.397C308.443 155.882 307.94 155.535 307.39 155.691C306.899 155.823 306.504 156.409 306.683 156.924C307.605 159.486 308.527 162.059 309.449 164.621C309.628 165.136 310.131 165.483 310.681 165.327C311.172 165.196 311.567 164.609 311.388 164.094Z" fill="#FFFEF9"/>
<path d="M325.465 162.646L322.46 170.26C322.256 170.762 322.412 171.349 322.927 171.6C323.382 171.828 324.076 171.648 324.268 171.134C325.273 168.596 326.279 166.058 327.272 163.52C327.476 163.017 327.32 162.431 326.805 162.179C326.35 161.952 325.656 162.131 325.465 162.646Z" fill="#FFFEF9"/>
<path d="M264.973 116.271C265.117 116.798 265.584 117.181 266.146 117.074C266.649 116.978 267.092 116.427 266.948 115.9C266.553 114.44 266.158 112.979 265.763 111.519C265.38 112.62 264.985 113.758 264.602 114.919C264.722 115.374 264.841 115.817 264.961 116.271H264.973Z" fill="#FFFEF9"/>
<path d="M262.32 137.316C262.703 137.699 263.301 137.807 263.732 137.436C264.127 137.1 264.235 136.406 263.852 136.023C262.475 134.622 261.099 133.222 259.722 131.833C259.53 132.587 259.339 133.342 259.159 134.12C260.213 135.185 261.254 136.251 262.308 137.328L262.32 137.316Z" fill="#FFFEF9"/>
<path d="M256.561 170.667C256.897 171.098 257.483 171.265 257.962 170.942C258.381 170.655 258.573 169.972 258.237 169.541C256.657 167.554 255.089 165.555 253.509 163.568C253.377 164.466 253.246 165.387 253.114 166.297C254.263 167.758 255.412 169.206 256.561 170.667Z" fill="#FFFEF9"/>
<path d="M328.292 175.766C327.873 176.065 327.705 176.748 328.064 177.167C329.824 179.25 331.584 181.332 333.343 183.415C333.451 183.535 333.571 183.631 333.714 183.703C333.667 182.709 333.607 181.644 333.535 180.542C332.254 179.022 330.973 177.514 329.692 175.993C329.345 175.575 328.747 175.431 328.292 175.766Z" fill="#FFFEF9"/>
<path d="M279.053 91.408C279.365 91.8509 279.939 92.0544 280.43 91.7671C280.873 91.5038 281.1 90.8334 280.789 90.3905C279.724 88.8462 278.646 87.302 277.581 85.7578C277.21 86.3563 276.839 86.9788 276.456 87.6491C277.318 88.8941 278.192 90.151 279.053 91.396V91.408Z" fill="#FFFEF9"/>
<path d="M251.199 182.003C250.839 185.391 250.504 188.862 250.217 192.466L334.156 193.734C334.156 193.734 334.037 189.724 333.702 183.368L251.211 182.015L251.199 182.003Z" fill="#1F1F1F"/>
<path d="M289.993 182.649L288.796 182.625V193.052L289.993 193.064V182.649Z" fill="#FFFEF9"/>
<path d="M272.719 182.361L271.522 182.337V192.788L272.719 192.8V182.361Z" fill="#FFFEF9"/>
<path d="M281.478 182.506L280.281 182.482L280.413 192.92L281.61 192.932L281.478 182.506Z" fill="#FFFEF9"/>
<path d="M265.515 182.242L264.318 182.218L264.114 192.669L265.311 192.692L265.515 182.242Z" fill="#FFFEF9"/>
<path d="M255.505 182.074L254.858 192.537L256.055 192.549L256.714 182.098L255.505 182.074Z" fill="#FFFEF9"/>
<path d="M315.334 183.056L314.137 183.044V193.423L315.334 193.447V183.056Z" fill="#FFFEF9"/>
<path d="M322.983 183.187L321.785 183.163L321.354 193.53L322.552 193.554L322.983 183.187Z" fill="#FFFEF9"/>
<path d="M299.409 182.793L298.199 182.781L297.864 193.183L299.061 193.195L299.409 182.793Z" fill="#FFFEF9"/>
<path d="M330.107 183.295L328.91 183.283V193.65L330.107 193.662V183.295Z" fill="#FFFEF9"/>
<path d="M307.412 182.924L306.215 182.912L305.892 193.303L307.089 193.327L307.412 182.924Z" fill="#FFFEF9"/>
<path d="M283.771 77.3783C283.771 77.3783 257.662 102.373 250.217 192.466L334.156 193.735C334.156 193.735 332.289 132.612 322.975 108.311C313.662 84.0101 294.293 76.7438 294.293 76.7438L283.771 77.3783Z" stroke="#1F1F1F" stroke-width="0.598541" stroke-linecap="round" stroke-linejoin="round"/>
<path d="M300.577 136.706C300.577 136.706 281.447 140.082 271.404 148.21C261.36 156.338 263.443 167.423 264.042 168.764C264.64 170.104 272.062 162.599 272.062 162.599L270.039 166.405C270.039 166.405 269.704 167.638 271.811 167.399C274.887 167.052 274.049 167.124 283.782 158.9C288.917 154.554 302.121 154.111 304.491 150.424C307.592 145.624 300.565 136.706 300.565 136.706H300.577Z" fill="#FFFEF9" stroke="#1F1F1F" stroke-width="0.598541" stroke-linecap="round" stroke-linejoin="round"/>
<path d="M357.349 127.547C351.28 83.2666 294.311 76.7425 294.311 76.7425L293.736 91.0117L305.216 109.399L317.355 125.093L286.422 138.201L288.816 159.401C288.816 159.401 363.466 172.114 357.349 127.559V127.547Z" fill="#FFFEF9"/>
<path d="M294.361 134.826L286.412 138.19L288.807 159.391C288.807 159.391 292.517 160.025 298.216 160.516L294.361 134.826Z" fill="#1F1F1F"/>
<path d="M288.414 155.955L297.464 155.548L297.296 154.411L288.282 154.818L288.414 155.955Z" fill="#FFFEF9"/>
<path d="M287.903 151.418L296.701 150.436L296.534 149.299L287.771 150.28L287.903 151.418Z" fill="#FFFEF9"/>
<path d="M295.935 145.372L295.767 144.235L287.316 146.27L287.448 147.419L295.935 145.372Z" fill="#FFFEF9"/>
<path d="M286.884 142.415L295.096 139.77L294.929 138.621L286.753 141.254L286.884 142.415Z" fill="#FFFEF9"/>
<path d="M300.325 137.686C298.087 139.242 295.848 140.798 293.597 142.342C293.155 142.653 292.951 143.228 293.238 143.719C293.502 144.162 294.172 144.389 294.615 144.078C296.854 142.522 299.092 140.966 301.343 139.421C301.786 139.11 301.989 138.536 301.702 138.045C301.438 137.602 300.768 137.374 300.325 137.686Z" fill="#FFFEF9"/>
<path d="M314.621 148.759C311.904 148.484 309.199 148.208 306.481 147.933C305.943 147.873 305.416 148.184 305.308 148.747C305.212 149.25 305.571 149.86 306.122 149.92C308.839 150.195 311.545 150.471 314.262 150.746C314.801 150.806 315.328 150.495 315.435 149.932C315.531 149.429 315.172 148.819 314.621 148.759Z" fill="#FFFEF9"/>
<path d="M333.694 154.589C331.264 153.356 328.834 152.111 326.403 150.878C325.925 150.626 325.314 150.722 325.015 151.213C324.752 151.644 324.859 152.35 325.35 152.601C327.78 153.834 330.21 155.079 332.64 156.312C333.119 156.564 333.73 156.468 334.029 155.977C334.292 155.546 334.185 154.84 333.694 154.589Z" fill="#FFFEF9"/>
<path d="M329.589 133.268C327.59 135.124 325.591 136.979 323.592 138.835C323.197 139.206 323.077 139.804 323.424 140.247C323.747 140.642 324.442 140.786 324.837 140.415C326.836 138.559 328.835 136.704 330.834 134.848C331.229 134.477 331.349 133.879 331.002 133.436C330.678 133.041 329.984 132.897 329.589 133.268Z" fill="#FFFEF9"/>
<path d="M346.229 145.874C343.523 145.503 340.83 145.132 338.124 144.76C337.586 144.689 337.047 144.964 336.927 145.527C336.819 146.029 337.155 146.652 337.693 146.724C340.399 147.095 343.092 147.466 345.798 147.837C346.336 147.909 346.875 147.633 346.995 147.071C347.102 146.568 346.767 145.946 346.229 145.874Z" fill="#FFFEF9"/>
<path d="M349.608 125.511C347.489 127.235 345.382 128.959 343.263 130.683C342.844 131.03 342.689 131.616 343.012 132.083C343.299 132.502 343.994 132.682 344.413 132.335C346.531 130.611 348.638 128.887 350.757 127.163C351.176 126.816 351.332 126.229 351.009 125.763C350.721 125.344 350.027 125.164 349.608 125.511Z" fill="#FFFEF9"/>
<path d="M334.196 114.882C333.789 117.575 333.382 120.281 332.975 122.974C332.891 123.513 333.166 124.051 333.729 124.183C334.232 124.303 334.854 123.968 334.938 123.429C335.345 120.736 335.752 118.03 336.159 115.337C336.243 114.798 335.967 114.259 335.405 114.128C334.902 114.008 334.28 114.343 334.196 114.882Z" fill="#FFFEF9"/>
<path d="M317.174 111.961C318.466 114.355 319.771 116.761 321.064 119.155C321.327 119.634 321.866 119.897 322.393 119.67C322.86 119.466 323.159 118.82 322.908 118.341C321.615 115.947 320.31 113.541 319.017 111.146C318.754 110.668 318.215 110.404 317.688 110.632C317.221 110.835 316.922 111.482 317.174 111.961Z" fill="#FFFEF9"/>
<path d="M299.694 96.3144C297.012 95.8356 294.319 95.3567 291.638 94.8899C291.099 94.7941 290.56 95.0575 290.416 95.6081C290.285 96.0989 290.596 96.7334 291.135 96.8291C293.816 97.308 296.51 97.7868 299.191 98.2537C299.73 98.3494 300.268 98.0861 300.412 97.5354C300.544 97.0446 300.233 96.4102 299.694 96.3144Z" fill="#FFFEF9"/>
<path d="M305.88 89.1441C304.575 86.75 303.27 84.3558 301.965 81.9616C301.702 81.4828 301.163 81.2194 300.637 81.4589C300.17 81.6743 299.87 82.3088 300.134 82.7876C301.439 85.1818 302.743 87.576 304.048 89.9701C304.312 90.449 304.85 90.7123 305.377 90.4729C305.844 90.2574 306.143 89.623 305.88 89.1441Z" fill="#FFFEF9"/>
<path d="M309.919 100.229C312.564 100.887 315.21 101.534 317.867 102.192C318.394 102.324 318.957 102.096 319.136 101.558C319.292 101.067 319.029 100.42 318.502 100.289C315.856 99.6304 313.211 98.984 310.553 98.3256C310.026 98.1939 309.464 98.4213 309.284 98.96C309.129 99.4508 309.392 100.097 309.919 100.229Z" fill="#FFFEF9"/>
<path d="M327.344 98.4813C329.894 99.4389 332.456 100.397 335.005 101.354C335.508 101.546 336.095 101.39 336.346 100.863C336.561 100.397 336.37 99.7143 335.855 99.5227C333.305 98.5651 330.744 97.6074 328.194 96.6497C327.691 96.4582 327.105 96.6138 326.853 97.1405C326.638 97.6074 326.829 98.2897 327.344 98.4813Z" fill="#FFFEF9"/>
<path d="M317.675 89.3113C317.843 89.826 318.346 90.1851 318.896 90.0415C319.387 89.9098 319.794 89.3352 319.626 88.8205C318.968 86.8692 318.31 84.93 317.651 82.9787C316.837 82.6555 316.023 82.3443 315.221 82.045C316.035 84.4631 316.849 86.8932 317.675 89.3113Z" fill="#FFFEF9"/>
<path d="M350.497 108.31C349.647 109.411 348.797 110.512 347.947 111.614C347.612 112.045 347.588 112.655 348.019 113.038C348.402 113.385 349.109 113.397 349.444 112.966C350.162 112.033 350.88 111.111 351.599 110.177C351.239 109.543 350.88 108.92 350.509 108.31H350.497Z" fill="#FFFEF9"/>
<path d="M309.499 110.584C309.008 110.441 308.362 110.716 308.242 111.255C308.122 111.793 308.003 112.332 307.883 112.859L309.475 114.918C309.703 113.888 309.93 112.859 310.157 111.829C310.277 111.302 310.038 110.74 309.487 110.572L309.499 110.584Z" fill="#FFFEF9"/>
<path d="M309.285 128.504C308.974 130.634 308.651 132.765 308.34 134.884C308.256 135.423 308.543 135.961 309.094 136.093C309.597 136.213 310.219 135.878 310.303 135.339C310.686 132.753 311.069 130.167 311.452 127.594L309.285 128.516V128.504Z" fill="#FFFEF9"/>
<path d="M355.106 135.855C354.627 135.603 354.028 135.675 353.717 136.166C353.442 136.597 353.55 137.303 354.028 137.555C354.998 138.069 355.968 138.584 356.937 139.099C357.105 138.428 357.249 137.758 357.356 137.052C356.614 136.657 355.86 136.25 355.118 135.855H355.106Z" fill="#FFFEF9"/>
<path d="M342.212 152.829C341.901 152.386 341.327 152.182 340.836 152.47C340.393 152.733 340.165 153.403 340.477 153.846C340.932 154.505 341.386 155.151 341.829 155.81C342.452 155.534 343.062 155.235 343.661 154.924C343.182 154.229 342.691 153.523 342.212 152.829Z" fill="#FFFEF9"/>
<path d="M316.636 159.161C316.325 158.719 315.75 158.515 315.259 158.802C314.817 159.066 314.589 159.736 314.9 160.179C315.092 160.454 315.272 160.718 315.463 160.993C316.241 160.969 317.031 160.921 317.833 160.885C317.438 160.311 317.043 159.748 316.648 159.173L316.636 159.161Z" fill="#FFFEF9"/>
<path d="M306.217 156.492C304.206 157.88 302.207 159.281 300.196 160.67C301.226 160.741 302.303 160.813 303.428 160.873C304.697 159.987 305.966 159.113 307.235 158.228C307.678 157.916 307.881 157.342 307.594 156.851C307.331 156.408 306.66 156.181 306.217 156.492Z" fill="#FFFEF9"/>
<path d="M294.308 76.7427C294.308 76.7427 351.277 83.2788 357.346 127.547C363.452 172.102 288.813 159.389 288.813 159.389L286.419 138.189L329.071 120.125" stroke="#1F1F1F" stroke-width="0.598541" stroke-linecap="round" stroke-linejoin="round"/>
<path d="M317.337 125.093L305.211 109.4" stroke="#1F1F1F" stroke-width="0.598541" stroke-linecap="round" stroke-linejoin="round"/>
<path d="M297.22 73.7026C295.52 73.2477 293.772 72.8407 292.013 72.9724C289.223 73.1759 286.566 74.7202 283.789 74.385C282.077 74.1815 280.533 73.2717 278.857 72.9126C277.336 72.5774 275.744 72.6851 274.272 72.1823C271.267 71.1529 269.603 67.6813 269.914 64.521C270.226 61.3607 272.117 58.5595 274.403 56.3689C274.583 56.1893 274.775 56.0217 275.002 55.914C275.301 55.7823 275.625 55.7943 275.948 55.7703C277.54 55.6865 279.036 54.9803 280.449 54.2261C281.981 53.4121 283.489 52.4784 284.603 51.1496C285.872 49.6173 286.494 47.6661 287.26 45.8226C288.601 42.6024 290.516 39.5259 293.305 37.4191C296.095 35.3122 299.842 34.3066 303.169 35.372L305.599 33.756C307.263 35.7072 308.616 38.0056 310.723 39.4661C311.753 40.1723 312.926 40.6631 314.003 41.2976C317.798 43.5361 320.3 47.8217 320.371 52.2389C320.443 56.6442 318.085 61.0136 314.35 63.3718C313.74 63.7549 313.069 64.114 312.626 64.6886C311.884 65.6463 311.896 66.9511 311.705 68.1482C311.214 71.1768 309.023 73.8583 306.15 74.9476C303.289 76.037 299.865 75.4983 297.483 73.571" fill="#1F1F1F"/>
<path d="M305.766 28.3448C311.108 28.3448 315.439 24.0143 315.439 18.6724C315.439 13.3304 311.108 8.99994 305.766 8.99994C300.424 8.99994 296.094 13.3304 296.094 18.6724C296.094 24.0143 300.424 28.3448 305.766 28.3448Z" fill="#1F1F1F"/>
<path d="M300.308 50.7065C299.111 50.6946 297.998 51.0657 297.088 51.7001L297.124 48.3962C297.184 43.153 293.461 38.8195 288.864 38.7716L281.945 38.6998C277.336 38.6519 273.529 42.8896 273.469 48.1328L273.35 58.8707C273.29 64.1139 277.013 68.4473 281.609 68.4952L285.608 68.5431L285.548 74.325C285.524 76.6952 287.439 78.6584 289.809 78.6824L292.551 78.7183C294.921 78.7422 296.884 76.8269 296.908 74.4567L296.98 67.9206V67.5615L297.052 61.0254C297.052 60.8937 297.052 60.762 297.028 60.6423C297.914 61.2768 299.003 61.6479 300.176 61.6718C303.217 61.7077 305.719 59.2896 305.755 56.261C305.791 53.2444 303.349 50.7664 300.308 50.7305V50.7065Z" fill="#FFFEF9" stroke="#1F1F1F" stroke-width="0.598541" stroke-miterlimit="10"/>
<path d="M297.251 56.8593C297.251 56.8593 297.048 53.1364 300.855 53.6032" stroke="#1F1F1F" stroke-width="0.598541" stroke-linecap="round" stroke-linejoin="round"/>
<path d="M287.281 51.7828C287.281 52.6447 286.563 53.339 285.701 53.327C284.839 53.327 284.145 52.6087 284.157 51.7468C284.157 50.8849 284.875 50.1906 285.737 50.2026C286.599 50.2026 287.293 50.9209 287.281 51.7828Z" fill="#1F1F1F"/>
<path d="M277.054 51.4478C277.054 52.178 276.443 52.7766 275.701 52.7646C274.971 52.7646 274.372 52.1541 274.384 51.4119C274.384 50.6817 274.995 50.0831 275.737 50.0951C276.467 50.0951 277.066 50.7056 277.054 51.4478Z" fill="#1F1F1F"/>
<path d="M280.8 55.9498L278.047 54.2379L280.512 50.1559" stroke="#1F1F1F" stroke-width="0.598541" stroke-linecap="round" stroke-linejoin="round"/>
<path d="M288.281 49.6404L285.611 48.5391" stroke="#1F1F1F" stroke-width="1.19708" stroke-linecap="round" stroke-linejoin="round"/>
<path d="M276.848 48.5987L274.274 48.9458" stroke="#1F1F1F" stroke-width="1.19708" stroke-linecap="round" stroke-linejoin="round"/>
<path d="M277.798 59.7918C277.786 61.1206 278.851 62.2099 280.168 62.2219C281.497 62.2339 282.586 61.1684 282.598 59.8517" stroke="#1F1F1F" stroke-width="0.598541" stroke-linecap="round" stroke-linejoin="round"/>
<path d="M271.526 36.9042C274.842 31.1103 281.091 27.1001 287.735 26.4895C294.378 25.879 301.25 28.6682 305.583 33.7439C305.583 33.7439 308.672 40.5553 308.971 44.2782C309.21 47.2709 305.87 51.317 304.566 52.7775C303.572 51.5325 302.04 50.7305 300.316 50.7065C299.119 50.6946 298.006 51.0657 297.096 51.7001C297.096 51.7001 296.677 52.1789 296.186 52.8493C295.731 52.586 295.324 52.167 294.833 51.9515C294.163 51.6522 293.397 51.7719 292.679 51.6283C291.23 51.353 290.177 50.12 289.411 48.863C287.998 46.5407 287.172 43.8712 287.016 41.1538L286.645 41.1897C284.981 43.5001 283.15 45.9421 280.456 46.8519C279.331 47.235 278.146 47.3188 276.961 47.4026C275.704 47.4864 274.447 47.5821 273.202 47.6659C272.651 47.7018 272.089 47.7378 271.574 47.5223C270.928 47.247 270.509 46.6005 270.233 45.9421C269.024 43.0332 269.946 39.6335 271.514 36.8922L271.526 36.9042Z" fill="#1F1F1F"/>
<path d="M279.104 76.4762L279.166 73.6997C279.22 71.2702 281.239 69.3396 283.668 69.3939L298.64 69.7284C301.069 69.7827 303 71.8015 302.946 74.231L302.884 77.0076C302.829 79.437 300.811 81.3676 298.381 81.3133L283.409 80.9788C280.98 80.9245 279.049 78.9057 279.104 76.4762Z" fill="#1F1F1F"/>
<path d="M297.128 81.3035L298.157 81.3274V69.7396L297.128 69.7157V81.3035Z" fill="#FFFEF9"/>
<path d="M293.821 81.2311L294.862 81.2551V69.6673L293.821 69.6434V81.2311Z" fill="#FFFEF9"/>
<path d="M300.43 80.884C300.801 80.7044 301.16 80.477 301.459 80.2017V70.8405C301.148 70.5651 300.801 70.3257 300.43 70.1581V80.896V80.884Z" fill="#FFFEF9"/>
<path d="M283.922 81.0041L284.951 81.028V69.4403L283.922 69.4163V81.0041Z" fill="#FFFEF9"/>
<path d="M290.514 81.1472L291.555 81.1711V69.5833L290.514 69.5594V81.1472Z" fill="#FFFEF9"/>
<path d="M280.617 79.8427C280.929 80.13 281.276 80.3694 281.647 80.5489V69.8949C281.276 70.0864 280.917 70.3139 280.617 70.6012V79.8427Z" fill="#FFFEF9"/>
<path d="M287.209 81.076L288.251 81.1V69.5122L287.209 69.4883V81.076Z" fill="#FFFEF9"/>
<path d="M300.358 81.2205L282.055 81.017" stroke="#1F1F1F" stroke-width="0.598541" stroke-linecap="round" stroke-linejoin="round"/>
<path d="M156.483 216.307L156.476 216.299L156.244 216.289L133.595 215.283L133.594 215.283C131.929 215.213 130.611 213.839 130.611 212.158V204.174C130.611 164.541 160.549 132.48 197.397 132.48H202.089C209.142 132.48 214.934 138.625 214.934 146.295V217.84L156.483 216.307Z" fill="#1F1F1F" stroke="black" stroke-width="1.19708"/>
<path d="M197.178 146.294C197.178 146.294 213.039 174.378 213.303 204.533C213.303 204.533 193.539 175.156 166.509 160.588" stroke="#FFFEF9" stroke-width="0.598541" stroke-linecap="round" stroke-linejoin="round"/>
<path d="M163.646 250.955H240.87V256.606C240.87 263.824 235.016 269.678 227.798 269.678H176.718C169.5 269.678 163.646 263.824 163.646 256.606V250.955Z" fill="#1F1F1F"/>
<path d="M268.706 201.684H134.333C131.939 201.684 130 203.587 130 205.933V213.475C130 236.04 148.698 254.343 171.766 254.343H231.273C254.341 254.343 273.039 236.052 273.039 213.475V205.933C273.039 203.587 271.1 201.684 268.706 201.684Z" fill="#1F1F1F"/>
<path d="M268.706 201.684H214.526H185.952H131.76" stroke="#FFFEF9" stroke-width="0.598541" stroke-linecap="round" stroke-linejoin="round"/>
<path d="M142.329 221.962H259.643" stroke="#FFFEF9" stroke-width="0.598541" stroke-linecap="round" stroke-linejoin="round"/>
<path d="M154.539 238.602H251.024" stroke="#FFFEF9" stroke-width="0.598541" stroke-linecap="round" stroke-linejoin="round"/>
<path d="M178.982 259.144L272.127 162.276" stroke="#1F1F1F" stroke-width="3.59125" stroke-linecap="round" stroke-linejoin="round"/>
<path d="M219.469 223.435C219.469 226.834 216.716 229.6 213.304 229.6C209.892 229.6 207.139 226.846 207.139 223.435C207.139 220.023 209.892 217.27 213.304 217.27C216.716 217.27 219.469 220.023 219.469 223.435Z" fill="#1F1F1F"/>
<path d="M213.302 226.379C214.928 226.379 216.247 225.06 216.247 223.434C216.247 221.808 214.928 220.489 213.302 220.489C211.676 220.489 210.357 221.808 210.357 223.434C210.357 225.06 211.676 226.379 213.302 226.379Z" fill="#FFFEF9"/>
<path d="M176.802 353.257C179.341 342.424 172.617 331.583 161.784 329.044C150.951 326.506 140.11 333.229 137.571 344.063C135.032 354.896 141.756 365.736 152.59 368.275C163.423 370.814 174.263 364.09 176.802 353.257Z" stroke="#1F1F1F" stroke-width="2.39417" stroke-miterlimit="10"/>
<path d="M160.545 348.614C160.545 350.493 159.025 352.013 157.145 352.013C155.266 352.013 153.746 350.493 153.746 348.614C153.746 346.734 155.266 345.214 157.145 345.214C159.025 345.214 160.545 346.734 160.545 348.614Z" fill="#1F1F1F"/>
<path d="M157.135 328.466V368.76" stroke="#1F1F1F" stroke-width="0.897812" stroke-miterlimit="10"/>
<path d="M137.012 347.764H177.293" stroke="#1F1F1F" stroke-width="0.897812" stroke-miterlimit="10"/>
<path d="M142.876 334.38L171.402 362.859" stroke="#1F1F1F" stroke-width="0.897812" stroke-miterlimit="10"/>
<path d="M142.312 362.26L170.767 333.758" stroke="#1F1F1F" stroke-width="0.897812" stroke-miterlimit="10"/>
<path d="M170.773 333.758L227.263 267.367" stroke="#1F1F1F" stroke-width="2.39417" stroke-miterlimit="10"/>
<path d="M251.757 368.296C262.622 365.897 269.485 355.145 267.086 344.279C264.688 333.414 253.935 326.551 243.07 328.95C232.205 331.348 225.341 342.101 227.74 352.966C230.139 363.831 240.891 370.695 251.757 368.296Z" stroke="#1F1F1F" stroke-width="2.39417" stroke-miterlimit="10"/>
<path d="M247.415 352.014C249.292 352.014 250.814 350.492 250.814 348.614C250.814 346.737 249.292 345.215 247.415 345.215C245.537 345.215 244.015 346.737 244.015 348.614C244.015 350.492 245.537 352.014 247.415 352.014Z" fill="#1F1F1F"/>
<path d="M247.414 328.467V368.76" stroke="#1F1F1F" stroke-width="0.897812" stroke-miterlimit="10"/>
<path d="M267.538 347.764H227.268" stroke="#1F1F1F" stroke-width="0.897812" stroke-miterlimit="10"/>
<path d="M261.675 334.38L233.149 362.859" stroke="#1F1F1F" stroke-width="0.897812" stroke-miterlimit="10"/>
<path d="M262.236 362.26L233.782 333.758" stroke="#1F1F1F" stroke-width="0.897812" stroke-miterlimit="10"/>
<path d="M233.778 333.758L177.299 267.367" stroke="#1F1F1F" stroke-width="2.39417" stroke-miterlimit="10"/>
<path d="M183.124 319.237H221.646" stroke="#1F1F1F" stroke-width="2.39417" stroke-miterlimit="10"/>
</svg>
