<svg width="290" height="300" viewBox="0 0 290 300" fill="none" xmlns="http://www.w3.org/2000/svg">
<path d="M136.923 119.249C135.624 119.461 134.662 122.146 132.14 127.44C129.618 132.743 124.941 137.488 124.941 137.488L139.686 148.402C139.686 148.402 150.966 134.812 153.228 130.144C155.489 125.476 153.795 124.745 153.093 124.639C153.093 124.639 151.957 124.533 151.293 125.361C151.668 124.187 151.803 122.878 150.658 122.464C150.061 122.252 149.407 122.483 148.742 122.974L148.521 122.791C148.646 122.368 149.07 120.587 147.751 120.202C146.875 119.952 145.913 120.645 145.162 121.444L145.027 121.386C145.759 119.499 145.422 117.777 143.449 118.017C142.313 118.162 140.321 120.991 138.771 123.494C139.589 120.52 138.213 119.018 136.914 119.23L136.923 119.249Z" fill="white"/>
<path d="M138.828 123.416C140.368 120.933 142.331 118.171 143.447 118.027C145.498 117.776 145.777 119.653 144.93 121.617" stroke="#1F1F1F" stroke-width="0.481234" stroke-linecap="round" stroke-linejoin="round"/>
<path d="M140.002 129.412C140.002 129.412 143.535 123.975 144.006 123.051C144.478 122.127 146.239 119.778 147.75 120.211C149.261 120.644 148.491 122.887 148.491 122.887C148.491 122.887 148.366 123.262 148.097 123.532" stroke="#1F1F1F" stroke-width="0.481234" stroke-linecap="round" stroke-linejoin="round"/>
<path d="M143.537 130.645C143.537 130.645 147.801 121.424 150.659 122.464C151.766 122.868 151.67 124.119 151.323 125.264" stroke="#1F1F1F" stroke-width="0.481234" stroke-linecap="round" stroke-linejoin="round"/>
<path d="M146.789 133.041C146.789 133.041 150.629 126.198 151.293 125.37C151.957 124.542 153.093 124.648 153.093 124.648C153.796 124.764 155.499 125.486 153.228 130.154C150.956 134.822 139.686 148.412 139.686 148.412L124.941 137.497C124.941 137.497 129.618 132.752 132.14 127.449C134.662 122.146 135.624 119.461 136.924 119.259C138.223 119.047 139.599 120.548 138.781 123.522C138.781 123.522 138.194 125.842 137.559 127.16C137.559 127.16 138.81 129.509 138.213 132.021" stroke="#1F1F1F" stroke-width="0.481234" stroke-linecap="round" stroke-linejoin="round"/>
<path d="M102.695 154.225L123.436 134.88L142.098 148.412C136.314 160.77 119.798 183.465 104.87 183.446C89.9423 183.427 86.1309 169.885 86.1309 169.885L71.5784 126.872C71.5784 126.872 86.9393 122.358 106.843 150.366" fill="white"/>
<path d="M124.929 153.147C122.234 153.147 120.04 150.953 120.04 148.258C120.04 145.563 122.234 143.368 124.929 143.368C127.624 143.368 129.818 145.563 129.818 148.258C129.818 150.953 127.624 153.147 124.929 153.147ZM124.929 144.36C122.773 144.36 121.031 146.111 121.031 148.258C121.031 150.404 122.783 152.156 124.929 152.156C127.075 152.156 128.827 150.404 128.827 148.258C128.827 146.111 127.075 144.36 124.929 144.36Z" fill="#1F1F1F"/>
<path d="M111.195 170.866C108.5 170.866 106.305 168.672 106.305 165.977C106.305 163.282 108.5 161.088 111.195 161.088C113.889 161.088 116.084 163.282 116.084 165.977C116.084 168.672 113.889 170.866 111.195 170.866ZM111.195 162.079C109.039 162.079 107.297 163.831 107.297 165.977C107.297 168.123 109.048 169.875 111.195 169.875C113.341 169.875 115.093 168.123 115.093 165.977C115.093 163.831 113.341 162.079 111.195 162.079Z" fill="#1F1F1F"/>
<path d="M94.6391 166.035C91.9441 166.035 89.7498 163.84 89.7498 161.145C89.7498 158.45 91.9441 156.256 94.6391 156.256C97.334 156.256 99.5284 158.45 99.5284 161.145C99.5284 163.84 97.334 166.035 94.6391 166.035ZM94.6391 157.247C92.4831 157.247 90.7411 158.999 90.7411 161.145C90.7411 163.292 92.4927 165.043 94.6391 165.043C96.7854 165.043 98.537 163.292 98.537 161.145C98.537 158.999 96.7854 157.247 94.6391 157.247Z" fill="#1F1F1F"/>
<path d="M90.7318 145.332C88.0369 145.332 85.8425 143.137 85.8425 140.443C85.8425 137.748 88.0369 135.553 90.7318 135.553C93.4267 135.553 95.6212 137.748 95.6212 140.443C95.6212 143.137 93.4267 145.332 90.7318 145.332ZM90.7318 136.545C88.5759 136.545 86.8338 138.296 86.8338 140.443C86.8338 142.589 88.5855 144.341 90.7318 144.341C92.8781 144.341 94.6298 142.589 94.6298 140.443C94.6298 138.296 92.8781 136.545 90.7318 136.545Z" fill="#1F1F1F"/>
<path d="M111.196 149.528C111.196 148.594 110.917 147.728 110.465 146.987L109.724 147.68C110.022 148.238 110.215 148.864 110.215 149.538C110.215 151.684 108.463 153.436 106.317 153.436C105.547 153.436 104.825 153.205 104.218 152.81L103.477 153.493C104.276 154.071 105.248 154.408 106.307 154.408C109.002 154.408 111.196 152.213 111.196 149.518V149.528Z" fill="#1F1F1F"/>
<path d="M103.475 153.493L104.217 152.81C103.129 152.117 102.407 150.904 102.407 149.528C102.407 148.277 103.013 147.17 103.928 146.458C103.726 146.198 103.524 145.928 103.321 145.688C102.176 146.583 101.416 147.959 101.416 149.528C101.416 151.097 102.234 152.608 103.475 153.493Z" fill="#1F1F1F"/>
<path d="M129.875 161.097C127.18 161.097 124.986 163.292 124.986 165.987C124.986 167.738 125.919 169.269 127.315 170.135C127.546 169.885 127.767 169.634 127.998 169.384C126.795 168.72 125.977 167.45 125.977 165.987C125.977 163.831 127.729 162.089 129.875 162.089C131.069 162.089 132.118 162.637 132.84 163.484C133.042 163.215 133.244 162.945 133.436 162.676C132.541 161.723 131.28 161.117 129.875 161.117V161.097Z" fill="#1F1F1F"/>
<path d="M107.094 180.02C107.094 177.325 104.9 175.13 102.205 175.13C99.5101 175.13 97.3157 177.325 97.3157 180.02C97.3157 180.847 97.537 181.608 97.9028 182.291C98.3936 182.464 98.9038 182.628 99.4331 182.763C98.7401 182.06 98.307 181.088 98.307 180.02C98.307 177.864 100.059 176.122 102.205 176.122C104.351 176.122 106.103 177.873 106.103 180.02C106.103 181.492 105.275 182.753 104.072 183.417C104.342 183.417 104.602 183.436 104.871 183.436C105.15 183.436 105.429 183.417 105.708 183.398C106.555 182.522 107.085 181.328 107.085 180.01L107.094 180.02Z" fill="#1F1F1F"/>
<path d="M102.695 154.225L123.436 134.88L142.098 148.412C136.314 160.77 119.798 183.465 104.87 183.446C89.9423 183.427 86.1309 169.885 86.1309 169.885L71.5784 126.872C71.5784 126.872 86.9393 122.358 106.843 150.366" stroke="#1F1F1F" stroke-width="0.481234" stroke-linecap="round" stroke-linejoin="round"/>
<path d="M118.414 139.567L138.635 154.871C140.031 152.551 141.205 150.347 142.11 148.412L123.448 134.88L118.423 139.567H118.414Z" fill="#1F1F1F"/>
<path d="M129.224 139.066L128.425 138.489L123.93 143.744L124.719 144.341L129.224 139.066Z" fill="white"/>
<path d="M125.018 136.016L120.379 141.059L121.168 141.656L125.817 136.603L125.018 136.016Z" fill="white"/>
<path d="M139.599 146.593L138.8 146.006L134.873 152.021L135.662 152.618L139.599 146.593Z" fill="white"/>
<path d="M132.353 141.328L131.554 140.751L127.415 146.381L128.195 146.968L132.353 141.328Z" fill="white"/>
<path d="M135.954 143.946L135.155 143.369L130.785 148.932L131.574 149.528L135.954 143.946Z" fill="white"/>
<path d="M88.9581 297.239C68.7367 297.239 52.2881 277.836 52.2881 253.986C52.2881 230.136 68.7367 210.732 88.9581 210.732C109.18 210.732 125.628 230.136 125.628 253.986C125.628 277.836 109.18 297.239 88.9581 297.239ZM88.9581 215.814C71.5375 215.814 57.3699 232.936 57.3699 253.986C57.3699 275.035 71.5375 292.157 88.9581 292.157C106.379 292.157 120.546 275.035 120.546 253.986C120.546 232.936 106.379 215.814 88.9581 215.814Z" fill="#1F1F1F" stroke="#1F1F1F" stroke-width="0.481234" stroke-miterlimit="10"/>
<path d="M88.9584 293.659C70.5175 293.659 55.5222 275.863 55.5222 253.976C55.5222 232.089 70.5271 214.293 88.9584 214.293C107.39 214.293 122.395 232.089 122.395 253.976C122.395 275.863 107.39 293.659 88.9584 293.659ZM88.9584 216.478C71.7206 216.478 57.6974 233.302 57.6974 253.976C57.6974 274.65 71.7206 291.474 88.9584 291.474C106.196 291.474 120.219 274.65 120.219 253.976C120.219 233.302 106.196 216.478 88.9584 216.478Z" fill="white" stroke="#1F1F1F" stroke-width="0.481234" stroke-miterlimit="10"/>
<path d="M93.1824 253.572C93.1824 255.757 91.4115 257.537 89.2171 257.537C87.0226 257.537 85.2517 255.766 85.2517 253.572C85.2517 251.378 87.0226 249.607 89.2171 249.607C91.4115 249.607 93.1824 251.378 93.1824 253.572Z" fill="#010001"/>
<path d="M132.392 298.663C125.703 298.663 120.265 292.349 120.265 284.592C120.265 276.834 125.703 270.521 132.392 270.521C139.081 270.521 144.519 276.834 144.519 284.592C144.519 292.349 139.081 298.663 132.392 298.663ZM132.392 274.149C127.705 274.149 123.903 278.836 123.903 284.592C123.903 290.347 127.715 295.035 132.392 295.035C137.07 295.035 140.881 290.347 140.881 284.592C140.881 278.836 137.07 274.149 132.392 274.149Z" fill="#1F1F1F" stroke="#1F1F1F" stroke-width="0.481234" stroke-miterlimit="10"/>
<path d="M131.669 286.969C133.131 286.969 134.316 285.784 134.316 284.322C134.316 282.861 133.131 281.676 131.669 281.676C130.207 281.676 129.022 282.861 129.022 284.322C129.022 285.784 130.207 286.969 131.669 286.969Z" fill="#1F1F1F"/>
<path d="M133.094 273.177C133.094 273.177 133.094 273.177 133.094 273.167C133.296 272.657 133.681 272.253 134.182 272.031C135.327 271.175 137.31 270.626 139.879 273.071C139.437 270.78 137.425 268.952 135.009 268.952C132.276 268.952 130.043 271.175 130.043 273.918V283.369C130.043 284.168 130.697 284.823 131.496 284.823C132.295 284.823 132.95 284.168 132.95 283.369V273.918C132.95 273.658 133.007 273.417 133.094 273.186V273.177Z" fill="#1F1F1F"/>
<path d="M139.888 273.062C137.318 270.617 133.921 270.809 133.103 273.158V273.167C133.016 273.398 132.958 273.649 132.958 273.899V285.121" stroke="#1F1F1F" stroke-width="0.481234" stroke-linecap="round" stroke-linejoin="round"/>
<path d="M89.2151 210.665V254.139" stroke="#1F1F1F" stroke-width="2.8874" stroke-miterlimit="10" stroke-linecap="round"/>
<path d="M93.3174 254.139C93.3174 256.324 91.5465 258.105 89.3521 258.105C87.1577 258.105 85.3867 256.334 85.3867 254.139C85.3867 251.945 87.1577 250.174 89.3521 250.174C91.5465 250.174 93.3174 251.945 93.3174 254.139Z" fill="#1F1F1F"/>
<path d="M37.9268 253.514H88.9568" stroke="#1F1F1F" stroke-width="1.92494" stroke-miterlimit="10" stroke-linecap="round"/>
<path d="M123.31 269.115H162.954" stroke="#1F1F1F" stroke-width="4.81234" stroke-miterlimit="10" stroke-linecap="round"/>
<path d="M45.5522 151.463L22.6743 151.155" stroke="#1F1F1F" stroke-width="3.84987" stroke-miterlimit="10" stroke-linecap="round"/>
<path d="M36.5433 151.357L32.6741 151.299L21.9426 151.155" stroke="#1F1F1F" stroke-width="5.77481" stroke-miterlimit="10" stroke-linecap="round"/>
<path d="M37.9281 202.541L37.6682 172.05L48.4286 164.63L71.114 163.533V204.235L37.9281 202.541Z" fill="#1F1F1F"/>
<path d="M115.668 280.01C115.668 280.01 114.186 279.548 115.37 277.21C116.554 274.871 120.904 266.94 122.396 266.594C123.888 266.237 162.964 266.353 164.013 266.594C165.062 266.834 165.89 268.644 165.187 270.338C164.475 272.031 160.962 280.751 158.623 282.012C156.275 283.273 115.668 280.01 115.668 280.01Z" fill="#1F1F1F"/>
<path d="M118.13 224.842H54.3857V231.329H118.13V224.842Z" fill="#1F1F1F"/>
<path d="M122.043 253.234L145.575 252.81L145.825 259.538L162.149 274.793L120.637 274.514L122.043 253.234Z" fill="white"/>
<path d="M153.822 267.016L152.349 269.991" stroke="#1F1F1F" stroke-width="0.481234" stroke-linecap="round" stroke-linejoin="round"/>
<path d="M149.945 263.397L147.914 267.488" stroke="#1F1F1F" stroke-width="0.481234" stroke-linecap="round" stroke-linejoin="round"/>
<path d="M122.043 253.234L145.575 252.81L145.825 259.538L162.149 274.793L120.637 274.514L122.043 253.234Z" stroke="#1F1F1F" stroke-width="0.481234" stroke-linecap="round" stroke-linejoin="round"/>
<path d="M157.739 272.627L123.206 272.002" stroke="#1F1F1F" stroke-width="0.481234" stroke-linecap="round" stroke-linejoin="round"/>
<path d="M138.606 262.666C138.606 265.332 136.382 267.488 133.63 267.488C130.877 267.488 128.654 265.332 128.654 262.666C128.654 260 130.877 257.844 133.63 257.844C136.382 257.844 138.606 260 138.606 262.666Z" stroke="#1F1F1F" stroke-width="0.481234" stroke-linecap="round" stroke-linejoin="round"/>
<path d="M149.183 253.994C149.183 253.994 147.037 217.777 144.553 201.347C143.398 193.696 136.113 188.585 123.389 186.044C108.028 182.983 88.8265 185.053 88.8265 185.053L80.7514 183.638C75.9391 185.139 54.6396 193.802 55.5347 201.347C56.4202 208.893 66.5261 221.723 68.3356 222.291C70.145 222.849 89.2115 223.715 99.7602 223.484C110.309 223.253 116.536 218.354 116.536 218.354V215.207C116.671 228.73 117.643 254.678 117.643 254.678L149.193 253.994H149.183Z" fill="#1F1F1F"/>
<path d="M116.727 225.784C116.573 219.384 116.477 213.503 116.535 210.144" stroke="#1F1F1F" stroke-width="0.481234" stroke-linecap="round" stroke-linejoin="round"/>
<path d="M88.8264 185.043C88.8264 185.043 141.387 179.278 144.553 201.337C146.911 217.786 149.183 253.984 149.183 253.984L117.633 254.668" stroke="#1F1F1F" stroke-width="0.481234" stroke-linecap="round" stroke-linejoin="round"/>
<path d="M116.526 218.354C116.526 218.354 111.675 222.165 103.292 223.224" stroke="#1F1F1F" stroke-width="0.481234" stroke-linecap="round" stroke-linejoin="round"/>
<path d="M118.385 249.365L146.46 248.758" stroke="#1F1F1F" stroke-width="0.481234" stroke-linecap="round" stroke-linejoin="round"/>
<path d="M114.737 256.661L139.184 256.237L139.444 262.965L156.412 278.22L113.274 277.941L114.737 256.661Z" fill="white"/>
<path d="M147.759 270.443L146.239 273.417" stroke="#1F1F1F" stroke-width="0.481234" stroke-linecap="round" stroke-linejoin="round"/>
<path d="M143.726 266.824L141.618 270.915" stroke="#1F1F1F" stroke-width="0.481234" stroke-linecap="round" stroke-linejoin="round"/>
<path d="M114.737 256.661L139.184 256.237L139.444 262.965L156.412 278.22L113.274 277.941L114.737 256.661Z" stroke="#1F1F1F" stroke-width="0.481234" stroke-linecap="round" stroke-linejoin="round"/>
<path d="M151.832 276.054L115.941 275.429" stroke="#1F1F1F" stroke-width="0.481234" stroke-linecap="round" stroke-linejoin="round"/>
<path d="M126.778 270.915C129.633 270.915 131.947 268.756 131.947 266.093C131.947 263.43 129.633 261.271 126.778 261.271C123.924 261.271 121.61 263.43 121.61 266.093C121.61 268.756 123.924 270.915 126.778 270.915Z" stroke="#1F1F1F" stroke-width="0.481234" stroke-linecap="round" stroke-linejoin="round"/>
<path d="M143.446 257.421C143.446 257.421 141.299 221.203 138.816 204.774C137.661 197.122 130.375 192.011 117.651 189.471C102.29 186.41 83.0892 188.479 83.0892 188.479L75.0141 187.064C70.2018 188.566 48.9023 197.228 49.7974 204.774C50.6829 212.32 60.7888 225.149 62.5983 225.717C64.4077 226.275 83.4742 227.142 94.0228 226.911C104.571 226.68 110.799 221.781 110.799 221.781V218.633C110.933 232.166 111.905 258.104 111.905 258.104L143.455 257.421H143.446Z" fill="#1F1F1F"/>
<path d="M110.991 229.211C110.837 222.811 110.741 216.93 110.799 213.571" stroke="#1F1F1F" stroke-width="0.481234" stroke-linecap="round" stroke-linejoin="round"/>
<path d="M83.0908 188.47C83.0908 188.47 135.651 182.705 138.818 204.774C141.176 221.223 143.447 257.421 143.447 257.421L111.897 258.105" stroke="#1F1F1F" stroke-width="0.481234" stroke-linecap="round" stroke-linejoin="round"/>
<path d="M110.8 221.781C110.8 221.781 105.949 225.592 97.5662 226.651" stroke="#1F1F1F" stroke-width="0.481234" stroke-linecap="round" stroke-linejoin="round"/>
<path d="M112.649 252.792L140.734 252.185" stroke="#1F1F1F" stroke-width="0.481234" stroke-linecap="round" stroke-linejoin="round"/>
<path d="M77.5214 125.092C77.5214 125.092 90.7168 127.546 95.5869 159.827C99.6293 186.584 98.0316 184.871 98.0316 184.871C98.0316 184.871 69.2538 182.772 52.2855 204.524C52.2855 204.524 38.2719 190.848 38.1083 173.841C37.9447 156.824 48.4837 139.779 52.2855 136.102C56.0872 132.426 68.3106 124.813 77.5214 125.092Z" fill="white"/>
<path d="M77.5214 125.092C77.5214 125.092 90.7168 127.546 95.5869 159.827C99.6293 186.584 98.0316 184.871 98.0316 184.871C98.0316 184.871 69.2538 182.773 52.2855 204.524C52.2855 204.524 38.2719 190.848 38.1083 173.841C37.9447 156.824 48.4837 139.779 52.2855 136.102C56.0872 132.426 68.3106 124.813 77.5214 125.092Z" stroke="#1F1F1F" stroke-width="0.481234" stroke-linecap="round" stroke-linejoin="round"/>
<path d="M69.9006 163.013C67.2056 163.013 65.0112 160.818 65.0112 158.123C65.0112 155.428 67.2056 153.234 69.9006 153.234C72.5955 153.234 74.7899 155.428 74.7899 158.123C74.7899 160.818 72.5955 163.013 69.9006 163.013ZM69.9006 154.225C67.7446 154.225 66.0026 155.977 66.0026 158.123C66.0026 160.27 67.7543 162.021 69.9006 162.021C72.0469 162.021 73.7985 160.27 73.7985 158.123C73.7985 155.977 72.0469 154.225 69.9006 154.225Z" fill="#1F1F1F"/>
<path d="M54.384 173.6C51.6891 173.6 49.4946 171.405 49.4946 168.71C49.4946 166.015 51.6891 163.821 54.384 163.821C57.0789 163.821 59.2733 166.015 59.2733 168.71C59.2733 171.405 57.0789 173.6 54.384 173.6ZM54.384 164.812C52.2281 164.812 50.486 166.564 50.486 168.71C50.486 170.857 52.2377 172.608 54.384 172.608C56.5303 172.608 58.282 170.857 58.282 168.71C58.282 166.564 56.5303 164.812 54.384 164.812Z" fill="#1F1F1F"/>
<path d="M71.5751 183.696C68.8802 183.696 66.6858 181.502 66.6858 178.807C66.6858 176.112 68.8802 173.917 71.5751 173.917C74.27 173.917 76.4645 176.112 76.4645 178.807C76.4645 181.502 74.27 183.696 71.5751 183.696ZM71.5751 174.909C69.4192 174.909 67.6771 176.66 67.6771 178.807C67.6771 180.953 69.4288 182.705 71.5751 182.705C73.7214 182.705 75.4731 180.953 75.4731 178.807C75.4731 176.66 73.7214 174.909 71.5751 174.909Z" fill="#1F1F1F"/>
<path d="M51.7172 193.985C49.0223 193.985 46.8279 191.791 46.8279 189.096C46.8279 186.401 49.0223 184.206 51.7172 184.206C54.4121 184.206 56.6066 186.401 56.6066 189.096C56.6066 191.791 54.4121 193.985 51.7172 193.985ZM51.7172 185.198C49.5613 185.198 47.8192 186.949 47.8192 189.096C47.8192 191.242 49.5709 192.994 51.7172 192.994C53.8635 192.994 55.6152 191.242 55.6152 189.096C55.6152 186.949 53.8635 185.198 51.7172 185.198Z" fill="#1F1F1F"/>
<path d="M86.1347 172.618C83.4398 172.618 81.2454 170.424 81.2454 167.729C81.2454 165.034 83.4398 162.84 86.1347 162.84C88.8296 162.84 91.024 165.034 91.024 167.729C91.024 170.424 88.8296 172.618 86.1347 172.618ZM86.1347 163.831C83.9788 163.831 82.2367 165.583 82.2367 167.729C82.2367 169.875 83.9884 171.627 86.1347 171.627C88.281 171.627 90.0327 169.875 90.0327 167.729C90.0327 165.583 88.281 163.831 86.1347 163.831Z" fill="#1F1F1F"/>
<path d="M85.1427 152.166C82.4478 152.166 80.2534 149.971 80.2534 147.276C80.2534 144.581 82.4478 142.387 85.1427 142.387C87.8377 142.387 90.0321 144.581 90.0321 147.276C90.0321 149.971 87.8377 152.166 85.1427 152.166ZM85.1427 143.378C82.9868 143.378 81.2448 145.13 81.2448 147.276C81.2448 149.423 82.9964 151.174 85.1427 151.174C87.289 151.174 89.0407 149.423 89.0407 147.276C89.0407 145.13 87.289 143.378 85.1427 143.378Z" fill="#1F1F1F"/>
<path d="M95.5573 159.663C95.49 159.249 95.4226 158.855 95.3552 158.441C94.2676 157.748 93.5362 156.535 93.5362 155.149C93.5362 154.283 93.8249 153.494 94.3061 152.849C94.2195 152.445 94.1329 152.04 94.0463 151.646C93.1319 152.531 92.5544 153.773 92.5544 155.149C92.5544 157.18 93.796 158.922 95.5573 159.654V159.663Z" fill="#1F1F1F"/>
<path d="M81.2445 136.593C83.795 136.593 85.8739 134.62 86.0857 132.127C85.7199 131.607 85.3542 131.136 84.9885 130.693C85.0751 131.02 85.1425 131.357 85.1425 131.713C85.1425 133.859 83.3908 135.611 81.2445 135.611C79.0982 135.611 77.3465 133.859 77.3465 131.713C77.3465 129.567 79.0982 127.815 81.2445 127.815C81.6776 127.815 82.0818 127.902 82.4668 128.027C81.9471 127.565 81.4562 127.18 81.0038 126.853C78.4244 126.987 76.3647 129.105 76.3647 131.713C76.3647 134.321 78.5592 136.602 81.2541 136.602L81.2445 136.593Z" fill="#1F1F1F"/>
<path d="M98.0515 178.518C96.6271 177.941 95.6165 176.535 95.6165 174.909C95.6165 173.59 96.271 172.435 97.2719 171.733C97.2238 171.386 97.1853 171.04 97.1372 170.674C95.655 171.511 94.6348 173.09 94.6348 174.918C94.6348 177.132 96.1266 178.99 98.1478 179.586C98.1189 179.259 98.09 178.903 98.0515 178.528V178.518Z" fill="#1F1F1F"/>
<path d="M89.7448 181.569C87.2617 181.569 85.2212 183.436 84.9229 185.842C85.2597 185.785 85.5966 185.727 85.9238 185.679C86.2895 183.898 87.8584 182.56 89.7448 182.56C91.3329 182.56 92.6996 183.523 93.3059 184.89C93.662 184.87 94.0085 184.861 94.3358 184.851C93.662 182.945 91.8719 181.579 89.7448 181.579V181.569Z" fill="#1F1F1F"/>
<path d="M66.6945 188.114C63.9996 188.114 61.8052 190.308 61.8052 193.003C61.8052 193.735 61.9784 194.418 62.2672 195.043C62.5367 194.851 62.8062 194.659 63.0853 194.476C62.9024 194.023 62.7965 193.532 62.7965 193.013C62.7965 190.857 64.5482 189.115 66.6945 189.115C67.9554 189.115 69.0718 189.731 69.784 190.664C70.092 190.52 70.3904 190.376 70.6984 190.231C69.8129 188.961 68.35 188.133 66.6945 188.133V188.114Z" fill="#1F1F1F"/>
<path d="M37.67 297.181C17.4486 297.181 1 277.778 1 253.928C1 230.078 17.4486 210.674 37.67 210.674C57.8915 210.674 74.3401 230.078 74.3401 253.928C74.3401 277.778 57.8915 297.181 37.67 297.181ZM37.67 215.756C20.2494 215.756 6.08183 232.878 6.08183 253.928C6.08183 274.977 20.2494 292.099 37.67 292.099C55.0907 292.099 69.2582 274.977 69.2582 253.928C69.2582 232.878 55.0907 215.756 37.67 215.756Z" fill="#1F1F1F" stroke="#1F1F1F" stroke-width="0.481234" stroke-miterlimit="10"/>
<path d="M37.6703 293.601C19.2294 293.601 4.23413 275.805 4.23413 253.918C4.23413 232.031 19.239 214.235 37.6703 214.235C56.1016 214.235 71.1064 232.031 71.1064 253.918C71.1064 275.805 56.1016 293.601 37.6703 293.601ZM37.6703 216.42C20.4325 216.42 6.40932 233.244 6.40932 253.918C6.40932 274.592 20.4325 291.416 37.6703 291.416C54.9081 291.416 68.9313 274.592 68.9313 253.918C68.9313 233.244 54.9081 216.42 37.6703 216.42Z" fill="white" stroke="#1F1F1F" stroke-width="0.481234" stroke-miterlimit="10"/>
<path d="M94.9074 299C88.2182 299 82.7803 292.686 82.7803 284.928C82.7803 277.171 88.2182 270.857 94.9074 270.857C101.597 270.857 107.034 277.171 107.034 284.928C107.034 292.686 101.597 299 94.9074 299ZM94.9074 274.486C90.2202 274.486 86.4184 279.173 86.4184 284.928C86.4184 290.684 90.2298 295.371 94.9074 295.371C99.585 295.371 103.396 290.684 103.396 284.928C103.396 279.173 99.585 274.486 94.9074 274.486Z" fill="#1F1F1F" stroke="#1F1F1F" stroke-width="0.481234" stroke-miterlimit="10"/>
<path d="M37.9233 254.697V163.532" stroke="#1F1F1F" stroke-width="3.84987" stroke-miterlimit="10" stroke-linecap="round"/>
<path d="M41.8882 253.513C41.8882 255.698 40.1173 257.478 37.9229 257.478C35.7285 257.478 33.9575 255.707 33.9575 253.513C33.9575 251.318 35.7285 249.548 37.9229 249.548C40.1173 249.548 41.8882 251.318 41.8882 253.513Z" fill="#1F1F1F"/>
<path d="M38.4512 198.315H83.0712C90.848 198.315 97.1521 204.62 97.1521 212.406V269.769" stroke="#1F1F1F" stroke-width="3.84987" stroke-miterlimit="10" stroke-linecap="round"/>
<path d="M96.8329 284.659C96.8329 286.122 95.649 287.306 94.1861 287.306C92.7231 287.306 91.5393 286.122 91.5393 284.659C91.5393 283.196 92.7231 282.012 94.1861 282.012C95.649 282.012 96.8329 283.196 96.8329 284.659Z" fill="#1F1F1F"/>
<path d="M95.6191 273.504C95.6191 273.504 95.6191 273.504 95.6191 273.494C95.8212 272.984 96.187 272.31 96.6778 272.089C97.1109 271.771 97.6595 271.617 98.2563 271.559C98.9781 271.492 99.9118 271.704 100.932 272.435C101.327 272.724 101.654 273.167 102.106 273.6C101.663 271.309 99.9502 269.269 97.5344 269.269C94.801 269.269 92.5681 271.492 92.5681 274.235V283.686C92.5681 284.485 93.2226 285.14 94.0215 285.14C94.8203 285.14 95.4747 284.485 95.4747 283.686V274.235C95.4747 273.975 95.5325 273.735 95.6191 273.504Z" fill="#1F1F1F"/>
<path d="M102.108 273.61C99.8171 270.655 96.4388 271.146 95.6207 273.494V273.504C95.5341 273.735 95.4763 273.985 95.4763 274.235V285.458" stroke="#1F1F1F" stroke-width="0.481234" stroke-linecap="round" stroke-linejoin="round"/>
<path d="M117.503 280.01H157.138" stroke="#1F1F1F" stroke-width="3.84987" stroke-miterlimit="10" stroke-linecap="round"/>
<path d="M97.1553 249.548C97.1553 249.548 103.402 252.348 108.397 270.731C112.882 287.238 128.147 280.597 128.147 280.597" stroke="#1F1F1F" stroke-width="3.84987" stroke-miterlimit="10" stroke-linecap="round"/>
<path d="M27.5751 163.532L4.69727 163.215" stroke="#1F1F1F" stroke-width="3.84987" stroke-miterlimit="10" stroke-linecap="round"/>
<path d="M18.5659 163.417L14.6967 163.359L3.97485 163.215" stroke="#1F1F1F" stroke-width="5.77481" stroke-miterlimit="10" stroke-linecap="round"/>
<path d="M66.5397 220.472C66.7322 219.173 64.4607 217.44 60.1681 213.446C55.8755 209.442 52.7571 203.552 52.7571 203.552L37.9062 214.331C37.9062 214.331 47.4732 229.173 51.2364 232.743C54.9997 236.314 56.2124 234.909 56.53 234.274C56.53 234.274 56.9727 233.215 56.376 232.339C57.3866 233.051 58.5897 233.571 59.3308 232.609C59.7158 232.108 59.6965 231.415 59.4174 230.636L59.658 230.482C60.0237 230.722 61.5926 231.675 62.3529 230.52C62.8534 229.76 62.4877 228.634 61.9391 227.681L62.0353 227.565C63.6138 228.826 65.3558 229.028 65.7216 227.074C65.9333 225.948 63.8255 223.196 61.9006 220.963C64.4896 222.637 66.3376 221.781 66.53 220.472H66.5397Z" fill="white"/>
<path d="M58.9377 217.69C58.9377 217.69 66.1082 225.043 65.7328 227.074C65.3574 229.105 63.4806 228.807 61.8637 227.411" stroke="#1F1F1F" stroke-width="0.481234" stroke-linecap="round" stroke-linejoin="round"/>
<path d="M55.9146 220.356C55.9146 220.356 60.0339 225.361 60.775 226.092C61.5161 226.814 63.2197 229.201 62.3535 230.51C61.4872 231.819 59.5719 230.414 59.5719 230.414C59.5719 230.414 59.2543 230.183 59.0811 229.846" stroke="#1F1F1F" stroke-width="0.481234" stroke-linecap="round" stroke-linejoin="round"/>
<path d="M53.6724 223.349C53.6724 223.349 61.1796 230.183 59.3221 232.599C58.6002 233.532 57.4452 233.07 56.4443 232.387" stroke="#1F1F1F" stroke-width="0.481234" stroke-linecap="round" stroke-linejoin="round"/>
<path d="M61.9112 220.963C64.5002 222.647 66.3482 221.781 66.5407 220.472C66.7332 219.173 64.4617 217.44 60.1691 213.446C55.8765 209.442 52.7581 203.552 52.7581 203.552L37.9072 214.331C37.9072 214.331 47.4741 229.173 51.2374 232.743C55.0006 236.314 56.2133 234.909 56.531 234.274C56.531 234.274 56.9737 233.215 56.377 232.339C55.7899 231.463 50.4193 225.737 50.4193 225.737" stroke="#1F1F1F" stroke-width="0.481234" stroke-linecap="round" stroke-linejoin="round"/>
<path d="M59.4879 158.922C49.8728 169.461 46.1288 177.537 47.0913 182.994C48.0538 188.451 55.561 204.235 55.561 204.235L36.533 216.43C30.2962 210.434 8.84283 191.021 23.4435 157.556C38.0441 124.091 65.8787 126.179 65.8787 126.179C65.8787 126.179 71.0279 136.025 70.8258 140.944C70.6237 145.862 59.4783 158.922 59.4783 158.922H59.4879Z" fill="white"/>
<path d="M34.8581 196.362C32.1632 196.362 29.9688 194.168 29.9688 191.473C29.9688 188.778 32.1632 186.584 34.8581 186.584C37.553 186.584 39.7474 188.778 39.7474 191.473C39.7474 194.168 37.553 196.362 34.8581 196.362ZM34.8581 187.575C32.7021 187.575 30.9601 189.327 30.9601 191.473C30.9601 193.619 32.7118 195.371 34.8581 195.371C37.0044 195.371 38.7561 193.619 38.7561 191.473C38.7561 189.327 37.0044 187.575 34.8581 187.575Z" fill="#1F1F1F"/>
<path d="M33.4907 170.866C30.7958 170.866 28.6013 168.672 28.6013 165.977C28.6013 163.282 30.7958 161.088 33.4907 161.088C36.1856 161.088 38.38 163.282 38.38 165.977C38.38 168.672 36.1856 170.866 33.4907 170.866ZM33.4907 162.079C31.3347 162.079 29.5927 163.831 29.5927 165.977C29.5927 168.123 31.3444 169.875 33.4907 169.875C35.637 169.875 37.3887 168.123 37.3887 165.977C37.3887 163.831 35.637 162.079 33.4907 162.079Z" fill="#1F1F1F"/>
<path d="M50.0932 161.146C47.3983 161.146 45.2039 158.952 45.2039 156.257C45.2039 153.562 47.3983 151.367 50.0932 151.367C52.7881 151.367 54.9825 153.562 54.9825 156.257C54.9825 158.952 52.7881 161.146 50.0932 161.146ZM50.0932 152.359C47.9373 152.359 46.1952 154.11 46.1952 156.257C46.1952 158.403 47.9469 160.155 50.0932 160.155C52.2395 160.155 53.9912 158.403 53.9912 156.257C53.9912 154.11 52.2395 152.359 50.0932 152.359Z" fill="#1F1F1F"/>
<path d="M46.3876 145.332C43.6927 145.332 41.4983 143.138 41.4983 140.443C41.4983 137.748 43.6927 135.554 46.3876 135.554C49.0826 135.554 51.277 137.748 51.277 140.443C51.277 143.138 49.0826 145.332 46.3876 145.332ZM46.3876 136.545C44.2317 136.545 42.4896 138.297 42.4896 140.443C42.4896 142.589 44.2413 144.341 46.3876 144.341C48.5339 144.341 50.2856 142.589 50.2856 140.443C50.2856 138.297 48.5339 136.545 46.3876 136.545Z" fill="#1F1F1F"/>
<path d="M64.7351 146.661C62.0401 146.661 59.8457 144.466 59.8457 141.771C59.8457 139.076 62.0401 136.882 64.7351 136.882C67.43 136.882 69.6244 139.076 69.6244 141.771C69.6244 144.466 67.43 146.661 64.7351 146.661ZM64.7351 137.873C62.5791 137.873 60.837 139.625 60.837 141.771C60.837 143.918 62.5888 145.669 64.7351 145.669C66.8814 145.669 68.633 143.918 68.633 141.771C68.633 139.625 66.8814 137.873 64.7351 137.873Z" fill="#1F1F1F"/>
<path d="M62.2211 126.285C61.9035 126.314 61.5762 126.343 61.2298 126.391C61.1046 128.432 59.4203 130.058 57.351 130.058C55.8592 130.058 54.5695 129.201 53.915 127.96C53.5974 128.056 53.2894 128.162 52.9622 128.268C53.7514 129.904 55.4165 131.04 57.351 131.04C59.9978 131.04 62.1537 128.913 62.2211 126.285Z" fill="#1F1F1F"/>
<path d="M31.4694 150.876C31.4694 153.023 29.7177 154.774 27.5714 154.774C26.6571 154.774 25.8294 154.447 25.1653 153.927C25.0113 154.226 24.8669 154.524 24.7129 154.822C25.5214 155.41 26.4935 155.756 27.5618 155.756C30.2567 155.756 32.4511 153.562 32.4511 150.867C32.4511 148.894 31.2673 147.2 29.583 146.43C29.4001 146.699 29.2173 146.978 29.0344 147.257C30.4588 147.835 31.4694 149.24 31.4694 150.867V150.876Z" fill="#1F1F1F"/>
<path d="M45.2033 172.561C42.5084 172.561 40.314 174.755 40.314 177.45C40.314 180.145 42.5084 182.34 45.2033 182.34C45.8289 182.34 46.4256 182.215 46.9742 181.993C46.9454 181.647 46.9454 181.281 46.955 180.915C46.4256 181.185 45.8385 181.348 45.2033 181.348C43.0474 181.348 41.3053 179.597 41.3053 177.45C41.3053 175.304 43.057 173.552 45.2033 173.552C46.4834 173.552 47.5998 174.178 48.3121 175.131C48.4468 174.794 48.5816 174.457 48.7356 174.111C47.8405 173.167 46.5892 172.571 45.1937 172.571L45.2033 172.561Z" fill="#1F1F1F"/>
<path d="M53.0865 198.826C52.3742 199.693 51.2963 200.261 50.0932 200.261C47.9373 200.261 46.1952 198.509 46.1952 196.363C46.1952 194.216 47.9469 192.465 50.0932 192.465C50.1798 192.465 50.2664 192.484 50.3531 192.493C50.2183 192.157 50.0836 191.829 49.9488 191.492C47.3213 191.569 45.2039 193.716 45.2039 196.363C45.2039 199.009 47.3983 201.252 50.0932 201.252C51.431 201.252 52.6534 200.703 53.5388 199.827C53.3945 199.51 53.2501 199.173 53.0961 198.836L53.0865 198.826Z" fill="#1F1F1F"/>
<path d="M19.3143 178.807C19.0255 178.807 18.756 178.846 18.4865 178.894C18.4865 179.231 18.4673 179.568 18.4673 179.895C18.7464 179.837 19.0255 179.799 19.3143 179.799C21.4606 179.799 23.2122 181.55 23.2122 183.697C23.2122 185.843 21.4606 187.595 19.3143 187.595C19.2758 187.595 19.2276 187.585 19.1891 187.585C19.2469 187.922 19.3142 188.249 19.3912 188.576C22.0477 188.538 24.2036 186.363 24.2036 183.697C24.2036 181.03 22.0092 178.807 19.3143 178.807Z" fill="#1F1F1F"/>
<path d="M28.0999 203.696C27.33 203.696 26.6081 203.889 25.9536 204.216C26.1365 204.495 26.3194 204.765 26.5022 205.034C26.9931 204.813 27.5224 204.688 28.0999 204.688C30.2462 204.688 31.9979 206.439 31.9979 208.586C31.9979 209.49 31.6803 210.308 31.1606 210.973C31.3819 211.223 31.6033 211.473 31.8247 211.714C32.5369 210.867 32.9796 209.789 32.9796 208.595C32.9796 205.9 30.7852 203.706 28.0903 203.706L28.0999 203.696Z" fill="#1F1F1F"/>
<path d="M36.5431 216.421L55.5711 204.226C55.5711 204.226 54.2911 201.541 52.7222 197.999L31.4709 210.954C33.4248 213.35 35.2438 215.169 36.5335 216.411L36.5431 216.421Z" fill="#1F1F1F"/>
<path d="M38.3141 215.285L39.1515 214.755L34.3488 209.211L33.4922 209.731L38.3141 215.285Z" fill="white"/>
<path d="M40.5869 205.41L39.7495 205.92L43.8304 211.753L44.6581 211.223L40.5869 205.41Z" fill="white"/>
<path d="M37.6506 207.2L36.8132 207.71L40.9903 213.572L41.8277 213.042L37.6506 207.2Z" fill="white"/>
<path d="M50.4887 199.366L49.6514 199.886L52.9526 205.911L53.7804 205.381L50.4887 199.366Z" fill="white"/>
<path d="M43.8657 203.408L43.0283 203.918L46.5606 210.01L47.3883 209.471L43.8657 203.408Z" fill="white"/>
<path d="M46.9007 201.56L46.0537 202.07L49.7207 207.98L50.5484 207.45L46.9007 201.56Z" fill="white"/>
<path d="M65.8882 126.179C65.8882 126.179 38.0633 124.091 23.453 157.556C8.85235 191.021 30.3058 210.434 36.5426 216.43L55.5706 204.236C55.5706 204.236 48.0633 188.451 47.1008 182.994C46.1384 177.537 49.8824 169.452 59.4974 158.923" stroke="#1F1F1F" stroke-width="0.481234" stroke-linecap="round" stroke-linejoin="round"/>
<path d="M80.7556 88.2767H74.3648C70.1107 88.2767 66.6362 92.2324 66.6362 97.0736V106.987C66.6362 107.266 66.6555 107.545 66.6747 107.815C66.6073 108.104 66.5688 108.412 66.5688 108.72V121.126C66.5688 123.32 68.359 125.11 70.5535 125.11H73.0944C75.2888 125.11 77.079 123.32 77.079 121.126V115.784H80.7749C85.029 115.784 88.5035 111.828 88.5035 106.987V97.0736C88.5035 92.2324 85.029 88.2767 80.7749 88.2767H80.7556Z" fill="white" stroke="#1F1F1F" stroke-width="0.481234" stroke-miterlimit="10"/>
<path d="M67.3899 102.03C67.3899 102.03 68.8336 93.6761 69.2282 94.908C69.7864 96.6694 69.7191 106.41 71.6055 107.266C74.1079 108.402 75.0223 104.119 80.0656 103.946C85.0993 103.772 87.9964 106.246 88.4872 108.267C88.9781 110.288 87.467 113.214 85.4939 114.754C83.1744 116.564 77.4766 116.082 77.4766 116.082C77.4766 116.082 72.0771 116.082 69.9886 113.147C67.823 110.086 67.3899 102.021 67.3899 102.021V102.03Z" fill="#1F1F1F"/>
<path d="M75.7007 100.317C75.7007 101.116 76.3455 101.761 77.1444 101.761C77.9432 101.761 78.5881 101.116 78.5881 100.317C78.5881 99.5185 77.9432 98.8737 77.1444 98.8737C76.3455 98.8737 75.7007 99.5185 75.7007 100.317Z" fill="#1F1F1F"/>
<path d="M85.1335 100.106C85.1335 100.789 85.6822 101.338 86.3655 101.338C87.0489 101.338 87.5975 100.789 87.5975 100.106C87.5975 99.4223 87.0489 98.8737 86.3655 98.8737C85.6822 98.8737 85.1335 99.4223 85.1335 100.106Z" fill="#1F1F1F"/>
<path d="M83.7542 106.005C83.7542 106.005 83.0324 108.113 81.502 108.258C79.9717 108.402 78.7686 106.708 78.6917 105.38L83.7638 106.005H83.7542Z" fill="white"/>
<path d="M81.8391 103.522L84.1875 102.165L82.1375 98.8832" stroke="#1F1F1F" stroke-width="0.481234" stroke-linecap="round" stroke-linejoin="round"/>
<path d="M77.518 97.2277C76.5555 97.3143 75.6412 97.5645 74.7749 97.9784C74.544 98.0843 74.467 98.4308 74.6017 98.6329C74.7557 98.8639 75.0156 98.9216 75.2562 98.8061C75.3524 98.758 75.4487 98.7195 75.5449 98.6714C75.4583 98.7099 75.6027 98.6521 75.6219 98.6425C75.67 98.6232 75.7182 98.604 75.7759 98.5847C75.9684 98.5174 76.1609 98.45 76.363 98.3923C76.5651 98.3345 76.7576 98.296 76.9694 98.2575C77.0752 98.2383 77.1811 98.219 77.287 98.2094C77.1811 98.2286 77.3351 98.2094 77.3447 98.2094C77.4025 98.2094 77.4699 98.1998 77.5276 98.1901C77.7779 98.1709 78.0185 97.988 78.0089 97.7089C77.9992 97.4683 77.7971 97.1988 77.5276 97.2277H77.518Z" fill="#1F1F1F"/>
<path d="M87.1632 97.3047C86.6242 97.1314 86.0563 97.0352 85.4981 97.0256C85.2479 97.0256 85.0073 97.2469 85.0169 97.5068C85.0265 97.7667 85.2286 97.988 85.4981 97.988C85.7002 97.988 85.9024 98.0073 86.1045 98.0362L85.9793 98.0169C86.297 98.065 86.605 98.1324 86.913 98.2287C87.1536 98.3057 87.452 98.142 87.5097 97.8918C87.5674 97.6223 87.4327 97.3817 87.1728 97.2951L87.1632 97.3047Z" fill="#1F1F1F"/>
<path d="M68.312 103.792L69.4958 96.0246C69.4958 96.0246 76.3871 96.092 83.7596 95.7166C95.2804 95.1391 98.6009 84.1093 92.8646 79.1429C88.1196 75.0236 78.2543 79.6723 77.5324 81.039C77.5324 81.039 63.3745 79.7204 58.5814 88.2864C53.798 96.8523 57.6767 102.935 66.4256 111.79L67.2244 106.843L68.312 103.801V103.792Z" fill="#1F1F1F"/>
<path d="M81.0548 96.1305C78.2829 96.1305 76.2617 95.784 76.2136 95.7744C76.0788 95.7551 75.9922 95.6204 76.0115 95.4856C76.0307 95.3509 76.1654 95.2643 76.3002 95.2835C76.4061 95.3028 86.7141 97.0641 92.614 92.4924C95.0491 90.6059 96.4158 87.8725 96.6853 84.3788C96.6853 84.244 96.8104 84.1381 96.9451 84.1478C97.0799 84.1574 97.1858 84.2729 97.1761 84.4076C96.9066 88.0458 95.4726 90.8947 92.9124 92.8677C89.486 95.5241 84.6352 96.1112 81.0451 96.1112L81.0548 96.1305Z" fill="#1F1F1F"/>
<path d="M78.7424 116.602H63.93C61.3094 116.602 59.1851 118.727 59.1851 121.347V124.764C59.1851 127.384 61.3094 129.509 63.93 129.509H78.7424C81.363 129.509 83.4874 127.384 83.4874 124.764V121.347C83.4874 118.727 81.363 116.602 78.7424 116.602Z" fill="#1F1F1F"/>
<path d="M74.3909 116.602H73.7075V129.518H74.3909V116.602Z" fill="white"/>
<path d="M78.2512 116.602H77.5679V129.518H78.2512V116.602Z" fill="white"/>
<path d="M81.6121 128.441C81.4003 128.614 81.1693 128.768 80.9287 128.903V117.228C81.1693 117.363 81.4003 117.517 81.6121 117.69V128.45V128.441Z" fill="white"/>
<path d="M61.0708 117.68C61.2825 117.507 61.5136 117.353 61.7542 117.218V128.893C61.5136 128.758 61.2825 128.604 61.0708 128.431V117.68Z" fill="white"/>
<path d="M63.9204 116.612C63.9974 116.612 64.0744 116.602 64.1514 116.602H64.6038V129.518H64.1514C64.0744 129.518 63.9974 129.518 63.9204 129.509V116.621V116.612Z" fill="white"/>
<path d="M67.9131 116.602H67.2297V129.518H67.9131V116.602Z" fill="white"/>
<path d="M71.1472 116.602H70.4639V129.518H71.1472V116.602Z" fill="white"/>
<path d="M63.2776 129.451H78.6386" stroke="#1F1F1F" stroke-width="0.240617" stroke-linecap="round" stroke-linejoin="round"/>
<path d="M58.5811 103.946C58.5811 106.737 60.8621 108.999 63.6725 108.999C66.4829 108.999 68.764 106.737 68.764 103.946C68.764 101.154 66.4829 98.8926 63.6725 98.8926C60.8621 98.8926 58.5811 101.154 58.5811 103.946Z" fill="white"/>
<path d="M66.4275 104.619C66.4275 104.619 66.6489 101.193 63.1262 101.568" stroke="#1F1F1F" stroke-width="0.481234" stroke-linecap="round" stroke-linejoin="round"/>
<path d="M67.9355 106.698C68.4552 105.909 68.7536 104.966 68.7536 103.946C68.7536 102.531 68.1665 101.251 67.2136 100.327" stroke="#1F1F1F" stroke-width="0.481234" stroke-linecap="round" stroke-linejoin="round"/>
<path d="M67.2235 100.336C66.3092 99.451 65.0484 98.9023 63.672 98.9023C60.8616 98.9023 58.5806 101.164 58.5806 103.955C58.5806 106.746 60.8616 109.008 63.672 109.008C64.5383 109.008 65.3563 108.797 66.0686 108.412C66.3381 108.267 66.7808 107.988 66.9926 107.786" stroke="#1F1F1F" stroke-width="0.481234" stroke-linecap="round" stroke-linejoin="round"/>
<path d="M258.211 269.009L249.79 170.568L230.357 170.549L241.233 269.308L258.211 269.009Z" fill="#FFFEF9" stroke="black" stroke-width="0.481234" stroke-miterlimit="10"/>
<path d="M240.323 276.69L239.082 262.994L259.217 262.243L260.516 279.24L240.323 276.69Z" fill="#FFFEF9" stroke="black" stroke-width="0.481234" stroke-linecap="round" stroke-linejoin="round"/>
<path d="M256.866 265.13L241.197 265.429" stroke="black" stroke-width="0.481234" stroke-linecap="round" stroke-linejoin="round"/>
<path d="M238.31 273.476L265.374 274.111L265.625 280.935L284.374 299L239.08 298.683L238.31 273.476Z" fill="#FFFEF9"/>
<path d="M276.788 285.689L273.121 293.302" stroke="black" stroke-width="0.481234" stroke-linecap="round" stroke-linejoin="round"/>
<path d="M271.689 282.725L268.032 290.347" stroke="black" stroke-width="0.481234" stroke-linecap="round" stroke-linejoin="round"/>
<path d="M267.814 281.474C267.814 281.474 282.444 275.978 280.172 271.81C276.515 265.102 267.814 281.474 267.814 281.474Z" stroke="black" stroke-width="0.481234" stroke-linecap="round" stroke-linejoin="round"/>
<path d="M271.422 267.604L267.418 281.723" stroke="black" stroke-width="0.481234" stroke-linecap="round" stroke-linejoin="round"/>
<path d="M239.08 298.683C239.08 298.683 239.041 292.792 238.656 284.89L238.608 283.331C242.082 283.379 245.48 285.064 247.568 288.153C249.763 291.397 249.975 295.401 248.502 298.74H246.866C237.087 299 239.08 298.683 239.08 298.683Z" fill="black"/>
<path d="M238.31 273.476L265.374 274.111L265.625 280.935L284.374 299L239.08 298.683L238.31 273.476Z" stroke="black" stroke-width="0.481234" stroke-linecap="round" stroke-linejoin="round"/>
<path d="M279.314 296.43L249.987 295.882" stroke="black" stroke-width="0.481234" stroke-linecap="round" stroke-linejoin="round"/>
<path d="M189.148 269.009L197.57 170.568L217.002 170.549L206.126 269.308L189.148 269.009Z" fill="#FFFEF9" stroke="black" stroke-width="0.481234" stroke-miterlimit="10"/>
<path d="M207.038 276.69L208.28 262.994L188.145 262.243L186.855 279.24L207.038 276.69Z" fill="#FFFEF9" stroke="black" stroke-width="0.481234" stroke-linecap="round" stroke-linejoin="round"/>
<path d="M190.495 265.13L206.164 265.429" stroke="black" stroke-width="0.481234" stroke-linecap="round" stroke-linejoin="round"/>
<path d="M209.052 273.475L181.987 274.11L181.747 280.934L162.988 299L208.282 298.682L209.052 273.475Z" fill="#FFFEF9"/>
<path d="M170.585 285.689L174.242 293.302" stroke="black" stroke-width="0.481234" stroke-linecap="round" stroke-linejoin="round"/>
<path d="M175.674 282.724L179.341 290.347" stroke="black" stroke-width="0.481234" stroke-linecap="round" stroke-linejoin="round"/>
<path d="M179.556 281.473C179.556 281.473 164.927 275.978 167.198 271.81C170.855 265.102 179.556 281.473 179.556 281.473Z" stroke="black" stroke-width="0.481234" stroke-linecap="round" stroke-linejoin="round"/>
<path d="M175.948 267.604L179.962 281.723" stroke="black" stroke-width="0.481234" stroke-linecap="round" stroke-linejoin="round"/>
<path d="M208.282 298.682C208.282 298.682 208.32 292.792 208.705 284.89L208.753 283.331C205.279 283.379 201.881 285.063 199.793 288.153C197.598 291.397 197.386 295.4 198.859 298.74H200.495C210.274 299 208.282 298.682 208.282 298.682Z" fill="black"/>
<path d="M209.052 273.475L181.987 274.11L181.747 280.934L162.988 299L208.282 298.682L209.052 273.475Z" stroke="black" stroke-width="0.481234" stroke-linecap="round" stroke-linejoin="round"/>
<path d="M168.061 296.43L197.387 295.881" stroke="black" stroke-width="0.481234" stroke-linecap="round" stroke-linejoin="round"/>
<path d="M250.562 52.8008C250.899 51.4437 250.889 50.0289 250.61 48.6622C250.004 45.6689 248.204 43.0413 246.241 40.7603C245.201 39.5572 244.114 38.383 243.257 37.0452C242.372 35.6592 241.881 34.1193 241.554 32.5119C240.966 29.5668 240.88 26.5254 239.619 23.7535C239.08 22.56 238.31 21.4821 237.299 20.6543C236.924 20.3463 236.433 20.7121 236.481 21.0682C235.153 21.9152 233.729 22.5504 232.535 21.8285C231.226 21.0297 229.985 20.2693 228.425 20.0961C225.423 19.7592 222.4 21.2222 219.927 22.7718C217.636 24.2155 215.509 26.1115 214.296 28.5754C212.949 31.2896 213.026 34.3503 212.275 37.228C211.861 38.8065 211.111 40.1251 210.11 41.3955C209.166 42.589 208.223 43.7536 207.578 45.1395C206.289 47.9018 206.048 50.9432 206.722 53.9076C207.078 55.4764 207.617 57.0068 207.896 58.5948C208.185 60.2791 208.021 61.9442 207.704 63.5997C207.405 65.2166 207.02 66.8239 206.914 68.4601C206.828 69.8846 206.991 71.3187 207.357 72.695C208.868 78.2484 213.806 83.2918 219.629 84.0617C221.245 84.2735 222.853 84.158 224.47 84.235C226.106 84.312 227.742 84.5333 229.369 84.6873C230.976 84.8413 232.603 84.9472 234.22 84.7932C235.759 84.6488 237.184 84.2061 238.628 83.6864C239.946 83.2148 241.255 82.6758 242.42 81.8866C243.507 81.1551 244.431 80.2119 245.336 79.2879C246.991 77.6036 248.724 75.823 249.282 73.4553C249.85 71.0395 249.792 68.4698 249.657 66.0058C249.58 64.5621 249.292 63.2147 248.936 61.8095C248.522 60.1637 248.445 58.6815 248.984 57.0549C249.455 55.6208 250.168 54.2637 250.533 52.7911L250.562 52.8008Z" fill="#1F1F1F" stroke="black" stroke-width="0.481234" stroke-miterlimit="10"/>
<path d="M197.385 102.609L217.664 64.3698L219.117 54.4467C219.117 54.4467 201.687 56.7181 191.754 66.4968C181.831 76.2755 166.47 93.7347 168.443 109.741C169.733 120.154 176.143 125.573 186.663 122.888C197.183 120.203 199.656 111.916 198.963 107.671C198.809 106.718 198.309 104.755 197.385 102.609Z" fill="#1F1F1F"/>
<path d="M183.997 81.3478C188.155 81.2997 192.168 79.6346 195.219 76.8338C198.588 73.754 200.253 69.625 200.937 65.188C201.206 63.417 201.36 61.6269 201.524 59.8367C201.273 59.9522 201.033 60.0773 200.783 60.2024C200.773 60.3564 200.754 60.5008 200.734 60.6548C200.301 65.2939 199.714 70.0677 196.865 73.9272C194.392 77.2862 190.619 79.6731 186.509 80.395C184.218 80.7992 181.86 80.6645 179.618 80.087C179.464 80.2891 179.31 80.5009 179.146 80.7126C180.715 81.1457 182.342 81.3767 183.978 81.3575L183.997 81.3478Z" fill="#1F1F1F"/>
<path d="M215.931 67.6229L216.316 66.9011C215.238 65.3708 214.247 63.773 213.352 62.1272C212.341 60.2504 211.455 58.3255 210.647 56.3524C210.416 56.4198 210.195 56.4872 209.964 56.5545C210.406 57.6421 210.878 58.7297 211.378 59.7981C212.668 62.5315 214.179 65.1686 215.931 67.6229Z" fill="#1F1F1F"/>
<path d="M267.558 70.8954C258.376 63.6576 235.854 53.3496 225.931 52.878C216.008 52.4064 230.176 87.8059 232.13 90.0292C234.083 92.2525 251.957 94.1197 259.416 102.147H259.425C258.309 103.956 257.558 105.987 257.51 108.172C257.337 117.296 260.599 120.539 268.819 121.069C277.038 121.598 285.268 120.231 288.935 108.172C292.602 96.112 276.74 78.1331 267.558 70.8954Z" fill="#1F1F1F"/>
<path d="M268.847 71.954C268.549 71.7037 268.26 71.4631 267.971 71.2321C264.372 71.2899 260.782 71.9155 257.384 73.1571C249.521 76.0252 242.88 81.8963 239.078 89.3458C238.606 90.2794 238.164 91.2322 237.74 92.1851C237.971 92.2524 238.202 92.3198 238.443 92.3872C240.021 88.9512 241.831 85.7076 244.381 82.8587C247.144 79.7596 250.483 77.1898 254.198 75.3226C258.751 73.0319 263.804 71.9155 268.857 71.954H268.847Z" fill="#1F1F1F"/>
<path d="M226.779 77.4113C227.116 77.5749 227.444 77.7289 227.79 77.8733C231.553 79.4229 235.788 79.5191 239.253 77.1803C241.024 75.9868 242.477 74.3988 243.969 72.8877C245.432 71.3959 246.982 70.0388 248.772 68.9608C252.112 66.9493 255.99 65.8521 259.879 65.8232C259.484 65.5922 259.08 65.3708 258.676 65.1398C256.52 65.2746 254.383 65.7077 252.352 66.4488C250.495 67.1225 248.714 68.0369 247.097 69.1822C245.422 70.366 243.998 71.8097 242.573 73.2727C241.101 74.7838 239.571 76.3141 237.665 77.2766C235.836 78.2005 233.748 78.4796 231.726 78.2102C229.869 77.9695 228.108 77.3247 226.452 76.4585C226.558 76.7761 226.664 77.0937 226.779 77.4113Z" fill="#1F1F1F"/>
<path d="M269.464 84.2256C270.465 84.5432 271.389 85.0726 272.169 85.7656C273.179 86.6703 273.94 87.8156 274.864 88.807C276.346 90.3854 278.29 91.4056 280.417 91.7906C282.121 92.0986 283.853 92.0601 285.557 91.7617C285.432 91.5404 285.307 91.3286 285.181 91.1073C283.67 91.3479 282.14 91.3768 280.61 91.0976C278.184 90.6549 276.279 89.4133 274.71 87.5365C273.911 86.574 273.15 85.5827 272.15 84.8223C271.341 84.2064 270.408 83.7444 269.435 83.4653C265.374 82.2911 260.687 83.9465 257.857 86.9686C255.114 89.8849 253.815 93.7252 253.237 97.6617C253.468 97.7772 253.689 97.9023 253.911 98.0274C254.392 94.4952 255.47 91.0303 257.713 88.2295C260.407 84.8705 265.239 82.8782 269.474 84.2352L269.464 84.2256Z" fill="#1F1F1F"/>
<path d="M276.664 111.762C274.152 114.466 272.227 117.691 270.947 121.146C271.206 121.146 271.466 121.146 271.726 121.146C272.891 118.085 274.546 115.227 276.712 112.772C280.263 108.759 285.027 106.314 289.445 103.408C289.426 103.138 289.397 102.859 289.368 102.58C285.008 105.477 280.263 107.883 276.664 111.752V111.762Z" fill="#1F1F1F"/>
<path d="M266.423 114.909C267.818 113.34 269.387 111.868 270.33 109.962C271.841 106.892 271.408 103.003 269.426 100.241C268.126 98.4219 266.24 97.2573 264.161 96.7761C263.959 96.9493 263.728 97.1514 263.487 97.3824C265.682 97.7482 267.712 98.9224 268.992 100.867C270.937 103.812 271.042 107.71 269.079 110.674C267.953 112.368 266.413 113.725 265.143 115.304C264.517 116.083 262.717 119.25 262.525 119.683C262.736 119.789 262.967 119.866 263.189 119.962C263.372 119.529 265.556 115.891 266.423 114.909Z" fill="#1F1F1F"/>
<path d="M232.13 90.0295C234.084 92.2528 251.957 94.12 259.416 102.147" stroke="black" stroke-width="0.481234" stroke-linecap="round" stroke-linejoin="round"/>
<path d="M270.196 92.6378C270.196 92.6378 257.694 99.0382 257.511 108.162C257.338 117.287 260.6 120.53 268.82 121.06C277.039 121.589 285.268 120.222 288.935 108.162" stroke="black" stroke-width="0.481234" stroke-linecap="round" stroke-linejoin="round"/>
<path d="M187.099 183.139L255.011 183.967L249.948 133.206L192.508 134.409L187.099 183.139Z" fill="#FFFEF9"/>
<path d="M205.002 156.161C205.884 156.161 206.599 155.445 206.599 154.563C206.599 153.681 205.884 152.965 205.002 152.965C204.119 152.965 203.404 153.681 203.404 154.563C203.404 155.445 204.119 156.161 205.002 156.161Z" fill="#FFFEF9"/>
<path d="M215.723 146.584C215.723 147.47 215.011 148.182 214.125 148.182C213.24 148.182 212.527 147.47 212.527 146.584C212.527 145.699 213.24 144.987 214.125 144.987C215.011 144.987 215.723 145.699 215.723 146.584Z" fill="#FFFEF9"/>
<path d="M219.024 158.991C219.907 158.991 220.622 158.275 220.622 157.393C220.622 156.51 219.907 155.795 219.024 155.795C218.142 155.795 217.427 156.51 217.427 157.393C217.427 158.275 218.142 158.991 219.024 158.991Z" fill="#FFFEF9"/>
<path d="M229.707 152.552C230.59 152.552 231.305 151.836 231.305 150.954C231.305 150.072 230.59 149.356 229.707 149.356C228.825 149.356 228.11 150.072 228.11 150.954C228.11 151.836 228.825 152.552 229.707 152.552Z" fill="#FFFEF9"/>
<path d="M222.653 143.668C223.535 143.668 224.25 142.953 224.25 142.07C224.25 141.188 223.535 140.473 222.653 140.473C221.77 140.473 221.055 141.188 221.055 142.07C221.055 142.953 221.77 143.668 222.653 143.668Z" fill="#FFFEF9"/>
<path d="M205.393 143.908C206.276 143.908 206.991 143.193 206.991 142.311C206.991 141.428 206.276 140.713 205.393 140.713C204.511 140.713 203.796 141.428 203.796 142.311C203.796 143.193 204.511 143.908 205.393 143.908Z" fill="#FFFEF9"/>
<path d="M239.1 143.908C239.983 143.908 240.698 143.193 240.698 142.311C240.698 141.428 239.983 140.713 239.1 140.713C238.218 140.713 237.503 141.428 237.503 142.311C237.503 143.193 238.218 143.908 239.1 143.908Z" fill="#FFFEF9"/>
<path d="M247.37 154.563C248.252 154.563 248.968 153.848 248.968 152.965C248.968 152.083 248.252 151.368 247.37 151.368C246.488 151.368 245.772 152.083 245.772 152.965C245.772 153.848 246.488 154.563 247.37 154.563Z" fill="#FFFEF9"/>
<path d="M239.1 163.524C239.983 163.524 240.698 162.808 240.698 161.926C240.698 161.044 239.983 160.328 239.1 160.328C238.218 160.328 237.503 161.044 237.503 161.926C237.503 162.808 238.218 163.524 239.1 163.524Z" fill="#FFFEF9"/>
<path d="M228.551 168.009C229.433 168.009 230.149 167.293 230.149 166.411C230.149 165.528 229.433 164.813 228.551 164.813C227.669 164.813 226.953 165.528 226.953 166.411C226.953 167.293 227.669 168.009 228.551 168.009Z" fill="#FFFEF9"/>
<path d="M209.458 168.856C210.34 168.856 211.056 168.141 211.056 167.258C211.056 166.376 210.34 165.66 209.458 165.66C208.575 165.66 207.86 166.376 207.86 167.258C207.86 168.141 208.575 168.856 209.458 168.856Z" fill="#FFFEF9"/>
<path d="M248.965 170.454C249.847 170.454 250.562 169.738 250.562 168.856C250.562 167.973 249.847 167.258 248.965 167.258C248.082 167.258 247.367 167.973 247.367 168.856C247.367 169.738 248.082 170.454 248.965 170.454Z" fill="#FFFEF9"/>
<path d="M238.005 176.95C238.887 176.95 239.603 176.235 239.603 175.352C239.603 174.47 238.887 173.755 238.005 173.755C237.123 173.755 236.407 174.47 236.407 175.352C236.407 176.235 237.123 176.95 238.005 176.95Z" fill="#FFFEF9"/>
<path d="M217.964 176.95C218.847 176.95 219.562 176.235 219.562 175.352C219.562 174.47 218.847 173.755 217.964 173.755C217.082 173.755 216.367 174.47 216.367 175.352C216.367 176.235 217.082 176.95 217.964 176.95Z" fill="#FFFEF9"/>
<path d="M195.28 176.045C196.163 176.045 196.878 175.33 196.878 174.448C196.878 173.565 196.163 172.85 195.28 172.85C194.398 172.85 193.683 173.565 193.683 174.448C193.683 175.33 194.398 176.045 195.28 176.045Z" fill="#FFFEF9"/>
<path d="M249.562 143.552C249.986 143.889 250.525 143.976 251.006 143.841L250.698 140.723C250.188 140.675 249.658 140.886 249.312 141.31C248.763 141.993 248.869 143.004 249.562 143.552Z" fill="#FFFEF9"/>
<path d="M252.644 160.213C252.162 160.482 251.825 161.002 251.825 161.599C251.825 162.311 252.287 162.898 252.932 163.11L252.644 160.213Z" fill="#FFFEF9"/>
<path d="M254.222 176.055C253.404 176.123 252.759 176.806 252.759 177.643C252.759 178.529 253.471 179.241 254.357 179.241C254.414 179.241 254.482 179.231 254.54 179.222L254.222 176.065V176.055Z" fill="#FFFEF9"/>
<path d="M189.523 170.444C190.409 170.444 191.121 169.732 191.121 168.846C191.121 167.961 190.409 167.249 189.523 167.249C189.273 167.249 189.052 167.306 188.84 167.412L188.542 170.097C188.811 170.309 189.148 170.444 189.523 170.444Z" fill="#FFFEF9"/>
<path d="M189.015 182.378C189.015 181.493 188.302 180.781 187.417 180.781C187.398 180.781 187.378 180.781 187.359 180.781L187.099 183.129L188.803 183.148C188.938 182.917 189.015 182.648 189.015 182.369V182.378Z" fill="#FFFEF9"/>
<path d="M205.394 182.09C205.394 181.204 204.682 180.492 203.796 180.492C202.911 180.492 202.198 181.204 202.198 182.09C202.198 182.59 202.439 183.033 202.795 183.332L204.759 183.36C205.144 183.072 205.384 182.61 205.384 182.1L205.394 182.09Z" fill="#FFFEF9"/>
<path d="M230.149 182.378C230.149 181.493 229.437 180.781 228.551 180.781C227.666 180.781 226.953 181.493 226.953 182.378C226.953 182.889 227.204 183.35 227.579 183.639L229.494 183.659C229.889 183.37 230.149 182.908 230.149 182.378Z" fill="#FFFEF9"/>
<path d="M248.311 183.283C248.311 182.398 247.599 181.685 246.713 181.685C245.828 181.685 245.115 182.398 245.115 183.283C245.115 183.485 245.154 183.678 245.221 183.851L248.186 183.889C248.263 183.707 248.311 183.495 248.311 183.283Z" fill="#FFFEF9"/>
<path d="M187.099 183.139L255.011 183.967L249.948 133.206L192.508 134.409L187.099 183.139Z" stroke="black" stroke-width="0.481234" stroke-miterlimit="10"/>
<path d="M197.169 92.1275L187.824 140.761L253.426 141.338L249.633 114.226L250.307 90.241C250.307 90.241 245.957 60.4045 240.432 57.5749C234.908 54.7452 219.114 55.6018 219.114 55.6018C219.114 55.6018 199.806 65.6596 198.796 67.9984C197.785 70.3276 197.179 92.1275 197.179 92.1275H197.169Z" fill="#1F1F1F"/>
<path d="M217.947 70.2318C220.652 73.4272 223.866 76.2665 227.784 77.8834C231.547 79.433 235.782 79.5293 239.247 77.1905C241.018 75.997 242.471 74.4089 243.963 72.8978C244.742 72.1086 245.541 71.3579 246.398 70.6649C246.33 70.4051 246.263 70.1548 246.196 69.9046C244.906 70.9344 243.741 72.099 242.586 73.2925C241.114 74.8035 239.584 76.3339 237.678 77.2963C235.849 78.2203 233.761 78.4994 231.739 78.2299C227.485 77.6813 223.684 75.1115 220.71 72.1471C217.755 69.2116 215.339 65.7852 213.376 62.1278C212.894 61.2424 212.452 60.3376 212.028 59.4329C211.816 59.5484 211.605 59.6639 211.393 59.789C211.393 59.789 211.393 59.7987 211.393 59.8083C213.145 63.533 215.3 67.0845 217.966 70.2414L217.947 70.2318Z" fill="#1F1F1F"/>
<path d="M239.073 89.3465C236.956 93.5044 235.551 98.0472 232.798 101.868C230.18 105.516 226.388 108.124 222.346 109.982C217.976 111.993 213.299 113.023 208.688 114.284C204.28 115.487 200.093 117.123 196.301 119.703C194.415 120.983 192.673 122.455 191.037 124.034L190.806 125.247C191.999 124.034 193.27 122.889 194.617 121.83C198.053 119.125 201.922 117.133 206.09 115.805C210.671 114.342 215.426 113.476 219.93 111.772C223.876 110.271 227.687 108.23 230.758 105.295C234.059 102.138 235.926 98.0665 237.736 93.9471C239.487 89.9432 241.441 86.1511 244.367 82.8691C245.58 81.512 246.908 80.2608 248.323 79.1251C248.275 78.8652 248.217 78.5957 248.159 78.3359C244.396 81.3099 241.258 85.0731 239.064 89.3658L239.073 89.3465Z" fill="#1F1F1F"/>
<path d="M198.197 71.7144C198.149 72.2341 198.101 72.7924 198.053 73.3891C199.4 71.2139 200.257 68.7789 200.748 66.1995C200.42 66.4401 200.122 66.6614 199.862 66.8732C199.496 68.5479 198.967 70.1841 198.197 71.7144Z" fill="#1F1F1F"/>
<path d="M252.109 131.907C249.097 131.378 246.026 131.542 243.187 132.879C239.944 134.419 237.374 137.182 235.613 140.271C235.439 140.569 235.295 140.877 235.131 141.185H235.949C237.518 138.231 239.665 135.651 242.754 133.928C245.882 132.177 249.068 132.023 252.225 132.658L252.119 131.917L252.109 131.907Z" fill="#1F1F1F"/>
<path d="M212.762 140.983H213.561C214.59 138.818 215.774 136.719 217.074 134.698C219.489 130.954 222.29 127.47 225.341 124.217C228.45 120.906 231.799 117.538 235.938 115.536C240.221 113.466 245.043 113.447 249.643 114.265V114.217L249.653 113.534C245.871 112.87 241.973 112.744 238.277 113.851C233.782 115.199 230.154 118.336 226.891 121.589C223.724 124.746 220.779 128.144 218.18 131.792C216.121 134.679 214.282 137.749 212.771 140.974L212.762 140.983Z" fill="#1F1F1F"/>
<path d="M206.253 109.587C209.651 107.277 212.596 104.13 214.829 100.665C216.898 97.4601 218.149 93.7546 218.072 89.9144C218.005 86.3917 216.917 82.8306 214.761 80.0298C213.578 78.4899 212.057 77.2001 210.305 76.3435C209.131 75.7757 207.87 75.41 206.696 74.8517C205.474 74.2646 204.425 73.4369 203.616 72.3493C203.337 71.9836 202.711 72.3493 202.99 72.715C204.28 74.4379 205.974 75.3907 207.947 76.1511C209.747 76.844 211.402 77.6236 212.827 78.9615C215.329 81.3195 216.773 84.64 217.206 88.0183C218.226 95.9394 213.395 102.927 207.331 107.508C205.512 108.885 203.934 109.934 201.893 110.954C199.593 112.099 196.927 112.532 194.049 112.244C193.587 112.195 193.424 112.792 193.857 112.937C194.53 113.168 199.631 114.072 206.244 109.578L206.253 109.587Z" fill="#1F1F1F"/>
<path d="M250.307 90.2411L249.633 114.226L253.426 141.348L187.824 140.761L197.169 92.1276" stroke="black" stroke-width="0.481234" stroke-linecap="round" stroke-linejoin="round"/>
<path d="M252.636 135.689H188.805L187.824 140.761L253.426 141.348L252.636 135.689Z" fill="#FFFEF9" stroke="black" stroke-width="0.481234" stroke-linecap="round" stroke-linejoin="round"/>
<path d="M202.144 82.9351C202.144 82.9351 205.763 76.9678 207.804 77.2084C209.844 77.4491 209.671 79.4414 208.285 82.9351C206.899 86.4289 204.368 86.9679 203.107 86.6118C201.846 86.246 200.826 84.8986 202.144 82.9351Z" fill="#FFFEF9" stroke="black" stroke-width="0.481234" stroke-linecap="round" stroke-linejoin="round"/>
<path d="M206.254 118.758C206.254 117.036 206.235 115.14 206.168 113.34C205.966 108.123 206.399 59.8746 206.168 58.8544C205.956 57.9208 205.917 57.0065 203.694 58.0363C201.471 59.0758 200.749 60.2211 200.749 60.2211C201.067 62.6273 201.817 81.3762 201.769 84.2636C201.673 90.1924 200.749 120.491 200.749 120.491L200.797 120.529C190.017 122.281 175.802 116.785 175.802 116.785L163.915 153.215C163.915 153.215 161.538 158.489 168.824 162.483C177.371 167.171 200.98 170.087 203.309 165.813C205.099 162.531 205.869 136.516 206.139 124.639L206.168 124.658C206.168 124.658 206.254 122.04 206.254 118.768V118.758Z" fill="#FFFEF9" stroke="black" stroke-width="0.481234" stroke-linecap="round" stroke-linejoin="round"/>
<path d="M171.117 94.2441C168.951 99.3645 167.806 104.629 168.441 109.74C169.731 120.154 176.141 125.572 186.66 122.887C197.18 120.202 199.654 111.915 198.961 107.671C198.595 105.409 196.275 97.401 190.943 95.0334C185.611 92.6657 177.18 97.6609 177.18 97.6609L171.117 94.2441Z" fill="#1F1F1F"/>
<path d="M179.328 123.378C179.559 123.417 179.809 123.436 180.05 123.465C180.377 122.512 180.723 121.569 181.041 120.625C182.35 116.727 182.793 112.213 180.666 108.508C179.799 106.997 178.539 105.678 177.008 104.841C175.305 103.917 173.37 103.705 171.474 104.013C170.406 104.186 169.366 104.504 168.356 104.899C168.336 105.168 168.317 105.438 168.308 105.698C168.952 105.438 169.617 105.197 170.29 105.014C172.311 104.456 174.496 104.379 176.421 105.341C178.038 106.15 179.328 107.517 180.175 109.095C182.302 113.032 181.368 117.594 179.953 121.578C179.742 122.175 179.54 122.772 179.337 123.368L179.328 123.378Z" fill="#1F1F1F"/>
<path d="M198.288 113.224C198.086 113.224 197.894 113.224 197.692 113.224C197.903 113.195 195.208 113.282 195.892 113.311C194.756 113.407 193.63 113.58 192.523 113.907C189.087 114.918 186.229 117.507 184.708 120.731C184.304 121.588 184.005 122.483 183.803 123.397C184.063 123.369 184.313 123.349 184.583 123.301C185.16 120.982 186.421 118.835 188.182 117.199C189.472 116.006 191.022 115.101 192.716 114.6C194.429 114.1 196.219 113.975 198 113.946C198.106 113.696 198.202 113.455 198.288 113.214V113.224Z" fill="#1F1F1F"/>
<path d="M196.556 100.905C195.844 101.424 195.122 101.925 194.343 102.329C192.379 103.349 190.118 103.465 187.971 102.984C186.008 102.541 184.401 101.405 183.457 99.6149C182.745 98.2674 182.533 96.7467 182.687 95.2549C182.437 95.3319 182.187 95.4089 181.956 95.4955C181.792 98.0557 182.649 100.625 184.747 102.291C186.085 103.349 187.759 103.782 189.434 103.927C191.273 104.09 193.063 103.802 194.699 102.955C195.469 102.55 196.181 102.06 196.884 101.549C196.778 101.338 196.662 101.116 196.547 100.905H196.556Z" fill="#1F1F1F"/>
<path d="M171.77 92.7716C169.181 98.3443 167.747 104.129 168.44 109.74C169.73 120.154 176.14 125.573 186.66 122.887C197.179 120.202 199.653 111.915 198.96 107.671C198.594 105.409 196.275 97.4011 190.943 95.0334C185.611 92.6657 177.179 97.6609 177.179 97.6609" stroke="#1F1F1F" stroke-width="0.481234" stroke-linecap="round" stroke-linejoin="round"/>
<path d="M211.519 91.0681L211.605 91.1066C212.01 90.3847 212.577 89.0277 211.846 88.0556C211.75 87.9305 211.557 87.7572 211.326 87.5743C211.499 87.2856 212.414 85.582 211.297 84.3693C211.124 84.1768 210.807 84.0517 210.412 83.9555C210.508 83.5897 210.518 83.224 210.412 82.8583C209.565 79.9708 203.184 80.8948 198.304 82.4348C193.424 83.9747 191.721 95.0239 191.721 95.0239C191.721 95.0239 184.56 101.184 183.771 104.148C183.02 106.958 186.312 112.599 190.768 111.723C195.792 110.731 197.082 106.506 199.892 103.609C202.703 100.722 202.087 98.1037 203.809 95.8323C205.59 93.4935 206.851 94.3983 209.295 94.4849C210.604 94.533 212.395 93.3973 211.836 91.5975C211.788 91.4338 211.663 91.251 211.509 91.0681H211.519Z" fill="#FFFEF9"/>
<path d="M202.397 84.3692C202.397 84.3692 210.068 83.041 211.29 84.3692C212.512 85.6975 211.29 87.6224 211.29 87.6224" stroke="black" stroke-width="0.481234" stroke-linecap="round" stroke-linejoin="round"/>
<path d="M202.877 87.141C202.877 87.141 210.799 86.679 211.838 88.0553C212.569 89.0274 212.002 90.3845 211.597 91.1064" stroke="black" stroke-width="0.481234" stroke-linecap="round" stroke-linejoin="round"/>
<path d="M203.359 90.8755C203.359 90.8755 211.28 89.7879 211.838 91.5973C212.397 93.4068 210.607 94.5329 209.298 94.4847C206.862 94.3981 205.592 93.4934 203.811 95.8322C202.089 98.1036 202.705 100.722 199.894 103.609C197.084 106.496 195.448 110.702 191.107 111.655C186.266 112.724 183.552 107.497 183.696 104.591C183.84 101.578 191.713 95.0141 191.713 95.0141C191.713 95.0141 193.417 83.965 198.297 82.425C203.176 80.8851 209.567 79.9515 210.404 82.8485C210.51 83.2046 210.501 83.5704 210.404 83.9361" stroke="black" stroke-width="0.481234" stroke-linecap="round" stroke-linejoin="round"/>
<path d="M263.471 106.727C259.785 106.083 247.446 110.154 244.607 112.858C241.767 115.563 239.717 117.69 239.602 119.836C239.438 122.791 242.249 121.655 242.249 121.655C241.806 122.637 241.623 123.542 241.767 124.293C242.258 126.776 243.635 126.15 243.635 126.15C243.74 128.373 245.665 128.094 245.665 128.094L245.723 127.94C245.434 130.067 247.715 130.26 248.947 129.557C250.276 128.797 250.468 126.718 254.443 125.207C258.418 123.696 265.954 119.711 267.821 116.506C269.948 112.858 268.024 107.517 263.461 106.718L263.471 106.727Z" fill="#FFFEF9"/>
<path d="M251.835 119.846C251.835 119.846 246.599 124.822 245.839 127.43C245.088 130.039 247.629 130.327 248.957 129.567C250.285 128.807 250.478 126.728 254.453 125.217C258.428 123.706 265.964 119.721 267.831 116.516C269.958 112.868 268.033 107.527 263.471 106.728C259.785 106.083 248.12 109.875 244.607 112.859C241.623 115.4 239.717 117.69 239.602 119.837C239.438 122.791 242.249 121.656 242.249 121.656" stroke="black" stroke-width="0.481234" stroke-linecap="round" stroke-linejoin="round"/>
<path d="M245.674 128.104C245.674 128.104 243.75 128.383 243.644 126.16C243.538 123.937 246.233 120.058 249.784 117.661" stroke="black" stroke-width="0.481234" stroke-linecap="round" stroke-linejoin="round"/>
<path d="M243.643 126.16C243.643 126.16 242.267 126.786 241.776 124.303C241.285 121.82 244.327 117.681 248.956 114.601" stroke="black" stroke-width="0.481234" stroke-linecap="round" stroke-linejoin="round"/>
<path d="M245.516 10.7961C246.432 6.66519 243.826 2.57401 239.695 1.65822C235.564 0.74242 231.473 3.34879 230.557 7.47968C229.641 11.6106 232.247 15.7018 236.378 16.6175C240.509 17.5333 244.6 14.927 245.516 10.7961Z" fill="#1F1F1F" stroke="black" stroke-width="0.481234" stroke-miterlimit="10"/>
<path d="M233.741 34.5428C232.788 34.5331 231.913 34.8219 231.191 35.332L231.22 32.7141C231.268 28.5562 228.323 25.1298 224.665 25.0817L219.179 25.0239C215.531 24.9854 212.509 28.3445 212.461 32.5023L212.365 41.0105C212.317 45.1684 215.262 48.5948 218.919 48.6429L222.095 48.6814L222.047 53.2628C222.028 55.1396 223.549 56.6988 225.426 56.718L227.601 56.7469C229.478 56.7661 231.037 55.2454 231.056 53.3686L231.114 48.1906V47.9018L231.172 42.7237C231.172 42.6179 231.171 42.5216 231.152 42.4157C231.855 42.9162 232.711 43.2146 233.645 43.2242C236.061 43.2531 238.034 41.3282 238.063 38.9412C238.092 36.5447 236.157 34.5812 233.741 34.562V34.5428Z" fill="#FFFEF9" stroke="black" stroke-width="0.481234" stroke-miterlimit="10"/>
<path d="M231.325 39.4225C231.325 39.4225 231.162 36.4774 234.184 36.8335" stroke="black" stroke-width="0.481234" stroke-linecap="round" stroke-linejoin="round"/>
<path d="M223.416 35.3998C223.416 36.0831 222.848 36.6317 222.165 36.6221C221.481 36.6221 220.933 36.0543 220.943 35.3709C220.943 34.6875 221.51 34.1389 222.194 34.1486C222.877 34.1486 223.426 34.7164 223.416 35.3998Z" fill="black"/>
<path d="M215.311 35.1302C215.311 35.7173 214.83 36.1793 214.242 36.1793C213.655 36.1793 213.193 35.6981 213.193 35.111C213.193 34.5239 213.675 34.0619 214.262 34.0715C214.849 34.0715 215.311 34.5527 215.301 35.1398L215.311 35.1302Z" fill="black"/>
<path d="M218.285 38.7009L216.1 37.3342L218.054 34.1003" stroke="black" stroke-width="0.481234" stroke-linecap="round" stroke-linejoin="round"/>
<path d="M224.214 33.696L222.097 32.8201" stroke="black" stroke-width="0.481234" stroke-linecap="round" stroke-linejoin="round"/>
<path d="M215.147 32.8682L213.117 33.1473" stroke="black" stroke-width="0.481234" stroke-linecap="round" stroke-linejoin="round"/>
<path d="M215.901 41.7419C215.891 42.791 216.729 43.6573 217.787 43.6669C218.837 43.6765 219.703 42.8392 219.712 41.7804" stroke="black" stroke-width="0.481234" stroke-linecap="round" stroke-linejoin="round"/>
<path d="M210.933 23.5994C213.57 19.0084 218.507 15.8323 223.782 15.3414C229.046 14.8506 234.494 17.0642 237.93 21.0874C237.93 21.0874 240.375 26.4868 240.615 29.4416C240.808 31.8189 238.161 35.0143 237.121 36.1789C236.332 35.1972 235.12 34.5523 233.753 34.5427C232.8 34.5331 231.924 34.8218 231.202 35.3319C231.202 35.3319 230.865 35.7169 230.48 36.2462C230.124 36.0345 229.797 35.7073 229.412 35.534C228.883 35.303 228.276 35.3896 227.709 35.2838C226.563 35.0624 225.726 34.0903 225.119 33.0893C224.003 31.251 223.339 29.124 223.214 26.9777L222.925 27.0066C221.606 28.8352 220.153 30.7698 218.016 31.5013C217.131 31.7996 216.178 31.867 215.245 31.9344C214.253 32.0018 213.252 32.0691 212.261 32.1461C211.828 32.175 211.375 32.2039 210.971 32.0306C210.461 31.8093 210.124 31.2992 209.912 30.7794C208.95 28.4695 209.691 25.7842 210.933 23.609V23.5994Z" fill="#1F1F1F"/>
<path d="M237.112 36.1791C236.323 35.1973 235.11 34.5525 233.744 34.5429C232.791 34.5332 231.915 34.822 231.193 35.3321C231.193 35.3321 230.856 35.7171 230.471 36.2464C230.115 36.0347 229.788 35.7075 229.403 35.5342C228.873 35.3032 228.267 35.3898 227.699 35.284C226.554 35.0626 225.717 34.0905 225.11 33.0895C223.994 31.2512 223.33 29.1242 223.205 26.9779C223.205 26.9779 220.144 30.7796 218.007 31.5015C217.122 31.7998 216.169 31.8672 215.235 31.9346C214.244 32.002 213.243 32.0693 212.252 32.1463C211.819 32.1752 211.366 32.2041 210.962 32.0308C210.452 31.8095 210.115 31.2994 209.903 30.7796C208.941 28.4697 209.682 25.7844 210.923 23.6092C213.561 19.0183 218.498 15.8421 223.772 15.3513C229.037 14.8604 234.485 17.0741 237.921 21.0972C237.921 21.0972 239.259 22.3965 240.24 25.3898" stroke="black" stroke-width="0.481234" stroke-linecap="round" stroke-linejoin="round"/>
<path d="M232.677 50.3654H219.472C217.947 50.3654 216.71 51.6021 216.71 53.1277V55.0718C216.71 56.5974 217.947 57.8341 219.472 57.8341H232.677C234.203 57.8341 235.44 56.5974 235.44 55.0718V53.1277C235.44 51.6021 234.203 50.3654 232.677 50.3654Z" fill="#FFFEF9" stroke="black" stroke-width="0.481234" stroke-miterlimit="10"/>
</svg>
