<svg width="159" height="121" viewBox="0 0 159 121" fill="none" xmlns="http://www.w3.org/2000/svg">
<rect x="0.5" y="0.5" width="158" height="120" rx="15.5121" fill="#FFFEF9"/>
<circle cx="15" cy="41" r="4.25" stroke="#A99CFE" stroke-width="1.5"/>
<circle cx="19" cy="27" r="3.25" stroke="#EFE7FF" stroke-width="1.5"/>
<path d="M130 41.9375L131.874 40.0633" stroke="#1F1F1F"/>
<path d="M131 45H134" stroke="#1F1F1F"/>
<path d="M127 41L127 38" stroke="#1F1F1F"/>
<path d="M30.7511 35.7163H27.3534V32.3185C27.3534 32.1426 27.2108 32 27.0348 32C26.8589 32 26.7163 32.1426 26.7163 32.3185V35.7163H23.3185C23.1426 35.7163 23 35.8589 23 36.0348C23 36.2108 23.1426 36.3534 23.3185 36.3534H26.7163V39.7511C26.7163 39.9271 26.8589 40.0697 27.0348 40.0697C27.2108 40.0697 27.3534 39.9271 27.3534 39.7511V36.3534H30.7511C30.9271 36.3534 31.0697 36.2108 31.0697 36.0348C31.0697 35.8589 30.9271 35.7163 30.7511 35.7163Z" fill="#7E70DC" stroke="#7E70DC" stroke-width="0.41393"/>
<rect x="0.5" y="0.5" width="158" height="120" rx="15.5121" stroke="#1F1F1F"/>
</svg>
