<svg width="121" height="131" viewBox="0 0 121 131" fill="none" xmlns="http://www.w3.org/2000/svg">
<path d="M59.1059 71.0937C77.1598 71.0937 88.1641 84.5911 88.1641 102.387V121.902L30.5636 121.902L30.5636 101.957C30.5636 83.4735 41.9977 71.0937 59.1059 71.0937ZM59.1059 80.1206C46.8981 80.1206 38.6449 89.0616 38.6449 101.957V113.133L80.1688 113.133V102.387C80.1688 89.8353 72.2595 80.1206 59.1059 80.1206ZM89.1957 33.5963C89.1957 50.3606 76.2141 63.2562 59.2779 63.2562C42.5995 63.2562 29.6179 50.2747 29.6179 33.5963C29.6179 17.004 42.5995 4.10833 59.2779 4.10833C76.2141 4.10833 89.1957 17.004 89.1957 33.5963ZM80.8565 33.5963C80.8565 22.2482 71.3998 13.1353 59.2779 13.1353C47.3279 13.1353 37.9571 22.1622 37.9571 33.5963C37.9571 45.0304 47.3279 54.2293 59.2779 54.2293C71.3998 54.2293 80.8565 45.1164 80.8565 33.5963Z" fill="#1F1F1F"/>
</svg>
