<svg width="41" height="44" viewBox="0 0 41 44" fill="none" xmlns="http://www.w3.org/2000/svg">
<path d="M20.1649 23.852C26.2755 23.852 30 28.4204 30 34.4436V41.0488H10.5045L10.5045 34.2981C10.5045 28.0421 14.3745 23.852 20.1649 23.852ZM20.1649 26.9073C16.0331 26.9073 13.2397 29.9335 13.2397 34.2981L13.2397 38.0808H27.2939V34.4436C27.2939 30.1953 24.6169 26.9073 20.1649 26.9073Z" fill="#1F1F1F"/>
<path d="M30.3492 11.1606C30.3492 16.8347 25.9554 21.1993 20.2231 21.1993C14.5782 21.1993 10.1844 16.8056 10.1844 11.1606C10.1844 5.54472 14.5782 1.18005 20.2231 1.18005C25.9554 1.18005 30.3492 5.54472 30.3492 11.1606ZM27.5267 11.1606C27.5267 7.31969 24.3259 4.23532 20.2231 4.23532C16.1785 4.23532 13.0069 7.29059 13.0069 11.1606C13.0069 15.0306 16.1785 18.1441 20.2231 18.1441C24.3259 18.1441 27.5267 15.0597 27.5267 11.1606Z" fill="#A99CFE"/>
</svg>
