<svg width="23" height="25" viewBox="0 0 23 25" fill="none" xmlns="http://www.w3.org/2000/svg">
<path d="M11.4119 13.5523C14.8838 13.5523 17 16.1479 17 19.5702V23.3232L5.92299 23.3232L5.92299 19.4876C5.92299 15.933 8.12186 13.5523 11.4119 13.5523ZM11.4119 15.2882C9.06423 15.2882 7.47708 17.0076 7.47708 19.4876L7.47708 21.6368H15.4624V19.5702C15.4624 17.1564 13.9414 15.2882 11.4119 15.2882ZM17.1984 6.34125C17.1984 9.56515 14.7019 12.0451 11.445 12.0451C8.23759 12.0451 5.74113 9.54862 5.74113 6.34125C5.74113 3.15041 8.23759 0.670484 11.445 0.670484C14.7019 0.670484 17.1984 3.15041 17.1984 6.34125ZM15.5947 6.34125C15.5947 4.15891 13.7761 2.40643 11.445 2.40643C9.1469 2.40643 7.34482 4.14238 7.34482 6.34125C7.34482 8.54012 9.1469 10.3091 11.445 10.3091C13.7761 10.3091 15.5947 8.55665 15.5947 6.34125Z" fill="#1F1F1F"/>
</svg>
