<svg width="17" height="22" viewBox="0 0 17 22" fill="none" xmlns="http://www.w3.org/2000/svg">
<path d="M3.87586 9.07468C3.49863 9.07468 3.19053 9.38279 3.19053 9.76002C3.19053 10.1374 3.49878 10.4447 3.87586 10.4447H12.8879C13.2649 10.4447 13.5732 10.1374 13.5732 9.76002C13.5732 9.38279 13.2651 9.07468 12.8879 9.07468H3.87586Z" fill="#1F1F1F" stroke="#1F1F1F" stroke-width="0.2"/>
<path d="M11.7441 1.08669L11.744 1.08662C11.6255 0.968038 11.4706 0.9 11.3087 0.9H1.506C1.17152 0.9 0.9 1.17135 0.9 1.50533V20.5027C0.9 20.8289 1.17841 21.1 1.506 21.1L15.624 21.0993C15.9508 21.0993 16.23 20.8283 16.23 20.502V5.82067C16.23 5.65473 16.1624 5.49833 16.041 5.39159L11.7441 1.08669ZM15.0267 6.426V19.8973H2.112V2.10267H10.7033V5.82133C10.7033 6.15473 10.9756 6.426 11.3087 6.426H15.0267ZM11.9153 2.95541L14.1746 5.22333H11.9153V2.95541Z" fill="#1F1F1F" stroke="#1F1F1F" stroke-width="0.2"/>
<path d="M3.87586 11.676C3.49863 11.676 3.19053 11.9841 3.19053 12.3613C3.19053 12.7386 3.49863 13.0467 3.87586 13.0467H12.8879C13.2651 13.0467 13.5732 12.7386 13.5732 12.3613C13.5732 11.9841 13.2651 11.676 12.8879 11.676H3.87586Z" fill="#1F1F1F" stroke="#1F1F1F" stroke-width="0.2"/>
<path d="M3.87586 14.2767C3.49863 14.2767 3.19053 14.5848 3.19053 14.962C3.19053 15.3402 3.49885 15.6467 3.87586 15.6467H12.8879C13.2649 15.6467 13.5732 15.3402 13.5732 14.962C13.5732 14.5848 13.2651 14.2767 12.8879 14.2767H3.87586Z" fill="#1F1F1F" stroke="#1F1F1F" stroke-width="0.2"/>
</svg>
