<svg width="194" height="131" viewBox="0 0 194 131" fill="none" xmlns="http://www.w3.org/2000/svg">
<path d="M130.334 105.294L131.582 115.154L121.17 114.838L120.029 105.294H130.334Z" fill="white" stroke="#1F1F1F" stroke-width="0.267797" stroke-linecap="round" stroke-linejoin="round"/>
<path d="M132.536 110.896L118.305 111.388L118.546 119.401L109.8 125.378L133.387 124.875L132.536 110.896Z" fill="white" stroke="#1F1F1F" stroke-width="0.267797" stroke-linecap="round" stroke-linejoin="round"/>
<path d="M132.157 123.504L113.529 123.723" stroke="#1F1F1F" stroke-width="0.267797" stroke-linecap="round" stroke-linejoin="round"/>
<path d="M148.611 87.3623C148.611 87.3623 123.567 72.778 119.309 75.215C115.051 77.6519 111.388 81.9849 111.28 86.9713C111.173 91.9576 116.888 109.573 116.888 109.573L133.384 109.032L130.23 95.6104L126.298 92.2522L139.79 103.773L148.611 87.3569V87.3623Z" fill="#1F1F1F"/>
<path d="M115.84 106.247H132.878" stroke="white" stroke-width="0.267797" stroke-linecap="round" stroke-linejoin="round"/>
<path d="M166.192 110.81L176.052 111.073L175.725 121.913H166.192V110.81Z" fill="white" stroke="#1F1F1F" stroke-width="0.267797" stroke-linecap="round" stroke-linejoin="round"/>
<path d="M172.286 108.781V124.206H183.132L193.357 130.022L185.773 109.573L172.286 108.781Z" fill="white" stroke="#1F1F1F" stroke-width="0.267797" stroke-linecap="round" stroke-linejoin="round"/>
<path d="M184.627 110.811L190.711 126.938" stroke="#1F1F1F" stroke-width="0.267797" stroke-linecap="round" stroke-linejoin="round"/>
<path d="M165.502 95.7925C169.171 90.2545 170.055 81.2297 158.004 74.192L145.407 84.2665C145.407 84.2665 131.631 104.914 129.634 110.259C128.273 113.901 127.888 120.601 134.545 123.424C141.208 126.246 167.795 124.832 167.795 124.832V107.897L154.014 107.667C154.014 107.667 162.219 100.752 165.508 95.7979L165.502 95.7925Z" fill="#1F1F1F"/>
<path d="M129.631 110.259C130.986 106.617 145.404 84.2665 145.404 84.2665" stroke="white" stroke-width="0.267797" stroke-linecap="round" stroke-linejoin="round"/>
<path d="M147.559 107.56L167.794 107.897" stroke="white" stroke-width="0.267797" stroke-linecap="round" stroke-linejoin="round"/>
<path d="M164.826 107.849V124.961" stroke="white" stroke-width="0.267797" stroke-linecap="round" stroke-linejoin="round"/>
<path d="M105.989 125.379H56.4355" stroke="#1F1F1F" stroke-width="0.267797" stroke-linecap="round" stroke-linejoin="round"/>
<path d="M79.5911 125.379C79.5911 125.379 75.9437 122.444 76.1525 119.097C76.3614 115.749 74.4654 115.305 73.0354 111.78C71.6 108.256 73.0622 105.332 71.0965 102.74C69.1309 100.147 64.8997 93.8754 69.4844 91.9848C74.0691 90.0941 76.2168 96.3552 78.9323 98.8243C81.6477 101.293 83.0564 103.372 83.6777 108.411C84.2989 113.451 84.8238 112.45 87.1162 115.155C89.4085 117.859 89.5853 122.23 89.1461 125.379H79.5964H79.5911Z" fill="white" stroke="#1F1F1F" stroke-width="0.267797" stroke-linecap="round" stroke-linejoin="round"/>
<path d="M68.9333 92.3168C69.2279 93.6612 69.9992 95.4019 71.9595 96.7087C75.6497 99.1724 77.0583 101.642 77.2351 105.519C77.4118 109.397 77.851 112.798 80.6736 115.155C83.4961 117.511 84.728 121.785 84.8137 125.379" stroke="#1F1F1F" stroke-width="0.267797" stroke-linecap="round" stroke-linejoin="round"/>
<path d="M85.2792 125.293C85.3702 120.055 86.3932 106.446 93.8487 92.2577" stroke="#1F1F1F" stroke-width="0.401696" stroke-linecap="round" stroke-linejoin="round"/>
<path d="M94.1354 91.9686C94.1354 91.9686 92.9035 94.3252 93.9211 96.2801C94.9334 98.235 96.101 96.1516 96.1171 94.8179C96.1171 94.8179 97.2311 95.4713 97.7506 94.9197C98.2702 94.368 97.3864 92.9969 96.342 92.3113C95.2976 91.6311 94.3336 91.5026 94.1354 91.9578V91.9686Z" fill="white" stroke="#1F1F1F" stroke-width="0.267797" stroke-linecap="round" stroke-linejoin="round"/>
<path d="M94.4935 92.9007C94.4935 92.9007 91.4245 91.4331 92.1261 88.407C92.8278 85.3809 95.4414 84.1812 98.1623 84.7757C100.883 85.3702 101.52 88.6373 100.706 90.5976C99.8922 92.5525 97.225 94.095 94.4935 92.9007Z" fill="#FDFDFD"/>
<path d="M93.5625 92.1506C93.5625 92.1506 97.3117 87.3088 100.997 89.478" stroke="#1F1F1F" stroke-width="0.267797" stroke-linecap="round" stroke-linejoin="round"/>
<path d="M93.9218 85.5359C93.9218 85.5359 96.2998 87.6247 95.3143 90.4312" stroke="#1F1F1F" stroke-width="0.267797" stroke-linecap="round" stroke-linejoin="round"/>
<path d="M100.911 87.7102C100.911 87.7102 98.6879 85.4714 95.4744 88.1066" stroke="#1F1F1F" stroke-width="0.267797" stroke-linecap="round" stroke-linejoin="round"/>
<path d="M94.8488 86.6981C94.8488 86.6981 96.4288 85.5198 97.3982 87.0088" stroke="#1F1F1F" stroke-width="0.267797" stroke-linecap="round" stroke-linejoin="round"/>
<path d="M94.4935 92.9007C94.4935 92.9007 91.4245 91.4331 92.1261 88.407C92.8278 85.3809 95.4414 84.1812 98.1623 84.7757C100.883 85.3702 101.52 88.6373 100.706 90.5976C99.8922 92.5525 97.225 94.095 94.4935 92.9007Z" stroke="#1F1F1F" stroke-width="0.267797" stroke-miterlimit="10"/>
<path d="M114.371 92.654C114.21 91.3365 112.668 88.5675 108.56 89.4244C104.452 90.2814 104.323 96.5585 102.288 97.2655C100.253 97.9725 98.212 100.201 97.8907 103.778C97.5693 107.351 96.9212 111.486 92.2187 113.837C88.8552 115.519 87.243 121.887 86.595 125.379H98.7369C102.92 121.914 103.139 119.921 103.9 116.408C104.768 112.396 109.609 113.13 110.772 109.579C111.929 106.022 110.434 103.848 112.561 100.677C114.687 97.5065 114.532 93.9769 114.371 92.6594V92.654Z" fill="white" stroke="#1F1F1F" stroke-width="0.267797" stroke-linecap="round" stroke-linejoin="round"/>
<path d="M92.0144 125.186C92.0144 125.186 93.2463 120.709 96.1117 118.829C98.9771 116.949 101.189 113.708 100.991 111.191C100.702 107.581 102.924 104.062 105.147 102.739C108.179 100.94 108.409 98.519 109.175 95.7981C109.941 93.0773 112.099 89.7727 112.099 89.7727" stroke="#1F1F1F" stroke-width="0.267797" stroke-linecap="round" stroke-linejoin="round"/>
<path d="M58.3173 112.953C62.1468 115.658 63.3626 116.108 63.2073 120.73C63.143 122.712 65.0069 124.26 67.1599 125.379H81.0265C79.4893 119.916 75.6598 120.741 74.4815 118.657C73.18 116.36 74.3315 114.432 71.3269 112.166C68.3222 109.906 66.0941 112.054 63.7482 106.344C61.4076 100.635 55.8375 100.56 54.5949 102.59C53.3523 104.619 54.4824 110.254 58.3119 112.953H58.3173Z" fill="white" stroke="#1F1F1F" stroke-width="0.267797" stroke-linecap="round" stroke-linejoin="round"/>
<path d="M54.8198 102.295C54.8198 102.295 56.6087 107.426 59.1956 108.368C61.7825 109.311 65.1889 110.838 66.0727 114.244C66.9564 117.65 67.1064 119.589 69.2916 120.826C71.4768 122.058 73.0193 125.374 73.0193 125.374" stroke="#1F1F1F" stroke-width="0.267797" stroke-linecap="round" stroke-linejoin="round"/>
<path d="M121.587 47.5729L119.771 48.0603L120.199 45.2216L121.587 47.5729Z" fill="white"/>
<path d="M120.285 37.9801L123.279 36.3091C125.266 35.195 127.933 36.143 129.197 38.4086L131.79 43.0468C131.865 43.1754 131.929 43.3093 131.988 43.4432C132.095 43.561 132.197 43.6949 132.277 43.8395L133.857 46.6621L133.943 46.8174L135.523 49.64C136.096 50.663 135.726 51.9698 134.698 52.5429L133.509 53.2071C132.486 53.7802 131.179 53.4106 130.606 52.3876L129.208 49.8864L127.478 50.8504C125.491 51.9645 122.824 51.0165 121.56 48.7509L118.967 44.1127C117.703 41.8471 118.293 39.0835 120.285 37.9748V37.9801Z" fill="white" stroke="#1F1F1F" stroke-width="0.267797" stroke-miterlimit="10"/>
<path d="M121.982 44.9427C121.998 45.3444 122.335 45.655 122.737 45.639C123.139 45.6229 123.449 45.2855 123.433 44.8838C123.417 44.4821 123.08 44.1714 122.678 44.1875C122.276 44.2036 121.966 44.541 121.982 44.9427Z" fill="#1F1F1F"/>
<path d="M121.468 43.3895L123.053 43.0468" stroke="#1F1F1F" stroke-width="0.267797" stroke-linecap="round" stroke-linejoin="round"/>
<path d="M121.896 49.281L123.262 48.649C123.262 48.649 123.653 49.5595 123.128 50.4647" stroke="#1F1F1F" stroke-width="0.267797" stroke-linecap="round" stroke-linejoin="round"/>
<path d="M120.992 47.733L119.771 48.0597L120.076 46.0941" stroke="#1F1F1F" stroke-width="0.267797" stroke-linecap="round" stroke-linejoin="round"/>
<path d="M132.413 31.9873C127.63 30.9804 126.597 33.5673 122.746 33.9904C121.632 34.1136 120.111 33.4549 118.82 33.2406C111.214 31.9873 110.615 41.0603 115.665 42.5332C118.643 43.4008 125.515 42.1583 128.139 41.7726L129.114 43.7918L129.473 41.7351L131.385 42.3082L133.854 46.6519C133.854 46.6519 135.188 45.6289 136.141 43.3205C137.496 40.0373 137.046 32.9567 132.413 31.982V31.9873Z" fill="white" stroke="#1F1F1F" stroke-width="0.267797" stroke-linecap="round" stroke-linejoin="round"/>
<path d="M134.417 41.3172C135.049 42.624 134.492 44.204 133.169 44.8414C131.846 45.4787 130.266 44.9324 129.634 43.6256C129.002 42.3187 129.559 40.7388 130.882 40.1014C132.199 39.464 133.785 40.0103 134.417 41.3172Z" fill="white"/>
<path d="M130.908 43.4061C130.908 43.4061 130.024 41.8475 131.765 41.2262" stroke="#1F1F1F" stroke-width="0.267797" stroke-linecap="round" stroke-linejoin="round"/>
<path d="M129.639 43.6256C129.007 42.3187 129.564 40.7388 130.887 40.1014C132.204 39.464 133.789 40.0103 134.421 41.3172C135.053 42.624 134.496 44.204 133.173 44.8414C132.949 44.9485 132.713 45.0235 132.472 45.0663" stroke="#1F1F1F" stroke-width="0.267797" stroke-linecap="round" stroke-linejoin="round"/>
<path d="M136.284 29.2716C136.284 29.2716 130.521 25.4742 134.003 19.6737C137.441 13.9375 149.176 18.0883 150.119 10.4508C151.061 2.8132 158.292 -2.05535 166.952 1.38852C175.613 4.83239 172.174 18.2597 166.299 23.1015C160.423 27.9433 150.542 21.7036 147.066 25.1314C143.59 28.5592 141.276 32.2923 136.29 29.2716H136.284Z" stroke="#1F1F1F" stroke-width="0.267797" stroke-miterlimit="10"/>
<path d="M134.035 31.4944C134.84 31.4944 135.492 30.8422 135.492 30.0376C135.492 29.2331 134.84 28.5808 134.035 28.5808C133.231 28.5808 132.578 29.2331 132.578 30.0376C132.578 30.8422 133.231 31.4944 134.035 31.4944Z" fill="#1F1F1F"/>
<path d="M131.717 57.8982L139.722 53.1472C140.808 52.5025 141.166 51.0994 140.521 50.0132L139.578 48.4243C138.933 47.3381 137.53 46.9802 136.444 47.6248L128.439 52.3759C127.353 53.0206 126.995 54.4237 127.64 55.5098L128.583 57.0988C129.228 58.185 130.631 58.5429 131.717 57.8982Z" fill="white" stroke="#1F1F1F" stroke-width="0.267797" stroke-linecap="round" stroke-linejoin="round"/>
<path d="M137.49 47.327L140.591 52.2116" stroke="#1F1F1F" stroke-width="0.267797" stroke-miterlimit="10"/>
<path d="M135.647 48.1091L138.85 53.6793" stroke="#1F1F1F" stroke-width="0.267797" stroke-miterlimit="10"/>
<path d="M133.392 49.4481L136.659 54.9755" stroke="#1F1F1F" stroke-width="0.267797" stroke-miterlimit="10"/>
<path d="M134.548 56.2287L131.147 50.7764" stroke="#1F1F1F" stroke-width="0.267797" stroke-miterlimit="10"/>
<path d="M128.917 52.0993L132.201 57.6213" stroke="#1F1F1F" stroke-width="0.267797" stroke-miterlimit="10"/>
<path d="M127.451 53.6096L130.022 58.1246" stroke="#1F1F1F" stroke-width="0.267797" stroke-miterlimit="10"/>
<path d="M107.484 63.7482L111.951 70.4646L117.703 65.5746L112.599 59.8438L107.484 63.7482Z" fill="white" stroke="#1F1F1F" stroke-width="0.267797" stroke-linecap="round" stroke-linejoin="round"/>
<path d="M99.5213 57.3747C99.5213 57.3747 95.7829 58.4084 95.4026 57.2301C94.9152 55.7305 97.5075 55.0824 99.5213 54.4611C101.535 53.8398 105.772 53.8612 106.789 54.2308C107.807 54.6004 111.754 57.9425 113.65 60.1223L107.935 65.2908C107.935 65.2908 103.169 58.9226 102.633 58.5745C102.103 58.2263 99.5213 57.3801 99.5213 57.3801V57.3747Z" fill="#1F1F1F" stroke="#1F1F1F" stroke-width="0.267797" stroke-linecap="round" stroke-linejoin="round"/>
<path d="M107.447 63.5288L112.16 59.5012" stroke="#1F1F1F" stroke-width="0.267797" stroke-linecap="round" stroke-linejoin="round"/>
<path d="M106.678 72.3712L96.7376 79.7195C95.6075 80.5551 93.9954 80.1962 93.3312 78.9536L88.0342 69.0933C87.4933 68.0811 87.7718 66.8278 88.6984 66.1422L95.8914 60.8238C96.8019 60.1489 98.0659 60.2346 98.8747 61.0273L106.919 68.8577C107.942 69.8485 107.824 71.5249 106.684 72.3712H106.678Z" fill="#1F1F1F"/>
<path d="M79.3247 75.2578L79.5764 73.6564C79.7424 72.6013 80.7815 72.0925 81.4456 72.7352L82.4579 73.7153L83.4702 74.6955C84.1343 75.3382 83.9308 76.6557 83.1006 77.0628L81.8366 77.6841L80.5726 78.3054C79.7424 78.7124 78.9123 77.909 79.073 76.8593L79.3247 75.2578Z" fill="#1F1F1F"/>
<path d="M82.6546 76.3773L94.9519 80.0139L94.1056 75.124L82.0762 75.3007L82.6546 76.3773Z" fill="#1F1F1F"/>
<path d="M104.424 60.7862C106.165 63.1642 106.224 66.4635 104.595 68.9165C102.951 71.391 99.8232 72.6228 96.9417 71.8891C94.0013 71.1392 91.8375 68.6005 91.559 65.5798C91.2858 62.6233 93.0051 59.7418 95.6884 58.4992C98.3342 57.2727 101.601 57.8351 103.669 59.9025C103.942 60.1756 104.194 60.4702 104.424 60.7808C104.617 61.0379 105.04 61.0272 105.265 60.829C105.522 60.5987 105.506 60.2506 105.313 59.9882C103.267 57.2513 99.5982 56.0087 96.315 56.9996C92.9676 58.0118 90.536 61.054 90.3646 64.5621C90.1932 68.0542 92.2981 71.3374 95.5277 72.6657C98.7092 73.9779 102.539 73.1156 104.831 70.5394C107.123 67.9685 107.638 64.1604 106.015 61.0968C105.811 60.7112 105.57 60.3417 105.308 59.9882C105.12 59.7311 104.692 59.7418 104.467 59.94C104.21 60.1703 104.231 60.5184 104.419 60.7808L104.424 60.7862Z" fill="#1F1F1F"/>
<path d="M95.144 70.8664C95.144 70.8664 92.9427 72.0982 92.1286 70.1004C91.4055 68.3276 93.9549 66.9512 95.6099 68.0491C95.6099 68.0491 94.5013 64.948 96.6972 64.8249C99.2145 64.6856 98.1915 68.0759 98.1915 68.0759C98.1915 68.0759 100.243 66.7851 100.982 68.5847C101.721 70.3843 99.9697 71.2306 97.9826 70.3147C97.9826 70.3147 99.0966 71.7822 98.6521 72.6767C98.2076 73.5711 96.4937 73.9996 95.4546 73.2605C94.4156 72.5213 95.144 70.8664 95.144 70.8664Z" fill="white"/>
<path d="M96.9226 68.9755C97.0672 69.1683 97.0244 69.4361 96.8316 69.5807C96.6387 69.7253 96.3709 69.6825 96.2263 69.4896C96.0817 69.2968 96.1246 69.029 96.3174 68.8844C96.5102 68.7398 96.778 68.7827 96.9226 68.9755Z" fill="#1F1F1F"/>
<path d="M76.8738 74.3526C77.4897 74.3151 78.1217 74.2937 78.7698 74.2883" stroke="#1F1F1F" stroke-width="0.267797" stroke-linecap="round" stroke-linejoin="round"/>
<path d="M71.5441 75.2309C72.6313 74.931 73.7936 74.69 75.0362 74.5293" stroke="#1F1F1F" stroke-width="0.267797" stroke-linecap="round" stroke-linejoin="round"/>
<path d="M67.8777 76.6181C68.6704 76.2325 69.5112 75.879 70.411 75.579" stroke="#1F1F1F" stroke-width="0.267797" stroke-linecap="round" stroke-linejoin="round"/>
<path d="M63.5055 79.5533C64.3624 78.7927 65.3158 78.075 66.387 77.4323" stroke="#1F1F1F" stroke-width="0.267797" stroke-linecap="round" stroke-linejoin="round"/>
<path d="M60.3251 83.1739C60.9357 82.2902 61.6373 81.4118 62.4407 80.5763" stroke="#1F1F1F" stroke-width="0.267797" stroke-linecap="round" stroke-linejoin="round"/>
<path d="M57.807 87.9834C57.9302 87.6674 58.0641 87.3407 58.2087 87.0086C58.6265 86.0553 59.1353 85.0537 59.7566 84.0468" stroke="#1F1F1F" stroke-width="0.267797" stroke-linecap="round" stroke-linejoin="round"/>
<path d="M56.3988 93.4465C56.3988 93.4465 56.4792 92.5628 56.8112 91.1702C56.8969 90.8167 56.9987 90.4365 57.1165 90.024" stroke="#1F1F1F" stroke-width="0.267797" stroke-linecap="round" stroke-linejoin="round"/>
<path d="M74.1873 76.0984C75.5852 75.595 77.1116 75.1933 78.7719 74.9094" stroke="#1F1F1F" stroke-width="0.267797" stroke-linecap="round" stroke-linejoin="round"/>
<path d="M70.2385 77.9626C71.1758 77.4003 72.1934 76.8861 73.2914 76.4415" stroke="#1F1F1F" stroke-width="0.267797" stroke-linecap="round" stroke-linejoin="round"/>
<path d="M64.9458 82.4614C65.4439 81.8776 65.9795 81.3045 66.5633 80.7529C66.7722 80.5547 66.9864 80.3619 67.206 80.1691C67.8809 79.5799 68.6146 79.0176 69.4019 78.4927" stroke="#1F1F1F" stroke-width="0.267797" stroke-linecap="round" stroke-linejoin="round"/>
<path d="M62.0396 86.8052C62.1681 86.5588 62.3074 86.3071 62.4466 86.0608C62.9501 85.1717 63.5285 84.2826 64.1819 83.4149" stroke="#1F1F1F" stroke-width="0.267797" stroke-linecap="round" stroke-linejoin="round"/>
<path d="M59.8807 92.3164C60.1057 91.513 60.3789 90.656 60.7163 89.767C60.9198 89.2367 61.1394 88.6958 61.3911 88.1441" stroke="#1F1F1F" stroke-width="0.267797" stroke-linecap="round" stroke-linejoin="round"/>
<path d="M58.9281 97.7525C58.9281 97.7525 58.9924 95.9261 59.6244 93.2963" stroke="#1F1F1F" stroke-width="0.267797" stroke-linecap="round" stroke-linejoin="round"/>
<path d="M76.8738 76.8057C77.3933 76.5754 77.9342 76.3665 78.4913 76.1736" stroke="#1F1F1F" stroke-width="0.267797" stroke-linecap="round" stroke-linejoin="round"/>
<path d="M74.0782 78.3052C74.7585 77.8714 75.4762 77.4643 76.2421 77.1001" stroke="#1F1F1F" stroke-width="0.267797" stroke-linecap="round" stroke-linejoin="round"/>
<path d="M70.6876 80.994C71.4696 80.2388 72.3319 79.5158 73.2745 78.8463" stroke="#1F1F1F" stroke-width="0.267797" stroke-linecap="round" stroke-linejoin="round"/>
<path d="M67.5281 84.7485C68.219 83.7416 69.0117 82.7346 69.9168 81.7706" stroke="#1F1F1F" stroke-width="0.267797" stroke-linecap="round" stroke-linejoin="round"/>
<path d="M65.7606 87.7048C66.0498 87.1478 66.3658 86.58 66.7193 86.007" stroke="#1F1F1F" stroke-width="0.267797" stroke-linecap="round" stroke-linejoin="round"/>
<path d="M64.1503 91.3631C64.3699 90.7633 64.6323 90.0991 64.9483 89.3922" stroke="#1F1F1F" stroke-width="0.267797" stroke-linecap="round" stroke-linejoin="round"/>
<path d="M63.2008 94.5604C63.2008 94.5604 63.3561 93.757 63.7685 92.4716" stroke="#1F1F1F" stroke-width="0.267797" stroke-linecap="round" stroke-linejoin="round"/>
<path d="M105.101 59.6456C105.004 59.6456 104.865 59.6938 104.704 59.7741L104.747 59.7313C104.795 59.4849 105.095 59.0564 104.415 58.5851C104.249 58.4726 104.072 58.4405 103.885 58.4619L103.896 58.4512C103.992 58.012 103.842 57.5836 103.221 57.4068C103.06 57.3586 102.894 57.3586 102.723 57.3854L102.76 57.3533C102.803 57.139 102.782 56.9301 102.637 56.7641C102.203 56.2821 101.544 56.1214 100.302 56.8444C98.9896 57.6103 98.3309 58.6387 98.6254 59.4689C98.8825 60.1919 99.4503 60.1169 99.5949 60.0901C99.4878 60.4276 99.5145 60.7596 99.7127 61.0489C100.093 61.6005 100.709 61.2685 100.709 61.2685L100.752 61.231C100.607 61.5523 100.575 61.8576 100.757 62.104C101.132 62.6074 101.534 62.586 101.78 62.5164H101.785C101.737 62.6235 101.716 62.7253 101.732 62.7949C101.893 63.4698 102.573 63.5126 102.573 63.5126C103.483 63.5769 105.315 61.9808 105.733 61.0703C106.151 60.1598 105.792 59.6403 105.111 59.6349L105.101 59.6456Z" fill="#1F1F1F"/>
<path d="M99.565 60.0958C99.565 60.0958 98.9062 60.31 98.6117 59.4798C98.3171 58.6497 98.9758 57.6213 100.288 56.8554C101.531 56.1324 102.189 56.293 102.623 56.7751C102.768 56.9358 102.789 57.15 102.746 57.3642" stroke="#1F1F1F" stroke-width="0.267797" stroke-linecap="round" stroke-linejoin="round"/>
<path d="M100.699 61.2795C100.699 61.2795 100.083 61.6116 99.7026 61.0599C99.3223 60.5082 99.558 59.8013 100.179 59.2014C100.801 58.6015 102.145 57.1126 103.211 57.4179C103.832 57.5946 103.982 58.0231 103.886 58.4623" stroke="#1F1F1F" stroke-width="0.267797" stroke-linecap="round" stroke-linejoin="round"/>
<path d="M101.772 62.5274C101.531 62.5971 101.124 62.6185 100.749 62.115C100.192 61.3705 101.595 60.0583 102.184 59.5549C102.774 59.0514 103.727 58.1141 104.407 58.5908C105.087 59.0675 104.793 59.4906 104.739 59.737" stroke="#1F1F1F" stroke-width="0.267797" stroke-linecap="round" stroke-linejoin="round"/>
<path d="M102.564 63.5235C102.564 63.5235 101.884 63.4806 101.723 62.8058C101.562 62.1309 104.385 59.6404 105.097 59.6458C105.777 59.6458 106.131 60.1706 105.718 61.0811C105.306 61.9917 103.469 63.5877 102.558 63.5235H102.564Z" stroke="#1F1F1F" stroke-width="0.267797" stroke-linecap="round" stroke-linejoin="round"/>
<path d="M137.242 58.7187L133.68 56.7423L125.068 69.2913L124.87 69.1467L118.159 63.8389L110.178 70.8445C110.178 70.8445 114.838 85.8626 125.839 85.643C136.84 85.4234 143.83 77.0038 145.013 72.8316C146.197 68.6593 137.242 58.7187 137.242 58.7187Z" fill="white"/>
<path d="M117.193 77.9896C117.193 77.3897 116.706 76.9023 116.106 76.9023H115.929V76.7256C115.929 76.1257 115.442 75.6383 114.842 75.6383C114.242 75.6383 113.755 76.1257 113.755 76.7256V76.9023H113.578C113.391 76.9023 113.219 76.9559 113.064 77.0362C113.701 78.0967 114.457 79.1839 115.324 80.2176C115.683 80.0409 115.929 79.6767 115.929 79.2482V79.0715H116.106C116.706 79.0715 117.193 78.5841 117.193 77.9842V77.9896Z" fill="#1F1F1F"/>
<path d="M114.071 77.9898C114.071 78.4182 114.42 78.7664 114.848 78.7664C115.276 78.7664 115.625 78.4182 115.625 77.9898C115.625 77.5613 115.276 77.2131 114.848 77.2131C114.42 77.2131 114.071 77.5613 114.071 77.9898Z" fill="white"/>
<path d="M118.037 67.728H118.214V67.5513C118.214 66.9514 118.701 66.4641 119.301 66.4641C119.901 66.4641 120.388 66.9514 120.388 67.5513V67.728H120.565C121.165 67.728 121.652 68.2154 121.652 68.8153C121.652 69.4152 121.165 69.9026 120.565 69.9026H120.388V70.0793C120.388 70.6792 119.901 71.1666 119.301 71.1666C118.701 71.1666 118.214 70.6792 118.214 70.0793V69.9026H118.037C117.437 69.9026 116.95 69.4152 116.95 68.8153C116.95 68.2154 117.437 67.728 118.037 67.728Z" fill="#1F1F1F"/>
<path d="M118.528 68.8154C118.528 69.2439 118.876 69.592 119.305 69.592C119.733 69.592 120.081 69.2439 120.081 68.8154C120.081 68.3869 119.733 68.0388 119.305 68.0388C118.876 68.0388 118.528 68.3869 118.528 68.8154Z" fill="white"/>
<path d="M122.298 74.0423H122.475V73.8655C122.475 73.2656 122.962 72.7783 123.562 72.7783C124.162 72.7783 124.649 73.2656 124.649 73.8655V74.0423H124.826C125.426 74.0423 125.913 74.5297 125.913 75.1295C125.913 75.7294 125.426 76.2168 124.826 76.2168H124.649V76.3935C124.649 76.9934 124.162 77.4808 123.562 77.4808C122.962 77.4808 122.475 76.9934 122.475 76.3935V76.2168H122.298C121.698 76.2168 121.211 75.7294 121.211 75.1295C121.211 74.5297 121.698 74.0423 122.298 74.0423Z" fill="#1F1F1F"/>
<path d="M122.789 75.1296C122.789 75.5581 123.137 75.9062 123.566 75.9062C123.994 75.9062 124.342 75.5581 124.342 75.1296C124.342 74.7012 123.994 74.353 123.566 74.353C123.137 74.353 122.789 74.7012 122.789 75.1296Z" fill="white"/>
<path d="M128.119 79.8963H128.296V79.7195C128.296 79.1197 128.783 78.6323 129.383 78.6323C129.983 78.6323 130.47 79.1197 130.47 79.7195V79.8963H130.647C131.247 79.8963 131.734 80.3836 131.734 80.9835C131.734 81.5834 131.247 82.0708 130.647 82.0708H130.47V82.2475C130.47 82.8474 129.983 83.3348 129.383 83.3348C128.783 83.3348 128.296 82.8474 128.296 82.2475V82.0708H128.119C127.519 82.0708 127.031 81.5834 127.031 80.9835C127.031 80.3836 127.519 79.8963 128.119 79.8963Z" fill="#1F1F1F"/>
<path d="M128.61 80.9836C128.61 81.4121 128.958 81.7603 129.386 81.7603C129.815 81.7603 130.163 81.4121 130.163 80.9836C130.163 80.5552 129.815 80.207 129.386 80.207C128.958 80.207 128.61 80.5552 128.61 80.9836Z" fill="white"/>
<path d="M122.297 85.1506C122.307 85.0917 122.313 85.0328 122.313 84.9685V84.7918H122.489C123.089 84.7918 123.577 84.3044 123.577 83.7045C123.577 83.1047 123.089 82.6173 122.489 82.6173H122.313V82.4405C122.313 81.8407 121.825 81.3533 121.225 81.3533C120.626 81.3533 120.138 81.8407 120.138 82.4405V82.6173H119.961C119.426 82.6173 118.987 83.0029 118.896 83.5171C119.929 84.2133 121.059 84.7811 122.291 85.1506H122.297Z" fill="#1F1F1F"/>
<path d="M120.456 83.699C120.456 84.1275 120.804 84.4756 121.233 84.4756C121.661 84.4756 122.009 84.1275 122.009 83.699C122.009 83.2705 121.661 82.9224 121.233 82.9224C120.804 82.9224 120.456 83.2705 120.456 83.699Z" fill="white"/>
<path d="M129.387 70.8554H129.564V70.6787C129.564 70.0788 130.051 69.5914 130.651 69.5914C131.251 69.5914 131.739 70.0788 131.739 70.6787V70.8554H131.915C132.515 70.8554 133.003 71.3428 133.003 71.9427C133.003 72.5425 132.515 73.0299 131.915 73.0299H131.739V73.2067C131.739 73.8066 131.251 74.2939 130.651 74.2939C130.051 74.2939 129.564 73.8066 129.564 73.2067V73.0299H129.387C128.787 73.0299 128.3 72.5425 128.3 71.9427C128.3 71.3428 128.787 70.8554 129.387 70.8554Z" fill="#1F1F1F"/>
<path d="M129.875 71.9372C129.875 72.3657 130.223 72.7138 130.652 72.7138C131.08 72.7138 131.428 72.3657 131.428 71.9372C131.428 71.5087 131.08 71.1606 130.652 71.1606C130.223 71.1606 129.875 71.5087 129.875 71.9372Z" fill="white"/>
<path d="M128.048 67.4544C128.648 67.4544 129.136 66.967 129.136 66.3672V66.1904H129.312C129.912 66.1904 130.4 65.703 130.4 65.1032C130.4 64.5033 129.912 64.0159 129.312 64.0159H129.136V63.8392C129.136 63.7106 129.109 63.5821 129.066 63.4696L126.977 66.5118C127.047 67.042 127.497 67.4544 128.048 67.4544Z" fill="#1F1F1F"/>
<path d="M128.048 65.8799C128.477 65.8799 128.825 65.5318 128.825 65.1033C128.825 64.8087 128.654 64.5516 128.413 64.4231L127.545 65.6871C127.679 65.8049 127.856 65.8799 128.054 65.8799H128.048Z" fill="white"/>
<path d="M126.455 70.3305L124.87 69.1415L118.159 63.8337L110.178 70.8393C110.178 70.8393 114.838 85.8574 125.839 85.6378C136.84 85.4182 143.83 76.9986 145.013 72.8264C146.197 68.6541 137.242 58.7135 137.242 58.7135L133.68 56.7371L125.068 69.2861" stroke="#1F1F1F" stroke-width="0.267797" stroke-linecap="round" stroke-linejoin="round"/>
<path d="M120.89 65.9975L118.158 63.8337L110.178 70.8393C110.178 70.8393 110.655 72.3711 111.656 74.4439L120.89 65.9922V65.9975Z" fill="white" stroke="#1F1F1F" stroke-width="0.267797" stroke-linecap="round" stroke-linejoin="round"/>
<path d="M111.268 69.9073L113.266 72.9763" stroke="#1F1F1F" stroke-width="0.267797" stroke-linecap="round" stroke-linejoin="round"/>
<path d="M112.586 68.7293L114.836 71.5412" stroke="#1F1F1F" stroke-width="0.267797" stroke-linecap="round" stroke-linejoin="round"/>
<path d="M114.182 67.3688L116.469 70.0896" stroke="#1F1F1F" stroke-width="0.267797" stroke-linecap="round" stroke-linejoin="round"/>
<path d="M115.715 65.9921L118.04 68.6272" stroke="#1F1F1F" stroke-width="0.267797" stroke-linecap="round" stroke-linejoin="round"/>
<path d="M117.208 64.6854L119.688 67.1277" stroke="#1F1F1F" stroke-width="0.267797" stroke-linecap="round" stroke-linejoin="round"/>
<path d="M113.975 96.8528L122.063 90.6827L126.294 96.6064L118.073 102.739L113.975 96.8528Z" fill="white" stroke="#1F1F1F" stroke-width="0.267797" stroke-linecap="round" stroke-linejoin="round"/>
<path d="M115.438 95.353C115.438 95.353 113.724 96.3814 110.135 97.8542C106.622 99.3003 104.972 99.2039 104.828 100.168C104.683 101.132 107.382 101.368 109.027 101.127C109.027 101.127 105.808 101.802 104.056 101.946C102.337 102.091 101.935 103.151 102.675 103.698C102.717 103.73 102.782 103.756 102.846 103.783H102.825C102.825 103.783 102.53 103.848 102.407 104.062C102.139 104.522 102.385 105.347 103.162 105.47C103.237 105.481 103.317 105.492 103.403 105.497L103.339 105.524C103.001 105.669 102.664 106.868 103.789 106.97C103.874 106.975 104.003 106.97 104.142 106.97L104.051 107.045C103.762 107.859 104.308 109.295 110.387 107.57C117.077 105.669 120.023 101.759 120.023 101.759L115.432 95.3637L115.438 95.353Z" fill="#1F1F1F"/>
<path d="M109.273 106.488C109.273 106.488 104.737 107.045 103.794 106.965C102.669 106.863 103.007 105.663 103.344 105.519" stroke="#1F1F1F" stroke-width="0.267797" stroke-linecap="round" stroke-linejoin="round"/>
<path d="M108.739 105.09C108.739 105.09 104.679 105.701 103.169 105.465C102.392 105.342 102.146 104.517 102.414 104.057C102.537 103.848 102.832 103.778 102.832 103.778" stroke="#1F1F1F" stroke-width="0.267797" stroke-linecap="round" stroke-linejoin="round"/>
<path d="M108.401 103.441C108.401 103.441 103.517 104.319 102.676 103.698C101.937 103.152 102.338 102.091 104.057 101.946C105.803 101.802 109.028 101.127 109.028 101.127C107.389 101.368 104.684 101.127 104.829 100.168C104.973 99.2095 106.58 99.1935 110.136 97.8545C111.406 97.3778 115.439 95.3533 115.439 95.3533L120.029 101.748C120.029 101.748 117.083 105.658 110.394 107.559C104.315 109.289 103.768 107.849 104.057 107.035" stroke="#1F1F1F" stroke-width="0.267797" stroke-linecap="round" stroke-linejoin="round"/>
<path d="M114.516 96.4406L118.544 102.295" stroke="#1F1F1F" stroke-width="0.267797" stroke-linecap="round" stroke-linejoin="round"/>
<path d="M163.379 72.9436C158.393 63.1958 151.333 57.2454 146.443 54.171C143.128 52.0876 140.809 51.4234 140.809 51.4234L140.006 51.2146L139.031 51.161C139.031 51.161 137.424 51.2092 136.337 51.7555C135.319 52.2643 134.189 53.2552 133.68 53.8925C133.386 54.2621 132.872 55.66 132.872 55.66C132.872 55.66 132.679 56.0349 132.641 56.5384L132.491 56.774L130.579 58.1237C130.52 60.4911 130.922 64.3206 131.441 68.5303C130.756 73.2596 129.803 77.9514 128.571 79.9974C125.657 84.8445 120.376 89.3382 120.376 89.3382L127.441 98.3308C127.441 98.3308 136.937 93.1998 142.394 87.9403L142.801 88.3955L163.379 72.9436Z" fill="white"/>
<path d="M128.365 86.0449C128.365 85.445 127.878 84.9576 127.278 84.9576H127.101V84.7809C127.101 84.181 126.614 83.6936 126.014 83.6936C125.971 83.6936 125.933 83.699 125.89 83.7043C125.569 84.09 125.248 84.4595 124.932 84.8237V84.9576H124.814C124.428 85.3861 124.048 85.7931 123.684 86.1788C123.748 86.7144 124.203 87.1321 124.755 87.1321H124.932V87.3089C124.932 87.9087 125.419 88.3961 126.019 88.3961C126.619 88.3961 127.106 87.9087 127.106 87.3089V87.1321H127.283C127.883 87.1321 128.37 86.6447 128.37 86.0449H128.365Z" fill="#1F1F1F"/>
<path d="M125.244 86.045C125.244 86.4735 125.593 86.8216 126.021 86.8216C126.449 86.8216 126.798 86.4735 126.798 86.045C126.798 85.6165 126.449 85.2684 126.021 85.2684C125.593 85.2684 125.244 85.6165 125.244 86.045Z" fill="white"/>
<path d="M133.005 95.0267C132.807 94.8285 132.539 94.7107 132.239 94.7107H132.063V94.5339C132.063 93.934 131.575 93.4467 130.975 93.4467C130.376 93.4467 129.888 93.934 129.888 94.5339V94.7107H129.711C129.112 94.7107 128.624 95.1981 128.624 95.7979C128.624 96.3978 129.112 96.8852 129.711 96.8852H129.888V96.9441C130.772 96.4246 131.843 95.7765 133.005 95.032V95.0267Z" fill="#1F1F1F"/>
<path d="M130.199 95.7924C130.199 96.2209 130.547 96.569 130.976 96.569C131.404 96.569 131.752 96.2209 131.752 95.7924C131.752 95.3639 131.404 95.0158 130.976 95.0158C130.547 95.0158 130.199 95.3639 130.199 95.7924Z" fill="white"/>
<path d="M133.959 85.8893H134.135V85.7125C134.135 85.1127 134.623 84.6252 135.223 84.6252C135.823 84.6252 136.31 85.1127 136.31 85.7125V85.8893H136.487C137.087 85.8893 137.574 86.3766 137.574 86.9765C137.574 87.5764 137.087 88.0638 136.487 88.0638H136.31V88.2405C136.31 88.8404 135.823 89.3278 135.223 89.3278C134.623 89.3278 134.135 88.8404 134.135 88.2405V88.0638H133.959C133.359 88.0638 132.871 87.5764 132.871 86.9765C132.871 86.3766 133.359 85.8893 133.959 85.8893Z" fill="#1F1F1F"/>
<path d="M134.446 86.9708C134.446 87.3993 134.795 87.7474 135.223 87.7474C135.652 87.7474 136 87.3993 136 86.9708C136 86.5423 135.652 86.1942 135.223 86.1942C134.795 86.1942 134.446 86.5423 134.446 86.9708Z" fill="white"/>
<path d="M130.782 77.6254H130.959V77.8022C130.959 78.402 131.446 78.8894 132.046 78.8894C132.646 78.8894 133.133 78.402 133.133 77.8022V77.6254H133.31C133.91 77.6254 134.397 77.138 134.397 76.5382C134.397 75.9383 133.91 75.4509 133.31 75.4509H133.133V75.2741C133.133 74.6743 132.646 74.1869 132.046 74.1869C131.446 74.1869 130.959 74.6743 130.959 75.2741V75.4509H130.782C130.525 75.4509 130.289 75.5419 130.107 75.6919C130 76.1257 129.887 76.5382 129.775 76.9345C129.936 77.3362 130.327 77.6201 130.782 77.6201V77.6254Z" fill="#1F1F1F"/>
<path d="M131.268 76.5434C131.268 76.9719 131.616 77.32 132.045 77.32C132.473 77.32 132.821 76.9719 132.821 76.5434C132.821 76.1149 132.473 75.7668 132.045 75.7668C131.616 75.7668 131.268 76.1149 131.268 76.5434Z" fill="white"/>
<path d="M145.51 84.2558L147.556 81.2993C147.357 81.0154 147.036 80.8333 146.667 80.8333H146.49V80.6566C146.49 80.0567 146.002 79.5693 145.403 79.5693C144.803 79.5693 144.315 80.0567 144.315 80.6566V80.8333H144.139C143.539 80.8333 143.051 81.3207 143.051 81.9206C143.051 82.5205 143.539 83.0078 144.139 83.0078H144.315V83.1846C144.315 83.7845 144.803 84.2719 145.403 84.2719C145.44 84.2719 145.478 84.2665 145.515 84.2611L145.51 84.2558Z" fill="#1F1F1F"/>
<path d="M145.396 82.6973C145.825 82.6973 146.173 82.3496 146.173 81.9207C146.173 81.4918 145.825 81.1441 145.396 81.1441C144.968 81.1441 144.62 81.4918 144.62 81.9207C144.62 82.3496 144.968 82.6973 145.396 82.6973Z" fill="white"/>
<path d="M140.393 71.3157H140.57V71.139C140.57 70.5391 141.057 70.0517 141.657 70.0517C142.257 70.0517 142.745 70.5391 142.745 71.139V71.3157H142.921C143.521 71.3157 144.009 71.8031 144.009 72.403C144.009 73.0028 143.521 73.4902 142.921 73.4902H142.745V73.667C142.745 74.2668 142.257 74.7542 141.657 74.7542C141.057 74.7542 140.57 74.2668 140.57 73.667V73.4902H140.393C139.793 73.4902 139.306 73.0028 139.306 72.403C139.306 71.8031 139.793 71.3157 140.393 71.3157Z" fill="#1F1F1F"/>
<path d="M140.881 72.3975C140.881 72.8259 141.229 73.1741 141.658 73.1741C142.086 73.1741 142.434 72.8259 142.434 72.3975C142.434 71.969 142.086 71.6208 141.658 71.6208C141.229 71.6208 140.881 71.969 140.881 72.3975Z" fill="white"/>
<path d="M134.649 64.8408H134.472V64.664C134.472 64.0642 133.985 63.5768 133.385 63.5768C132.785 63.5768 132.298 64.0642 132.298 64.664V64.8408H132.121C132.03 64.8408 131.944 64.8568 131.859 64.8783L131.628 66.8868C131.778 66.9617 131.944 67.0099 132.121 67.0099H132.298V67.1867C132.298 67.7865 132.785 68.2739 133.385 68.2739C133.985 68.2739 134.472 67.7865 134.472 67.1867V67.0099H134.649C135.249 67.0099 135.736 66.5226 135.736 65.9227C135.736 65.3228 135.249 64.8354 134.649 64.8354V64.8408Z" fill="#1F1F1F"/>
<path d="M133.385 66.699C133.814 66.699 134.162 66.3513 134.162 65.9224C134.162 65.4935 133.814 65.1458 133.385 65.1458C132.956 65.1458 132.608 65.4935 132.608 65.9224C132.608 66.3513 132.956 66.699 133.385 66.699Z" fill="white"/>
<path d="M140.118 59.5542H140.295V59.3774C140.295 58.7776 140.782 58.2902 141.382 58.2902C141.982 58.2902 142.47 58.7776 142.47 59.3774V59.5542H142.646C143.246 59.5542 143.734 60.0415 143.734 60.6414C143.734 61.2413 143.246 61.7287 142.646 61.7287H142.47V61.9054C142.47 62.5053 141.982 62.9927 141.382 62.9927C140.782 62.9927 140.295 62.5053 140.295 61.9054V61.7287H140.118C139.518 61.7287 139.031 61.2413 139.031 60.6414C139.031 60.0415 139.518 59.5542 140.118 59.5542Z" fill="#1F1F1F"/>
<path d="M141.383 61.4181C141.811 61.4181 142.159 61.0704 142.159 60.6415C142.159 60.2126 141.811 59.8649 141.383 59.8649C140.954 59.8649 140.606 60.2126 140.606 60.6415C140.606 61.0704 140.954 61.4181 141.383 61.4181Z" fill="white"/>
<path d="M149.688 64.8407H149.865V64.664C149.865 64.0641 150.353 63.5767 150.952 63.5767C151.552 63.5767 152.04 64.0641 152.04 64.664V64.8407H152.216C152.816 64.8407 153.304 65.3281 153.304 65.928C153.304 66.5279 152.816 67.0152 152.216 67.0152H152.04V67.192C152.04 67.7918 151.552 68.2792 150.952 68.2792C150.353 68.2792 149.865 67.7918 149.865 67.192V67.0152H149.688C149.089 67.0152 148.601 66.5279 148.601 65.928C148.601 65.3281 149.089 64.8407 149.688 64.8407Z" fill="#1F1F1F"/>
<path d="M150.179 65.9226C150.179 66.3511 150.527 66.6992 150.956 66.6992C151.384 66.6992 151.733 66.3511 151.733 65.9226C151.733 65.4941 151.384 65.146 150.956 65.146C150.527 65.146 150.179 65.4941 150.179 65.9226Z" fill="white"/>
<path d="M148.445 58.3333H148.622V58.5101C148.622 59.11 149.109 59.5973 149.709 59.5973C150.309 59.5973 150.796 59.11 150.796 58.5101V58.3333H150.973C151.246 58.3333 151.492 58.2316 151.685 58.0655C150.646 57.1765 149.634 56.3838 148.675 55.6875C148.648 55.7839 148.627 55.8803 148.627 55.9821V56.1588H148.45C147.85 56.1588 147.363 56.6462 147.363 57.2461C147.363 57.8459 147.85 58.3333 148.45 58.3333H148.445Z" fill="#1F1F1F"/>
<path d="M149.709 58.0229C150.138 58.0229 150.486 57.6748 150.486 57.2463C150.486 57.1713 150.475 57.1017 150.454 57.0374C150.207 56.8393 149.972 56.6571 149.731 56.475C149.725 56.475 149.72 56.475 149.715 56.475C149.286 56.475 148.938 56.8232 148.938 57.2517C148.938 57.6801 149.286 58.0283 149.715 58.0283L149.709 58.0229Z" fill="white"/>
<path d="M133.845 53.7057C134.032 53.8557 134.262 53.9521 134.525 53.9521H134.702V54.1289C134.702 54.7287 135.189 55.2161 135.789 55.2161C136.389 55.2161 136.876 54.7287 136.876 54.1289V53.9521H137.053C137.653 53.9521 138.14 53.4647 138.14 52.8648C138.14 52.265 137.653 51.7776 137.053 51.7776H136.876V51.6009C136.876 51.6009 136.876 51.558 136.871 51.5419C136.689 51.6062 136.507 51.6758 136.341 51.7562C135.762 52.0454 135.002 52.5006 134.487 52.9452C134.177 53.213 134.054 53.4701 133.845 53.7057Z" fill="#1F1F1F"/>
<path d="M135.786 53.6415C136.214 53.6415 136.562 53.2934 136.562 52.8649C136.562 52.4364 136.214 52.0883 135.786 52.0883C135.775 52.0883 135.764 52.0883 135.754 52.0883C135.518 52.2382 135.288 52.4043 135.063 52.5756C135.025 52.6613 135.009 52.7578 135.009 52.8595C135.009 53.288 135.357 53.6361 135.786 53.6361V53.6415Z" fill="white"/>
<path d="M159.085 69.9021H159.261V70.0789C159.261 70.6787 159.749 71.1661 160.349 71.1661C160.949 71.1661 161.436 70.6787 161.436 70.0789V69.9021H161.613C161.613 69.9021 161.65 69.9021 161.666 69.8968C161.002 68.7934 160.317 67.7544 159.61 66.7635C159.395 66.9617 159.261 67.2402 159.261 67.5562V67.733H159.085C158.485 67.733 157.997 68.2204 157.997 68.8202C157.997 69.4201 158.485 69.9075 159.085 69.9075V69.9021Z" fill="#1F1F1F"/>
<path d="M160.483 68.0543C160.44 68.0489 160.397 68.0382 160.349 68.0382C159.921 68.0382 159.573 68.3863 159.573 68.8148C159.573 69.2433 159.921 69.5914 160.349 69.5914C160.708 69.5914 161.008 69.345 161.094 69.013L160.483 68.0543Z" fill="white"/>
<path d="M156.264 76.838H156.087V76.6612C156.087 76.0614 155.6 75.574 155 75.574C154.4 75.574 153.913 76.0614 153.913 76.6612V76.838H153.736C153.136 76.838 152.649 77.3254 152.649 77.9252C152.649 78.5251 153.136 79.0125 153.736 79.0125H153.913V79.1892C153.913 79.4463 154.009 79.682 154.159 79.8695L157.271 77.5343C157.116 77.1272 156.725 76.8433 156.264 76.8433V76.838Z" fill="#1F1F1F"/>
<path d="M154.224 77.9254C154.224 78.3538 154.572 78.702 155 78.702C155.429 78.702 155.777 78.3538 155.777 77.9254C155.777 77.4969 155.429 77.1487 155 77.1487C154.572 77.1487 154.224 77.4969 154.224 77.9254Z" fill="white"/>
<path d="M147.363 83.6936C146.763 83.6936 146.276 84.181 146.276 84.7809V84.9576H146.099C145.499 84.9576 145.012 85.445 145.012 86.0449C145.012 86.2538 145.076 86.4519 145.178 86.6179L148.311 84.2667C148.129 83.9293 147.775 83.699 147.363 83.699V83.6936Z" fill="#1F1F1F"/>
<path d="M132.269 60.4542C132.135 60.3953 131.99 60.3631 131.84 60.3631H131.664V60.1864C131.664 59.5865 131.182 59.1045 130.582 59.0991C130.609 60.3899 130.726 61.9753 130.903 63.7427C131.342 63.6035 131.664 63.1964 131.664 62.7144V62.5376H131.84C131.926 62.5376 132.012 62.5269 132.092 62.5055L132.274 60.4542H132.269Z" fill="#1F1F1F"/>
<path d="M130.757 62.2055C131.094 62.1251 131.346 61.8199 131.346 61.4557C131.346 61.054 131.035 60.7272 130.644 60.6898C130.671 61.1718 130.709 61.6806 130.757 62.2108V62.2055Z" fill="white"/>
<path d="M131.424 68.4609C130.942 64.5618 130.524 60.4163 130.578 58.1239L132.602 56.7153" stroke="#1F1F1F" stroke-width="0.267797" stroke-linecap="round" stroke-linejoin="round"/>
<path d="M151.044 71.0053C150.16 77.4378 149.078 79.4677 144.628 85.461C140.177 91.4543 127.44 98.3313 127.44 98.3313L120.376 89.3387C120.376 89.3387 125.657 84.8451 128.57 79.9979C129.877 77.8181 130.799 73.0834 131.414 68.5255C132.17 62.9393 132.47 57.6208 132.47 57.6208C132.47 57.6208 132.695 54.3323 134.687 52.7737C137.965 50.2082 140.809 51.424 140.809 51.424C140.809 51.424 154.129 55.4463 163.379 72.9442L142.801 88.396L142.432 87.9783" stroke="#1F1F1F" stroke-width="0.267797" stroke-linecap="round" stroke-linejoin="round"/>
<path d="M127.447 98.3366C127.447 98.3366 128.706 97.6564 130.575 96.537L122.905 86.9766C121.459 88.4281 120.383 89.344 120.383 89.344L127.447 98.3366Z" fill="white" stroke="#1F1F1F" stroke-width="0.267797" stroke-linecap="round" stroke-linejoin="round"/>
<path d="M129.487 95.1818L126.606 97.2653" stroke="#1F1F1F" stroke-width="0.267797" stroke-linecap="round" stroke-linejoin="round"/>
<path d="M125.563 95.9374L128.391 93.8111" stroke="#1F1F1F" stroke-width="0.267797" stroke-linecap="round" stroke-linejoin="round"/>
<path d="M127.202 92.3328L124.481 94.5608" stroke="#1F1F1F" stroke-width="0.267797" stroke-linecap="round" stroke-linejoin="round"/>
<path d="M123.347 93.1091L126.025 90.8542" stroke="#1F1F1F" stroke-width="0.267797" stroke-linecap="round" stroke-linejoin="round"/>
<path d="M124.873 89.4246L122.248 91.7222" stroke="#1F1F1F" stroke-width="0.267797" stroke-linecap="round" stroke-linejoin="round"/>
<path d="M121.101 90.2545L123.731 87.9997" stroke="#1F1F1F" stroke-width="0.267797" stroke-linecap="round" stroke-linejoin="round"/>
<path d="M54.3881 125.181C54.3881 119.771 46.8095 118.025 46.8095 118.025C47.1683 110.607 49.1554 105.289 51.4102 98.144C53.6651 90.9992 50.0177 82.4725 50.0177 82.4725L48.5448 81.5298L32.7769 81.1817L30.6934 81.3156C30.6934 81.3156 22.9862 93.5968 16.8751 98.9152C10.7693 104.239 9.28573 113.312 11.2889 118.722C11.2889 118.722 9.45712 117.559 8.17705 113.923C6.89698 110.286 3.64056 109.59 1.31608 113.194C-1.00839 116.799 1.08578 124.479 9.22681 125.175C16.3288 125.786 35.3692 125.331 40.1252 125.208L54.3881 125.175V125.181Z" fill="white"/>
<path d="M37.4904 121.046C37.4904 121.046 40.6289 121.073 41.2127 125.175" stroke="#1F1F1F" stroke-width="0.267797" stroke-linecap="round" stroke-linejoin="round"/>
<path d="M40.1199 125.208L54.3881 125.176C54.3881 119.766 46.8095 118.02 46.8095 118.02C47.1683 110.602 49.1554 105.284 51.4102 98.1388C53.6651 90.9939 50.0177 82.4673 50.0177 82.4673L48.5448 81.5246L32.7769 81.1765L30.6934 81.3104C30.6934 81.3104 22.9862 93.5916 16.8751 98.91C10.7693 104.234 9.28573 113.307 11.2889 118.716C11.2889 118.716 9.45712 117.554 8.17705 113.917C6.89698 110.281 3.64056 109.584 1.31608 113.189C-1.00839 116.794 1.08578 124.474 9.22681 125.17C17.3678 125.866 41.2179 125.17 41.2179 125.17C41.2179 125.17 43.1942 116.563 31.9092 117.843C31.9092 117.843 35.7494 111.389 33.3071 106.242" stroke="#1F1F1F" stroke-width="0.267797" stroke-linecap="round" stroke-linejoin="round"/>
<path d="M39.9491 119.761V112.15" stroke="#1F1F1F" stroke-width="0.267797" stroke-linecap="round" stroke-linejoin="round"/>
<path d="M49.6461 122.326C49.6461 122.326 53.4274 122.674 54.3861 125.176" stroke="#1F1F1F" stroke-width="0.267797" stroke-linecap="round" stroke-linejoin="round"/>
<path d="M50.286 120.468C50.286 120.468 52.4552 121.025 53.7245 122.589" stroke="#1F1F1F" stroke-width="0.267797" stroke-linecap="round" stroke-linejoin="round"/>
<path d="M37.8127 119.364C37.8127 119.364 40.1426 119.798 41.0745 121.78" stroke="#1F1F1F" stroke-width="0.267797" stroke-linecap="round" stroke-linejoin="round"/>
<path d="M43.8964 81.4281L32.7721 81.1817L30.6887 81.3156C30.6887 81.3156 22.9815 93.5968 16.8703 98.9152C10.7646 104.239 9.28096 113.312 11.2841 118.722C11.2841 118.722 9.45235 117.559 8.17228 113.923C6.89221 110.286 3.6358 109.59 1.31132 113.194C-1.01316 116.799 1.08102 124.479 9.22205 125.175C11.7233 125.39 15.7081 125.47 20.025 125.486C24.5508 122.605 31.1493 117.565 31.2671 112.605C31.4438 105.053 30.6833 103.714 29.6978 101.331C29.6978 101.331 38.5994 95.6749 41.6201 91.0849C43.2644 88.5943 43.7732 84.5774 43.8964 81.4227V81.4281Z" fill="#1F1F1F" stroke="#1F1F1F" stroke-width="0.267797" stroke-linecap="round" stroke-linejoin="round"/>
<path d="M39.3534 60.524C39.3534 60.524 43.4614 52.4044 46.0055 52.9454C48.5442 53.4863 47.1141 61.2739 47.1141 61.2739C47.1141 61.2739 43.7988 62.5218 43.6971 62.4522C43.5953 62.3825 39.3588 60.524 39.3588 60.524H39.3534Z" fill="#1F1F1F" stroke="#1F1F1F" stroke-width="0.267797" stroke-linecap="round" stroke-linejoin="round"/>
<path d="M41.6517 60.4544C41.6517 60.4544 44.2922 53.9791 45.8454 54.3433C47.3987 54.7075 46.6006 60.9257 46.6006 60.9257L41.6517 60.4598V60.4544Z" fill="white" stroke="#1F1F1F" stroke-width="0.267797" stroke-linecap="round" stroke-linejoin="round"/>
<path d="M49.8995 81.8567C49.8459 81.5247 49.8084 81.1712 49.7763 80.7855L33.1675 73.9942C33.1675 73.9942 31.7803 76.9667 30.8538 80.6463C34.3191 81.7335 40.8801 83.0832 49.9049 81.8621L49.8995 81.8567Z" fill="white" stroke="#1F1F1F" stroke-width="0.267797" stroke-miterlimit="10"/>
<path d="M46.2094 80.9462C49.9103 80.9301 52.9257 80.3945 54.5486 79.5965C57.6175 78.0915 56.4767 77.4059 56.4767 77.4059C53.8684 77.0203 53.5042 75.8313 53.5042 75.8313C55.2288 76.715 57.1569 76.0455 58.994 74.1388C60.8257 72.2374 61.1417 70.1593 59.46 69.3613C57.58 68.4722 54.4307 68.4668 54.4307 68.4668C54.2433 64.5731 51.4368 63.5983 51.4368 63.5983C51.4368 63.5983 53.5149 64.0482 53.2524 63.1109C52.99 62.179 50.3709 62.2647 50.3709 62.2647C50.3709 62.2647 54.8271 62.6878 53.2631 60.9364C51.7046 59.185 43.6332 59.8973 43.6332 59.8973C43.6332 59.8973 43.21 51.376 39.809 51.6492C36.408 51.9223 33.6818 64.1607 33.6818 64.1607C33.6818 64.1607 30.0558 64.8355 30.3022 66.1584C30.5486 67.4814 32.9534 67.7813 32.9534 67.7813C32.9534 67.7813 28.599 67.7599 28.899 69.5166C29.1989 71.2734 33.0873 71.3858 33.0873 71.3858C33.0873 71.3858 29.9327 71.3751 30.4201 72.4195C30.9128 73.4586 33.1516 73.9942 33.1516 73.9942" fill="white"/>
<path d="M46.2094 80.9462C49.9103 80.9301 52.9257 80.3945 54.5486 79.5965C57.6175 78.0915 56.4767 77.4059 56.4767 77.4059C53.8684 77.0203 53.5042 75.8313 53.5042 75.8313C55.2288 76.715 57.1569 76.0455 58.994 74.1388C60.8257 72.2374 61.1417 70.1593 59.46 69.3613C57.58 68.4722 54.4307 68.4668 54.4307 68.4668C54.2433 64.5731 51.4368 63.5983 51.4368 63.5983C51.4368 63.5983 53.5149 64.0482 53.2524 63.1109C52.99 62.179 50.3709 62.2647 50.3709 62.2647C50.3709 62.2647 54.8271 62.6878 53.2631 60.9364C51.7046 59.185 43.6332 59.8973 43.6332 59.8973C43.6332 59.8973 43.21 51.376 39.809 51.6492C36.408 51.9223 33.6818 64.1607 33.6818 64.1607C33.6818 64.1607 30.0558 64.8355 30.3022 66.1584C30.5486 67.4814 32.9534 67.7813 32.9534 67.7813C32.9534 67.7813 28.599 67.7599 28.899 69.5166C29.1989 71.2734 33.0873 71.3858 33.0873 71.3858C33.0873 71.3858 29.9327 71.3751 30.4201 72.4195C30.9128 73.4586 33.1516 73.9942 33.1516 73.9942" stroke="#1F1F1F" stroke-width="0.267797" stroke-linecap="round" stroke-linejoin="round"/>
<path d="M46.187 59.7743C44.7302 59.8064 43.6376 59.9028 43.6376 59.9028C43.6376 59.9028 43.2145 51.3815 39.8135 51.6547C36.4124 51.9278 33.6863 64.1662 33.6863 64.1662C33.6863 64.1662 29.6104 63.6038 29.4229 65.7087C29.2622 67.5565 32.9578 67.7868 32.9578 67.7868C32.9578 67.7868 28.341 67.2244 28.5981 69.6132C28.7909 71.386 33.0917 71.3913 33.0917 71.3913C33.0917 71.3913 29.514 71.0968 29.4711 72.8749C29.4229 74.8834 33.156 73.9997 33.156 73.9997C33.156 73.9997 30.8851 74.3692 30.3709 75.7029C29.8996 76.9347 31.0833 77.7863 35.3841 77.7114C42.8556 77.5721 47.4564 75.7939 48.7739 74.937C51.7251 73.0142 51.8483 69.5328 51.5108 66.7906C51.0717 63.2128 48.3883 61.0812 46.1817 59.785L46.187 59.7743Z" fill="#1F1F1F" stroke="#1F1F1F" stroke-width="0.267797" stroke-linecap="round" stroke-linejoin="round"/>
<path d="M36.6697 63.4752C36.6697 63.4752 38.4371 53.7703 40.3117 54.0059C42.1863 54.2362 43.2682 61.7881 43.2307 62.8057C43.2307 62.8057 42.438 60.2563 41.5489 60.7866C40.6545 61.3168 41.0562 63.4217 41.0562 63.4217C41.0562 63.4217 40.7456 60.9579 39.985 61.7988C39.7708 62.0345 39.7172 63.2074 39.7172 63.2074L36.6697 63.4752Z" fill="white" stroke="#1F1F1F" stroke-width="0.267797" stroke-linecap="round" stroke-linejoin="round"/>
<path d="M49.8825 70.1864C49.5023 70.7434 48.7417 70.8827 48.1847 70.5024C47.6277 70.1221 47.4884 69.3616 47.8687 68.8046C48.249 68.2476 49.0095 68.1083 49.5665 68.4886C50.1236 68.8688 50.2628 69.6294 49.8825 70.1864Z" fill="white"/>
<path d="M49.6314 66.3085C49.7279 66.812 49.0637 67.3637 48.1532 67.5297C47.2427 67.7011 46.4286 67.4279 46.3375 66.9191C46.2411 66.4157 46.9053 65.864 47.8158 65.698C48.7263 65.5266 49.5404 65.7997 49.6314 66.3085Z" fill="#1F1F1F" stroke="white" stroke-width="0.267797" stroke-miterlimit="10"/>
<path d="M59.1651 69.2329C58.8062 69.2061 58.276 68.8633 57.869 68.8044C57.5904 69.4042 58.0618 70.8236 58.7848 71.3163C59.2026 71.6055 59.9738 71.7769 60.5362 71.4342C60.804 70.2933 60.1184 69.3025 59.1651 69.2275V69.2329Z" fill="#1F1F1F"/>
<path d="M57.2261 70.684C57.2047 70.834 57.0654 70.9411 56.9155 70.925C56.7655 70.9036 56.6584 70.7644 56.6744 70.6144C56.6959 70.4644 56.8351 70.3573 56.9851 70.3734C57.1351 70.3948 57.2422 70.534 57.2261 70.684Z" fill="#1F1F1F"/>
<path d="M57.5757 72.2803C57.5543 72.4302 57.415 72.5373 57.2651 72.5213C57.1151 72.4999 57.008 72.3606 57.0241 72.2106C57.0455 72.0607 57.1847 71.9535 57.3347 71.9696C57.4847 71.991 57.5918 72.1303 57.5757 72.2803Z" fill="#1F1F1F"/>
<path d="M55.8179 71.0641C55.7965 71.2141 55.6572 71.3212 55.5073 71.3051C55.3573 71.2837 55.2502 71.1445 55.2662 70.9945C55.2877 70.8445 55.4269 70.7374 55.5769 70.7535C55.7269 70.7749 55.834 70.9142 55.8179 71.0641Z" fill="#1F1F1F"/>
<path d="M56.2846 72.5585C56.2632 72.7085 56.1239 72.8156 55.9739 72.7995C55.824 72.7781 55.7169 72.6389 55.7329 72.4889C55.7543 72.3389 55.8882 72.2318 56.0436 72.2479C56.1935 72.2693 56.3007 72.4085 56.2846 72.5585Z" fill="#1F1F1F"/>
<path d="M56.6647 71.7285C56.6433 71.8785 56.504 71.9856 56.3541 71.9695C56.2041 71.9481 56.097 71.8088 56.113 71.6589C56.1345 71.5089 56.2737 71.4018 56.4237 71.4179C56.5736 71.4393 56.6808 71.5785 56.6647 71.7285Z" fill="#1F1F1F"/>
<path d="M50.0169 82.4676C49.899 81.9641 49.8348 81.4178 49.7759 80.7858C49.7759 80.7858 45.6893 81.1072 41.5491 80.9411C37.5161 80.7751 33.5045 79.8592 31.2604 79.163C31.0568 79.8485 30.864 80.5716 30.6926 81.316C33.0278 82.4944 39.4924 84.9099 50.0222 82.4676H50.0169Z" fill="#1F1F1F" stroke="#1F1F1F" stroke-width="0.267797" stroke-linecap="round" stroke-linejoin="round"/>
</svg>
