<svg width="25" height="25" viewBox="0 0 25 25" fill="none" xmlns="http://www.w3.org/2000/svg">
<g clip-path="url(#clip0_648_103)">
<path d="M17.2539 21.1615V19.1461C17.2539 18.0771 16.8293 17.0519 16.0734 16.2959C15.3174 15.54 14.2922 15.1154 13.2232 15.1154H5.16163C4.0926 15.1154 3.06736 15.54 2.31144 16.2959C1.55553 17.0519 1.13086 18.0771 1.13086 19.1461V21.1615" stroke="#7E70DC" stroke-width="2.01538" stroke-linecap="round" stroke-linejoin="round"/>
<path d="M9.19239 11.0846C11.4185 11.0846 13.2232 9.27997 13.2232 7.05384C13.2232 4.82771 11.4185 3.02307 9.19239 3.02307C6.96626 3.02307 5.16162 4.82771 5.16162 7.05384C5.16162 9.27997 6.96626 11.0846 9.19239 11.0846Z" stroke="#7E70DC" stroke-width="2.01538" stroke-linecap="round" stroke-linejoin="round"/>
<path d="M23.2999 21.1615V19.1461C23.2993 18.253 23.002 17.3854 22.4548 16.6796C21.9077 15.9737 21.1416 15.4696 20.2769 15.2463" stroke="#7E70DC" stroke-width="2.01538" stroke-linecap="round" stroke-linejoin="round"/>
<path d="M16.2461 3.15405C17.1131 3.37605 17.8816 3.8803 18.4304 4.5873C18.9792 5.29431 19.2771 6.16386 19.2771 7.05886C19.2771 7.95386 18.9792 8.82341 18.4304 9.53042C17.8816 10.2374 17.1131 10.7417 16.2461 10.9637" stroke="#7E70DC" stroke-width="2.01538" stroke-linecap="round" stroke-linejoin="round"/>
</g>
<defs>
<clipPath id="clip0_648_103">
<rect width="24.1846" height="24.1846" fill="white" transform="translate(0.123047)"/>
</clipPath>
</defs>
</svg>
