<svg width="159" height="121" viewBox="0 0 159 121" fill="none" xmlns="http://www.w3.org/2000/svg">
<rect x="0.5" y="0.5" width="158" height="120" rx="15.5121" fill="#FFFEF9"/>
<path d="M25 92.0625L23.1258 93.9367" stroke="#1F1F1F"/>
<path d="M24 89H21" stroke="#1F1F1F"/>
<path d="M28 93L28 96" stroke="#1F1F1F"/>
<path d="M145.681 35.6465H142.283V32.2487C142.283 32.0728 142.14 31.9302 141.965 31.9302C141.789 31.9302 141.646 32.0728 141.646 32.2487V35.6465H138.248C138.072 35.6465 137.93 35.7891 137.93 35.965C137.93 36.1409 138.072 36.2836 138.248 36.2836H141.646V39.6813C141.646 39.8572 141.789 39.9999 141.965 39.9999C142.14 39.9999 142.283 39.8572 142.283 39.6813V36.2836H145.681C145.857 36.2836 145.999 36.1409 145.999 35.965C145.999 35.7891 145.857 35.6465 145.681 35.6465Z" fill="#7E70DC" stroke="#7E70DC" stroke-width="0.41393"/>
<path d="M128.751 28.8745H125.353V25.4767C125.353 25.3008 125.211 25.1582 125.035 25.1582C124.859 25.1582 124.716 25.3008 124.716 25.4767V28.8745H121.319C121.143 28.8745 121 29.0171 121 29.193C121 29.369 121.143 29.5116 121.319 29.5116H124.716V32.9093C124.716 33.0853 124.859 33.2279 125.035 33.2279C125.211 33.2279 125.353 33.0853 125.353 32.9093V29.5116H128.751C128.927 29.5116 129.07 29.369 129.07 29.193C129.07 29.0171 128.927 28.8745 128.751 28.8745Z" fill="#A99CFE" stroke="#A99CFE" stroke-width="0.41393"/>
<circle cx="138" cy="24" r="3.25" stroke="#EFE7FF" stroke-width="1.5"/>
<rect x="0.5" y="0.5" width="158" height="120" rx="15.5121" stroke="#1F1F1F"/>
</svg>
