<svg width="338" height="194" viewBox="0 0 338 194" fill="none" xmlns="http://www.w3.org/2000/svg">
<path d="M36.3171 112.63C47.3035 112.63 54 120.844 54 131.673V143.549H18.9481L18.9481 131.412C18.9481 120.164 25.9061 112.63 36.3171 112.63ZM36.3171 118.124C28.8882 118.124 23.8658 123.564 23.8658 131.412L23.8658 138.213H49.1346V131.673C49.1346 124.035 44.3215 118.124 36.3171 118.124Z" fill="black"/>
<path d="M54.6278 89.8118C54.6278 100.013 46.728 107.861 36.4217 107.861C26.2723 107.861 18.3726 99.9612 18.3726 89.8118C18.3726 79.7147 26.2723 71.8673 36.4217 71.8673C46.728 71.8673 54.6278 79.7147 54.6278 89.8118ZM49.5531 89.8118C49.5531 82.906 43.7983 77.3605 36.4217 77.3605C29.1497 77.3605 23.4473 82.8537 23.4473 89.8118C23.4473 96.7699 29.1497 102.368 36.4217 102.368C43.7983 102.368 49.5531 96.8222 49.5531 89.8118Z" fill="#A99CFE"/>
<path d="M109.308 143.386C90.7419 143.524 75.0857 127.729 75.0857 108.332C75.0857 88.9349 90.7419 73.2787 109.308 73.2787C121.223 73.2787 132.03 78.5436 138.265 89.9048L131.06 94.0613C126.211 85.4712 118.314 81.4532 109.308 81.4532C95.4527 81.4532 83.6758 93.6457 83.6758 108.332C83.6758 123.018 95.4527 135.211 109.308 135.211C118.314 135.211 126.211 131.193 131.06 122.741L138.265 126.759C132.03 138.121 121.223 143.386 109.308 143.386ZM179.294 143.386C159.897 143.386 145.211 127.591 145.211 108.194C145.211 89.0735 160.313 73.2787 180.403 73.2787C200.216 73.2787 215.733 88.5193 215.733 108.194V142H207.559V126.344C202.433 136.458 192.041 143.386 179.294 143.386ZM180.403 135.211C195.366 135.211 207.143 123.018 207.143 108.332C207.143 93.6457 195.366 81.4532 180.403 81.4532C165.578 81.4532 153.801 93.6457 153.801 108.332C153.801 123.018 165.578 135.211 180.403 135.211ZM234.686 142H226.096V100.573C226.096 84.9169 235.101 73.8329 250.619 73.8329C254.776 73.8329 258.794 74.6642 262.257 76.3268V85.0555C258.932 83.1158 255.191 82.1459 251.312 82.1459C241.059 82.1459 234.686 89.4891 234.686 100.989V142ZM299.403 143.386C279.59 143.386 264.765 128.283 264.765 108.194C264.765 88.7964 278.205 73.1401 297.879 73.1401C317.415 73.1401 330.161 87.1338 330.161 106.254V111.38H273.217C274.602 125.097 285.132 135.211 299.403 135.211C308.547 135.211 316.861 131.747 321.71 123.157L328.36 126.759C322.264 137.843 311.734 143.386 299.403 143.386ZM273.494 104.453H321.571C321.294 90.459 311.457 81.3146 297.879 81.3146C283.885 81.3146 274.741 91.4289 273.494 104.453Z" fill="black"/>
</svg>
