<svg width="18" height="15" viewBox="0 0 18 15" fill="none" xmlns="http://www.w3.org/2000/svg">
<path fill-rule="evenodd" clip-rule="evenodd" d="M13.4451 0C14.652 0 15.813 0.436471 16.6671 1.21965C17.5221 2.00118 18 3.05529 18 4.15882V10.6647C18 12.9624 15.957 14.8235 13.4451 14.8235H4.554C2.0421 14.8235 0 12.9624 0 10.6647V4.15882C0 1.86118 2.0331 0 4.554 0H13.4451ZM14.8771 5.38587L14.9491 5.31999C15.1642 5.08117 15.1642 4.73528 14.9392 4.49646C14.8141 4.37375 14.6422 4.29881 14.4631 4.28234C14.2741 4.27328 14.0941 4.33175 13.9582 4.44705L9.90014 7.41176C9.37814 7.80787 8.63024 7.80787 8.10014 7.41176L4.05014 4.44705C3.77024 4.25764 3.38324 4.28234 3.15014 4.5047C2.90714 4.72705 2.88014 5.08117 3.08624 5.32823L3.20414 5.43528L7.29914 8.35881C7.80314 8.72117 8.41424 8.91881 9.05414 8.91881C9.69224 8.91881 10.3141 8.72117 10.8172 8.35881L14.8771 5.38587Z" fill="#1F1F1F"/>
</svg>
