<svg width="14" height="22" viewBox="0 0 14 22" fill="none" xmlns="http://www.w3.org/2000/svg">
<path fill-rule="evenodd" clip-rule="evenodd" d="M12.4444 19.4444C12.4444 19.6507 12.3625 19.8486 12.2166 19.9944C12.0708 20.1403 11.8729 20.2222 11.6667 20.2222H2.33333C2.12705 20.2222 1.92922 20.1403 1.78336 19.9944C1.6375 19.8486 1.55556 19.6507 1.55556 19.4444V2.33333C1.55556 2.12705 1.6375 1.92922 1.78336 1.78336C1.92922 1.6375 2.12705 1.55556 2.33333 1.55556H11.6667C11.8729 1.55556 12.0708 1.6375 12.2166 1.78336C12.3625 1.92922 12.4444 2.12705 12.4444 2.33333V19.4444ZM7.97005 4.92594C8.09824 4.73409 8.16667 4.50852 8.16667 4.27778C8.16667 3.96836 8.04375 3.67161 7.82496 3.45282C7.60616 3.23403 7.30942 3.11111 7 3.11111C6.76926 3.11111 6.54369 3.17954 6.35184 3.30773C6.15998 3.43593 6.01044 3.61813 5.92214 3.83131C5.83384 4.04449 5.81073 4.27907 5.85575 4.50538C5.90077 4.73169 6.01188 4.93957 6.17504 5.10274C6.3382 5.2659 6.54608 5.37701 6.77239 5.42203C6.99871 5.46704 7.23328 5.44394 7.44646 5.35564C7.65964 5.26734 7.84185 5.1178 7.97005 4.92594Z" fill="black"/>
<path fill-rule="evenodd" clip-rule="evenodd" d="M2.33333 0H11.6667C12.2855 0 12.879 0.245833 13.3166 0.683418C13.7542 1.121 14 1.71449 14 2.33333V19.4444C14 20.0633 13.7542 20.6568 13.3166 21.0944C12.879 21.5319 12.2855 21.7778 11.6667 21.7778H2.33333C1.71449 21.7778 1.121 21.5319 0.683418 21.0944C0.245833 20.6568 0 20.0633 0 19.4444V2.33333C0 1.71449 0.245833 1.121 0.683418 0.683418C1.121 0.245833 1.71449 0 2.33333 0ZM12.2166 19.9944C12.3625 19.8486 12.4444 19.6507 12.4444 19.4444V2.33333C12.4444 2.12705 12.3625 1.92922 12.2166 1.78336C12.0708 1.6375 11.8729 1.55556 11.6667 1.55556H2.33333C2.12705 1.55556 1.92922 1.6375 1.78336 1.78336C1.6375 1.92922 1.55556 2.12705 1.55556 2.33333V19.4444C1.55556 19.6507 1.6375 19.8486 1.78336 19.9944C1.92922 20.1403 2.12705 20.2222 2.33333 20.2222H11.6667C11.8729 20.2222 12.0708 20.1403 12.2166 19.9944Z" fill="black"/>
</svg>
