<svg width="249" height="466" viewBox="0 0 249 466" fill="none" xmlns="http://www.w3.org/2000/svg">
<path d="M110.003 334.012L111.962 430.219L133.29 431.503L142.104 335.946L110.003 334.012Z" fill="#FFFEF9" stroke="#1F1F1F" stroke-width="0.75" stroke-miterlimit="10"/>
<path d="M109.253 441.525L110.555 422.736L135.729 423.873L135.616 457.514L88.1329 455.625C88.1329 455.625 87.7499 438.058 109.253 441.525Z" fill="#1F1F1F" stroke="#1F1F1F" stroke-width="0.75" stroke-miterlimit="10"/>
<path d="M115.176 438.301C114.002 440.055 112.054 441.14 110.116 441.856C110.319 441.91 110.521 441.963 110.724 442.017C110.391 441.731 110.068 441.435 109.756 441.126C109.81 441.329 109.863 441.531 109.917 441.734C110.125 440.772 110.54 439.882 111.07 439.056C111.17 438.9 111.401 438.68 111.449 438.506C111.47 438.43 111.433 438.459 111.392 438.513C111.431 438.462 111.505 438.423 111.551 438.375C111.633 438.288 111.703 438.188 111.783 438.099C112.051 437.798 112.346 437.516 112.676 437.284C113.341 436.816 114.129 436.477 114.948 436.417C115.069 436.408 115.303 436.405 115.36 436.413C115.536 436.44 115.521 436.431 115.643 436.515C115.658 436.525 115.625 436.473 115.676 436.557C115.712 436.615 115.662 436.541 115.656 436.533C115.666 436.546 115.692 436.583 115.694 436.6C115.697 436.627 115.678 436.532 115.705 436.646C115.738 436.784 115.717 436.616 115.721 436.724C115.732 437.027 115.698 437.177 115.579 437.515C115.494 437.749 115.346 438.035 115.176 438.301C114.74 438.98 115.822 439.608 116.255 438.932C116.665 438.292 117.026 437.473 116.967 436.695C116.894 435.726 116.159 435.173 115.216 435.156C114.09 435.136 112.909 435.583 112.003 436.232C111.544 436.561 111.066 436.95 110.732 437.41C110.634 437.545 110.822 437.303 110.692 437.486C110.645 437.552 110.567 437.614 110.515 437.682C110.422 437.804 110.33 437.926 110.242 438.052C110.056 438.316 109.882 438.589 109.721 438.869C109.345 439.525 109.027 440.229 108.821 440.957C108.697 441.393 108.615 441.739 108.958 442.094C109.235 442.38 109.539 442.642 109.84 442.901C110.001 443.039 110.232 443.142 110.448 443.062C112.712 442.225 114.886 440.977 116.255 438.932C116.704 438.261 115.621 437.635 115.176 438.301Z" fill="#FCFCFA"/>
<path d="M111.593 441.093C111.201 441.402 110.799 441.697 110.386 441.978C110.596 441.978 110.806 441.978 111.017 441.978C109.435 441.182 107.909 440.227 106.641 438.98C105.64 437.995 104.713 436.777 104.378 435.389C104.28 434.983 104.209 434.51 104.373 434.13C104.411 434.043 104.492 433.948 104.618 433.89C104.811 433.802 105.076 433.812 105.293 433.837C106.829 434.015 108.238 434.994 109.198 436.162C110.402 437.627 111.229 439.652 111.41 441.535C111.486 442.329 112.737 442.337 112.66 441.535C112.294 437.719 109.828 433.422 105.789 432.658C105.077 432.523 104.287 432.515 103.702 433.006C103.236 433.397 103.054 433.988 103.034 434.58C102.982 436.14 103.891 437.656 104.823 438.828C106.284 440.664 108.308 442.012 110.385 443.057C110.577 443.154 110.826 443.186 111.016 443.057C111.517 442.716 112 442.351 112.476 441.977C112.743 441.766 112.692 441.314 112.476 441.093C112.218 440.828 111.856 440.886 111.593 441.093Z" fill="#FCFCFA"/>
<path d="M110.324 441.839C107.608 443.999 106.448 447.278 104.964 450.288C104.61 451.007 105.687 451.641 106.043 450.919C107.48 448.005 108.579 444.813 111.207 442.723C111.473 442.511 111.424 442.061 111.207 441.839C110.95 441.576 110.587 441.63 110.324 441.839Z" fill="#FCFCFA"/>
<path d="M110.227 442.731C111.013 443.82 111.7 444.976 112.175 446.235C112.713 447.661 113.123 449.158 113.493 450.636C113.688 451.416 114.894 451.086 114.698 450.304C114.318 448.786 113.899 447.241 113.334 445.78C112.823 444.46 112.134 443.246 111.306 442.1C111.109 441.828 110.761 441.692 110.451 441.876C110.182 442.035 110.027 442.455 110.227 442.731Z" fill="#FCFCFA"/>
<path d="M147.571 337.329L149.53 433.535L170.858 434.82L179.672 339.262L147.571 337.329Z" fill="#FFFEF9" stroke="#1F1F1F" stroke-width="0.75" stroke-miterlimit="10"/>
<path d="M146.845 450L147.711 431.186L172.905 431.739L173.571 465.373L126.057 464.584C126.057 464.584 125.268 447.032 146.845 450Z" fill="#1F1F1F" stroke="#1F1F1F" stroke-width="0.75" stroke-miterlimit="10"/>
<path d="M151.984 445.228C150.81 446.982 148.862 448.067 146.924 448.783C147.127 448.837 147.329 448.89 147.532 448.944C147.199 448.658 146.875 448.362 146.564 448.053C146.618 448.256 146.671 448.458 146.725 448.661C146.932 447.699 147.348 446.809 147.878 445.983C147.978 445.827 148.209 445.608 148.257 445.433C148.278 445.357 148.241 445.386 148.2 445.44C148.239 445.389 148.313 445.35 148.359 445.302C148.441 445.215 148.511 445.115 148.591 445.026C148.859 444.725 149.154 444.443 149.484 444.211C150.149 443.743 150.937 443.404 151.755 443.344C151.876 443.335 152.11 443.332 152.167 443.34C152.343 443.367 152.328 443.358 152.45 443.442C152.465 443.452 152.432 443.4 152.483 443.484C152.519 443.542 152.469 443.468 152.463 443.46C152.473 443.473 152.499 443.511 152.501 443.527C152.504 443.554 152.485 443.459 152.512 443.573C152.545 443.711 152.524 443.543 152.528 443.651C152.539 443.954 152.505 444.104 152.386 444.442C152.302 444.677 152.154 444.963 151.984 445.228C151.548 445.907 152.63 446.535 153.063 445.859C153.473 445.219 153.834 444.4 153.775 443.622C153.702 442.653 152.967 442.1 152.024 442.083C150.898 442.063 149.717 442.51 148.811 443.159C148.352 443.488 147.874 443.877 147.54 444.337C147.442 444.472 147.63 444.23 147.5 444.413C147.454 444.479 147.375 444.541 147.323 444.609C147.23 444.731 147.138 444.853 147.05 444.979C146.864 445.243 146.69 445.516 146.529 445.796C146.153 446.452 145.835 447.156 145.629 447.884C145.505 448.32 145.423 448.666 145.766 449.02C146.043 449.306 146.347 449.568 146.648 449.827C146.809 449.965 147.04 450.068 147.256 449.988C149.52 449.151 151.694 447.904 153.063 445.858C153.512 445.189 152.429 444.562 151.984 445.228Z" fill="white"/>
<path d="M148.401 448.021C148.009 448.33 147.607 448.625 147.194 448.906C147.404 448.906 147.615 448.906 147.825 448.906C146.243 448.11 144.717 447.155 143.449 445.908C142.448 444.923 141.521 443.705 141.186 442.317C141.088 441.911 141.017 441.438 141.181 441.058C141.219 440.971 141.3 440.876 141.426 440.818C141.619 440.729 141.884 440.74 142.101 440.765C143.637 440.943 145.046 441.922 146.007 443.09C147.211 444.555 148.038 446.58 148.219 448.463C148.295 449.257 149.546 449.265 149.469 448.463C149.103 444.647 146.637 440.35 142.598 439.586C141.886 439.451 141.096 439.443 140.511 439.934C140.045 440.325 139.863 440.916 139.843 441.508C139.791 443.068 140.7 444.584 141.632 445.756C143.093 447.592 145.116 448.94 147.194 449.985C147.386 450.082 147.635 450.114 147.825 449.985C148.326 449.644 148.809 449.279 149.285 448.905C149.552 448.694 149.501 448.242 149.285 448.021C149.026 447.756 148.664 447.813 148.401 448.021Z" fill="white"/>
<path d="M147.132 448.767C144.416 450.927 143.256 454.206 141.772 457.216C141.418 457.935 142.495 458.569 142.851 457.847C144.288 454.933 145.387 451.741 148.015 449.651C148.281 449.439 148.232 448.989 148.015 448.767C147.758 448.503 147.395 448.558 147.132 448.767Z" fill="white"/>
<path d="M147.034 449.658C147.82 450.747 148.508 451.903 148.983 453.162C149.521 454.588 149.931 456.085 150.301 457.563C150.496 458.343 151.702 458.012 151.506 457.231C151.126 455.713 150.707 454.168 150.141 452.707C149.631 451.387 148.941 450.173 148.113 449.027C147.916 448.755 147.568 448.619 147.258 448.803C146.99 448.962 146.835 449.382 147.034 449.658Z" fill="white"/>
<path d="M145.364 129.296V141.148L133.998 146.539L155.305 163.14L173.116 141.149C173.116 141.149 166.085 139.209 161.127 141.796L158.54 122.608L145.364 129.296Z" fill="#FFFEF9" stroke="#1F1F1F" stroke-width="0.75" stroke-miterlimit="10"/>
<path d="M137.426 142.874L140.914 142.223C142.254 148.472 147.282 153.468 154.82 152.607C166.599 151.262 168.816 140.61 168.816 140.61C170.609 140.633 173.124 140.862 175.969 141.781C179.343 142.871 181.818 144.489 183.362 145.682C182.75 212.407 182.139 279.132 181.527 345.857L110.182 341.84C110.182 341.84 128.951 217.883 128.297 182.014C128.194 176.36 128.982 170.733 130.622 165.321L137.426 142.874Z" fill="#1F1F1F" stroke="#1F1F1F" stroke-width="0.75" stroke-miterlimit="10"/>
<path d="M143.543 142.011C143.543 142.011 128.898 185.809 132.236 210.272C135.574 234.735 131.946 340.74 127.869 374.58L97.9316 371.557L116.411 200.106C116.411 200.106 106.231 212.73 111.926 173.127C116.411 141.939 143.543 142.011 143.543 142.011Z" fill="#FFFEF9" stroke="#1F1F1F" stroke-width="0.75" stroke-miterlimit="10"/>
<path d="M170.119 140.61C170.119 140.61 142.981 219.891 143.543 250.015C144.104 280.139 138.187 375.665 138.187 375.665L189.068 377.395L188.013 258.296C188.013 258.296 218.09 144.978 170.119 140.61Z" fill="#FFFEF9" stroke="#1F1F1F" stroke-width="0.75" stroke-miterlimit="10"/>
<path d="M153.556 253.845C153.556 254.906 152.696 255.767 151.634 255.767C150.572 255.767 149.712 254.907 149.712 253.845C149.712 252.784 150.572 251.923 151.634 251.923C152.696 251.923 153.556 252.783 153.556 253.845Z" fill="#1F1F1F" stroke="#FFFEF9" stroke-width="0.75" stroke-miterlimit="10"/>
<path d="M152.94 297.905C152.94 298.966 152.08 299.827 151.018 299.827C149.957 299.827 149.096 298.967 149.096 297.905C149.096 296.843 149.956 295.983 151.018 295.983C152.08 295.983 152.94 296.843 152.94 297.905Z" fill="#1F1F1F" stroke="#FFFEF9" stroke-width="0.75" stroke-miterlimit="10"/>
<path d="M150.258 342.925C150.258 343.986 149.398 344.847 148.336 344.847C147.275 344.847 146.414 343.987 146.414 342.925C146.414 341.864 147.274 341.003 148.336 341.003C149.398 341.003 150.258 341.863 150.258 342.925Z" fill="#1F1F1F" stroke="#FFFEF9" stroke-width="0.75" stroke-miterlimit="10"/>
<path d="M174.692 282.103C174.692 282.103 169.371 290.303 167.166 287.447C164.96 284.59 177.189 248.434 177.189 248.434L191.805 253.586C191.805 253.586 193.118 303.974 187.331 296.19C187.331 296.19 186.304 302.961 183.259 298.226C183.259 298.226 180.992 302.351 179.405 298.65C179.405 298.65 178.001 301.385 176.53 298.926C175.059 296.467 176.327 291.165 174.692 282.103Z" fill="#FFFEF9" stroke="#1F1F1F" stroke-width="0.75" stroke-miterlimit="10"/>
<path d="M179.217 299.716C179.217 299.716 181.033 292.607 179.429 286.636" stroke="#1F1F1F" stroke-width="0.75" stroke-miterlimit="10"/>
<path d="M183.077 299.222C183.077 299.222 184.686 292.461 183.201 286.458" stroke="#1F1F1F" stroke-width="0.75" stroke-miterlimit="10"/>
<path d="M187.122 296.85C187.122 296.85 187.942 290.561 186.896 286.115" stroke="#1F1F1F" stroke-width="0.75" stroke-miterlimit="10"/>
<path d="M180.724 168.187L168.815 266.781H194.099C194.099 266.781 198.122 207.217 197.318 191.781" fill="#FFFEF9"/>
<path d="M180.724 168.187L168.815 266.781H194.099C194.099 266.781 198.122 207.217 197.318 191.781" stroke="#1F1F1F" stroke-width="0.75" stroke-miterlimit="10"/>
<path d="M143.543 142.011L120.136 158.472L130.68 165.15L120.136 177.627L133.26 222.97" stroke="#1F1F1F" stroke-width="0.75" stroke-miterlimit="10"/>
<path d="M147.025 222.3C150.679 216.049 155.988 208.314 163.543 200.473C170.335 193.424 177.074 188.225 182.698 184.481C179.769 181.025 176.84 177.569 173.911 174.113L190.606 166.029C183.777 157.556 176.948 149.083 170.119 140.61" fill="#FFFEF9"/>
<path d="M147.025 222.3C150.679 216.049 155.988 208.314 163.543 200.473C170.335 193.424 177.074 188.225 182.698 184.481C179.769 181.025 176.84 177.569 173.911 174.113L190.606 166.029C183.777 157.556 176.948 149.083 170.119 140.61" stroke="#1F1F1F" stroke-width="0.75" stroke-miterlimit="10"/>
<path d="M26.697 435.779C26.697 435.779 3.22202 436.467 4.18302 459.157H54.964V426.153L27.05 424.778L26.697 435.779Z" fill="#FFFEF9" stroke="#1F1F1F" stroke-width="0.75" stroke-miterlimit="10"/>
<path d="M74.6958 422.782V458.536L123.603 460.599C123.603 460.599 126.575 439.974 101.681 440.391L103.226 422.782H74.6958Z" fill="#FFFEF9" stroke="#1F1F1F" stroke-width="0.75" stroke-miterlimit="10"/>
<path d="M31.0428 238.072L105.565 241.515L107.026 430.914L72.2648 434.179L68.3038 264.362L57.7508 432.707H20.8838L31.0428 238.072Z" fill="#1F1F1F" stroke="#1F1F1F" stroke-width="0.75" stroke-miterlimit="10"/>
<path d="M56.8877 262.833L80.1997 264.317" stroke="#1F1F1F" stroke-width="0.75" stroke-miterlimit="10"/>
<path d="M73.7879 90.2837L66.8299 105.096C66.8299 105.096 53.2399 104.048 45.0269 108.026L78.2498 136.306L92.7289 112.947L85.5578 110.883L89.4998 96.6597L73.7879 90.2837Z" fill="#FFFEF9" stroke="#1F1F1F" stroke-width="0.75" stroke-miterlimit="10"/>
<path d="M58.7238 105.284C58.7238 105.284 73.6578 132.397 92.7288 112.947L100.271 116.646L107.437 245.625L28.2158 240.251L50.4218 106.224L58.7238 105.284Z" fill="#FFFEF9" stroke="#1F1F1F" stroke-width="0.75" stroke-miterlimit="10"/>
<path d="M6.55121 237.805L5.06219 249.434L1.24518 267.41C0.752177 269.73 1.00718 272.146 1.99618 274.302C3.27718 277.098 5.55719 280.878 9.31619 283.681C10.5462 284.598 12.2432 283.461 11.8312 281.983C10.1342 275.899 7.42018 264.418 10.3142 261.993C13.9752 258.926 11.0172 269.328 13.4852 275.34C13.8722 276.282 15.3552 276.032 15.9302 275.192C17.9842 272.192 27.3102 255.574 18.1942 250.214L20.7152 239.102" fill="#FFFEF9"/>
<path d="M6.55121 237.805L5.06219 249.434L1.24518 267.41C0.752177 269.73 1.00718 272.146 1.99618 274.302C3.27718 277.098 5.55719 280.878 9.31619 283.681C10.5462 284.598 12.2432 283.461 11.8312 281.983C10.1342 275.899 7.42018 264.418 10.3142 261.993C13.9752 258.926 11.0172 269.328 13.4852 275.34C13.8722 276.282 15.3552 276.032 15.9302 275.192C17.9842 272.192 27.3102 255.574 18.1942 250.214L20.7152 239.102" stroke="#1F1F1F" stroke-width="0.75" stroke-miterlimit="10"/>
<path d="M55.429 105.284C55.429 105.284 41.946 106.736 27.741 114.491C26.445 115.199 21.984 119.776 16.228 134.885C5.033 164.272 1 250.286 1 250.286L23.911 252.126L17.549 296.885L47.337 299.091L55.429 105.284Z" fill="#FFFEF9" stroke="#1F1F1F" stroke-width="0.75" stroke-miterlimit="10"/>
<path d="M27.7423 114.491C27.7423 114.491 33.9043 183.649 24.5283 252.661" stroke="#1F1F1F" stroke-width="0.75" stroke-miterlimit="10"/>
<path d="M55.429 105.284L34.624 124.027L47.893 135.746L36.742 145.203L52.06 185.988" stroke="#1F1F1F" stroke-width="0.75" stroke-miterlimit="10"/>
<path d="M46.0361 206.102C46.0361 207.31 45.0571 208.289 43.8491 208.289C42.6411 208.289 41.6621 207.31 41.6621 206.102C41.6621 204.894 42.6411 203.915 43.8491 203.915C45.0571 203.916 46.0361 204.895 46.0361 206.102Z" fill="#1F1F1F" stroke="#1F1F1F" stroke-width="0.75" stroke-miterlimit="10"/>
<path d="M6.67319 244.106C6.67319 244.944 5.99418 245.624 5.15518 245.624C4.31618 245.624 3.63818 244.945 3.63818 244.106C3.63818 243.268 4.31718 242.589 5.15518 242.589C5.99318 242.589 6.67319 243.268 6.67319 244.106Z" fill="#1F1F1F" stroke="#1F1F1F" stroke-width="0.75" stroke-miterlimit="10"/>
<path d="M43.8491 245.624C43.8491 246.832 42.8701 247.811 41.6621 247.811C40.4541 247.811 39.4751 246.832 39.4751 245.624C39.4751 244.416 40.4541 243.437 41.6621 243.437C42.8701 243.437 43.8491 244.417 43.8491 245.624Z" fill="#1F1F1F" stroke="#1F1F1F" stroke-width="0.75" stroke-miterlimit="10"/>
<path d="M92.728 112.947C92.728 112.947 126.071 122.16 122.267 149.69C117.957 180.877 105.859 206.103 105.859 206.103L122.581 289.907L91.562 301.165C91.562 301.165 61.715 208.226 92.728 112.947Z" fill="#FFFEF9" stroke="#1F1F1F" stroke-width="0.75" stroke-miterlimit="10"/>
<path d="M92.7278 112.947L106.034 130.044L94.5038 137.896L101.881 145.636L79.0898 188.639" stroke="#1F1F1F" stroke-width="0.75" stroke-miterlimit="10"/>
<path d="M84.0791 206.24L91.4691 205.542" stroke="#1F1F1F" stroke-width="0.75" stroke-miterlimit="10"/>
<path d="M89.0327 245.973L96.4227 245.275" stroke="#1F1F1F" stroke-width="0.75" stroke-miterlimit="10"/>
<path d="M114.045 126.579L107.436 172.131" stroke="#1F1F1F" stroke-width="0.75" stroke-miterlimit="10"/>
<path d="M81.5161 31.9185C81.5161 31.9185 93.7491 53.6085 128.058 38.6225C128.058 38.6225 143.832 67.0165 181.691 60.3125C181.691 60.3125 191.156 83.5795 221.916 85.5515C221.916 85.5515 226.793 110.897 246.674 117.561C246.674 117.561 223.888 119.86 220.339 134.057C220.339 134.057 198.968 116.302 178.224 132.067C178.224 132.067 169.412 101.138 131.604 114.943C131.604 114.943 121.823 89.5885 97.8571 100.69C97.8571 100.69 87.8282 67.8555 58.7732 77.4885C58.7732 77.4885 61.7672 57.2815 42.8062 56.3425C42.8062 56.3425 53.4502 43.4195 46.6362 35.9005C46.6362 35.9005 62.3551 49.7885 81.5161 31.9185Z" fill="#FFFEF9"/>
<mask id="mask0_566_7251" style="mask-type:luminance" maskUnits="userSpaceOnUse" x="42" y="31" width="205" height="104">
<path d="M81.5161 31.9185C81.5161 31.9185 93.7491 53.6085 128.058 38.6225C128.058 38.6225 143.832 67.0165 181.691 60.3125C181.691 60.3125 191.156 83.5795 221.916 85.5515C221.916 85.5515 226.793 110.897 246.674 117.561C246.674 117.561 223.888 119.86 220.339 134.057C220.339 134.057 198.968 116.302 178.224 132.067C178.224 132.067 169.412 101.138 131.604 114.943C131.604 114.943 121.823 89.5885 97.8571 100.69C97.8571 100.69 87.8282 67.8555 58.7732 77.4885C58.7732 77.4885 61.7672 57.2815 42.8062 56.3425C42.8062 56.3425 53.4502 43.4195 46.6362 35.9005C46.6362 35.9005 62.3551 49.7885 81.5161 31.9185Z" fill="white"/>
</mask>
<g mask="url(#mask0_566_7251)">
<path d="M97.8584 100.692L128.058 38.6226" stroke="#1F1F1F" stroke-width="0.75" stroke-miterlimit="10"/>
</g>
<mask id="mask1_566_7251" style="mask-type:luminance" maskUnits="userSpaceOnUse" x="42" y="31" width="205" height="104">
<path d="M81.5161 31.9185C81.5161 31.9185 93.7491 53.6085 128.058 38.6225C128.058 38.6225 143.832 67.0165 181.691 60.3125C181.691 60.3125 191.156 83.5795 221.916 85.5515C221.916 85.5515 226.793 110.897 246.674 117.561C246.674 117.561 223.888 119.86 220.339 134.057C220.339 134.057 198.968 116.302 178.224 132.067C178.224 132.067 169.412 101.138 131.604 114.943C131.604 114.943 121.823 89.5885 97.8571 100.69C97.8571 100.69 87.8282 67.8555 58.7732 77.4885C58.7732 77.4885 61.7672 57.2815 42.8062 56.3425C42.8062 56.3425 53.4502 43.4195 46.6362 35.9005C46.6362 35.9005 62.3551 49.7885 81.5161 31.9185Z" fill="white"/>
</mask>
<g mask="url(#mask1_566_7251)">
<path d="M178.224 132.069L182.214 57.2275" stroke="#1F1F1F" stroke-width="0.75" stroke-miterlimit="10"/>
</g>
<mask id="mask2_566_7251" style="mask-type:luminance" maskUnits="userSpaceOnUse" x="42" y="31" width="205" height="104">
<path d="M81.5161 31.9185C81.5161 31.9185 93.7491 53.6085 128.058 38.6225C128.058 38.6225 143.832 67.0165 181.691 60.3125C181.691 60.3125 191.156 83.5795 221.916 85.5515C221.916 85.5515 226.793 110.897 246.674 117.561C246.674 117.561 223.888 119.86 220.339 134.057C220.339 134.057 198.968 116.302 178.224 132.067C178.224 132.067 169.412 101.138 131.604 114.943C131.604 114.943 121.823 89.5885 97.8571 100.69C97.8571 100.69 87.8282 67.8555 58.7732 77.4885C58.7732 77.4885 61.7672 57.2815 42.8062 56.3425C42.8062 56.3425 53.4502 43.4195 46.6362 35.9005C46.6362 35.9005 62.3551 49.7885 81.5161 31.9185Z" fill="white"/>
</mask>
<g mask="url(#mask2_566_7251)">
<path d="M131.604 114.944L153.45 53.6704" stroke="#1F1F1F" stroke-width="0.75" stroke-miterlimit="10"/>
</g>
<mask id="mask3_566_7251" style="mask-type:luminance" maskUnits="userSpaceOnUse" x="42" y="31" width="205" height="104">
<path d="M81.5161 31.9185C81.5161 31.9185 93.7491 53.6085 128.058 38.6225C128.058 38.6225 143.832 67.0165 181.691 60.3125C181.691 60.3125 191.156 83.5795 221.916 85.5515C221.916 85.5515 226.793 110.897 246.674 117.561C246.674 117.561 223.888 119.86 220.339 134.057C220.339 134.057 198.968 116.302 178.224 132.067C178.224 132.067 169.412 101.138 131.604 114.943C131.604 114.943 121.823 89.5885 97.8571 100.69C97.8571 100.69 87.8282 67.8555 58.7732 77.4885C58.7732 77.4885 61.7672 57.2815 42.8062 56.3425C42.8062 56.3425 53.4502 43.4195 46.6362 35.9005C46.6362 35.9005 62.3551 49.7885 81.5161 31.9185Z" fill="white"/>
</mask>
<g mask="url(#mask3_566_7251)">
<path d="M212.33 79.7896L220.339 134.059" stroke="#1F1F1F" stroke-width="0.75" stroke-miterlimit="10"/>
</g>
<mask id="mask4_566_7251" style="mask-type:luminance" maskUnits="userSpaceOnUse" x="42" y="31" width="205" height="104">
<path d="M81.5161 31.9185C81.5161 31.9185 93.7491 53.6085 128.058 38.6225C128.058 38.6225 143.832 67.0165 181.691 60.3125C181.691 60.3125 191.156 83.5795 221.916 85.5515C221.916 85.5515 226.793 110.897 246.674 117.561C246.674 117.561 223.888 119.86 220.339 134.057C220.339 134.057 198.968 116.302 178.224 132.067C178.224 132.067 169.412 101.138 131.604 114.943C131.604 114.943 121.823 89.5885 97.8571 100.69C97.8571 100.69 87.8282 67.8555 58.7732 77.4885C58.7732 77.4885 61.7672 57.2815 42.8062 56.3425C42.8062 56.3425 53.4502 43.4195 46.6362 35.9005C46.6362 35.9005 62.3551 49.7885 81.5161 31.9185Z" fill="white"/>
</mask>
<g mask="url(#mask4_566_7251)">
<path d="M58.7739 77.4884L90.6749 40.2524" stroke="#1F1F1F" stroke-width="0.75" stroke-miterlimit="10"/>
</g>
<path d="M81.5161 31.9185C81.5161 31.9185 93.7491 53.6085 128.058 38.6225C128.058 38.6225 143.832 67.0165 181.691 60.3125C181.691 60.3125 191.156 83.5795 221.916 85.5515C221.916 85.5515 226.793 110.897 246.674 117.561C246.674 117.561 223.888 119.86 220.339 134.057C220.339 134.057 198.968 116.302 178.224 132.067C178.224 132.067 169.412 101.138 131.604 114.943C131.604 114.943 121.823 89.5885 97.8571 100.69C97.8571 100.69 87.8282 67.8555 58.7732 77.4885C58.7732 77.4885 61.7672 57.2815 42.8062 56.3425C42.8062 56.3425 53.4502 43.4195 46.6362 35.9005C46.6362 35.9005 62.3551 49.7885 81.5161 31.9185Z" stroke="#1F1F1F" stroke-width="0.75" stroke-miterlimit="10"/>
<path d="M153.484 43.6665L119.408 140.316L122.86 141.566L157.342 44.8475L153.484 43.6665Z" fill="#FFFEF9" stroke="#1F1F1F" stroke-width="0.75" stroke-miterlimit="10"/>
<path d="M100.58 146.197C98.0133 147.891 96.2653 152.816 95.5863 154.839C94.2423 158.841 93.9983 163.509 96.2813 167.227C96.5563 167.675 98.3283 170.477 101.738 171.584C117.79 176.798 124.061 140.798 124.061 140.798L118.994 139.056C118.994 139.056 112.145 166.375 105.153 165.439C98.3963 164.534 101.922 155.468 103.669 151.695C104.394 150.129 105.841 146.674 103.369 145.794C102.357 145.432 101.424 145.64 100.58 146.197Z" fill="#1F1F1F" stroke="#1F1F1F" stroke-width="0.75" stroke-miterlimit="10"/>
<path d="M248.337 117.498C246.912 117.2 245.205 116.719 243.354 115.924C241.95 115.321 240.746 114.657 239.741 114.024C235.835 110.948 229.644 105.422 225.626 96.5226C222.904 90.4946 221.917 85.5546 221.917 85.5546C191.157 83.5796 181.696 60.3176 181.696 60.3176C143.829 67.0126 128.064 38.6286 128.064 38.6286C93.7452 53.6126 81.5172 31.9236 81.5172 31.9236C72.9952 39.8646 65.1502 41.5326 59.0782 40.9306C57.2752 40.7476 54.7442 40.2856 51.9462 39.0716C49.6812 38.0886 47.9222 36.9086 46.6602 35.9156C46.6532 35.9126 46.6462 35.9086 46.6392 35.9046C46.6392 35.9046 95.7862 -17.1944 170.137 7.59159C179.659 10.7656 205.355 21.7046 224.621 46.8316C247.515 76.6896 248.934 108.116 248.337 117.498Z" fill="#1F1F1F" stroke="#FFFEF9" stroke-width="0.75" stroke-miterlimit="10"/>
<path d="M170.136 7.59048L171.197 3.93848L175.488 5.33248L174.19 9.06748L170.136 7.59048Z" fill="#1F1F1F" stroke="#1F1F1F" stroke-width="0.75" stroke-miterlimit="10"/>
<path d="M81.5161 31.9224L115.516 2.02441" stroke="#FFFEF9" stroke-width="0.75" stroke-miterlimit="10"/>
<path d="M128.063 38.6275L150.395 2.64746" stroke="#FFFEF9" stroke-width="0.75" stroke-miterlimit="10"/>
<path d="M181.695 60.3176L189.099 16.2256" stroke="#FFFEF9" stroke-width="0.75" stroke-miterlimit="10"/>
<path d="M221.917 85.5546L224.62 46.8296" stroke="#FFFEF9" stroke-width="0.75" stroke-miterlimit="10"/>
<path d="M162.213 103.087C163.841 95.3049 168.339 89.6989 177.781 90.3699C192.466 91.4139 202.763 116.503 202.763 116.503C202.763 116.503 203.59 122.417 220.646 128.968C237.701 135.519 226.864 167.71 206.37 155.269C206.37 155.269 197.313 171.815 180.912 157.557C175.248 152.633 170.711 146.222 167.491 139.478C163.979 132.124 159.712 115.039 162.213 103.087Z" fill="#1F1F1F" stroke="#1F1F1F" stroke-width="0.75" stroke-miterlimit="10"/>
<path d="M172.338 100.805C171.975 104.484 168.699 107.172 165.02 106.809C161.341 106.446 158.653 103.17 159.016 99.4909C159.379 95.8119 162.655 93.1239 166.334 93.4869C170.013 93.8489 172.701 97.1259 172.338 100.805Z" fill="#FFFEF9" stroke="#1F1F1F" stroke-width="0.75" stroke-miterlimit="10"/>
<path d="M172.304 126.584C169.77 129.266 166.169 129.858 164.279 127.893C163.783 127.354 163.445 126.7 163.286 125.95C158.238 133.785 149.696 137.555 142.663 134.514C138.735 132.814 136 129.287 134.733 124.926C134.596 124.472 134.48 124.028 134.374 123.574C134.364 123.532 134.353 123.479 134.342 123.437C134.131 122.413 134.004 121.357 133.941 120.28C133.835 118.506 133.941 116.669 134.279 114.81C134.311 114.567 134.353 114.314 134.406 114.071C134.469 113.786 134.522 113.511 134.596 113.237C134.649 113.015 134.702 112.794 134.754 112.572C135.06 111.432 135.451 110.291 135.937 109.151C136.328 108.232 136.761 107.356 137.225 106.511C142.125 97.7571 151.248 93.3431 158.672 96.5641C165.895 99.7001 169.094 109.014 166.613 118.401C168.989 116.616 171.861 116.426 173.477 118.105C175.377 120.09 174.839 123.87 172.304 126.584Z" fill="#FFFEF9" stroke="#1F1F1F" stroke-width="0.75" stroke-miterlimit="10"/>
<path d="M172.203 121.697L165.38 124.541" stroke="#1F1F1F" stroke-width="0.75" stroke-miterlimit="10"/>
<path d="M136.803 107.183C137.612 106.35 138.825 105.99 139.986 106C140.569 106.028 141.157 106.109 141.694 106.333C142.241 106.524 142.73 106.849 143.159 107.221C142.594 107.107 142.067 106.982 141.54 106.898C141.016 106.801 140.493 106.764 139.973 106.75C139.451 106.726 138.931 106.779 138.405 106.844C137.882 106.924 137.349 107.018 136.803 107.183Z" fill="#1F1F1F"/>
<path d="M155.76 111.895C155.346 111.504 154.911 111.181 154.479 110.874C154.038 110.58 153.597 110.3 153.12 110.088C152.649 109.868 152.164 109.667 151.652 109.519C151.143 109.358 150.615 109.234 150.06 109.083C150.61 108.942 151.193 108.871 151.768 108.945C152.349 108.985 152.911 109.176 153.445 109.412C154.486 109.924 155.409 110.788 155.76 111.895Z" fill="#1F1F1F"/>
<path d="M144.917 113.373L142.476 117.65L144.322 117.962" stroke="#1F1F1F" stroke-width="0.75" stroke-miterlimit="10"/>
<path opacity="0.96" d="M138.729 119.377C138.847 120.037 138.719 123.316 141.875 124.191C144.888 125.027 146.76 121.231 146.76 121.231C145.76 120.754 144.378 120.36 142.862 119.978C141.282 119.579 139.868 119.425 138.729 119.377Z" fill="#1F1F1F"/>
<path d="M138.402 117.807C138.744 120.156 140.117 121.376 142.318 122.034C144.578 122.709 147.022 121.507 147.778 119.982" stroke="#1F1F1F" stroke-width="0.75" stroke-miterlimit="10"/>
<path d="M149.539 115.609C149.202 116.57 149.481 117.542 150.16 117.78C150.84 118.018 151.663 117.432 152 116.471C152.336 115.51 152.058 114.538 151.379 114.3C150.699 114.063 149.875 114.648 149.539 115.609Z" fill="#1F1F1F"/>
<path d="M136.906 112.019C136.68 113.011 137.065 113.946 137.767 114.106C138.469 114.266 139.222 113.591 139.448 112.599C139.674 111.606 139.289 110.672 138.587 110.512C137.885 110.352 137.132 111.027 136.906 112.019Z" fill="#1F1F1F"/>
<path d="M159.678 96.9339C164.092 99.0889 166.921 103.323 167.811 108.267C167.815 108.257 167.921 108.928 167.921 108.928C168.502 112.847 167.885 117.165 165.9 121.23C165.7 121.639 165.486 122.04 165.26 122.427C164.909 122.504 164.558 122.526 164.203 122.5C161.379 122.272 159.377 118.644 159.717 114.402C159.823 113.147 160.116 111.983 160.55 110.962C158.072 110.516 155.371 109.299 152.915 107.354C149.088 104.317 146.846 100.333 146.755 96.9939C150.95 95.1119 155.598 94.9429 159.678 96.9339Z" fill="#1F1F1F" stroke="#1F1F1F" stroke-width="0.75" stroke-miterlimit="10"/>
<path d="M136.756 106.846C138.348 106.243 140.161 105.112 141.873 103.565C144.187 101.464 145.758 99.0941 146.218 97.2471C142.371 99.1141 138.951 102.424 136.756 106.846Z" fill="#1F1F1F" stroke="#1F1F1F" stroke-width="0.75" stroke-miterlimit="10"/>
<path d="M67.4681 75.5657C67.4681 75.5657 64.7851 45.3617 78.1151 58.3897C78.1151 58.3897 101.385 34.0887 116.169 54.9457C125.802 68.5347 113.76 77.5037 113.76 77.5037C113.76 77.5037 114.205 87.7757 107.065 85.4007L67.4681 75.5657Z" fill="#1F1F1F"/>
<path d="M105.969 88.7654C105.675 89.6084 105.349 90.4204 105.001 91.2114C103.4 94.8264 101.193 97.9194 98.6511 100.334C93.5241 105.187 87.0121 107.279 81.1671 105.243C74.7141 103.002 70.7581 96.3304 70.2961 88.3674C70.1281 88.4144 69.9711 88.4604 69.7921 88.4874C66.3031 89.1434 62.8351 86.3454 62.0661 82.2354C61.2871 78.1164 63.4931 74.2524 66.9931 73.5954C69.0111 73.2124 71.0081 73.9914 72.4971 75.5034C77.1331 63.9984 87.7341 57.3034 96.7571 60.4454C106.153 63.7134 110.275 76.3924 105.969 88.7654Z" fill="#FFFEF9" stroke="#1F1F1F" stroke-width="0.75" stroke-miterlimit="10"/>
<path d="M70.103 83.9644L65.605 77.3774" stroke="#1F1F1F" stroke-width="0.75" stroke-miterlimit="10"/>
<path d="M84.501 77.1465C84.501 77.1465 88.327 75.2855 92.384 77.4435L84.501 77.1465Z" fill="#1F1F1F"/>
<path d="M84.4849 77.1126C85.5559 76.0996 87.0509 75.7006 88.4989 75.7366C89.2259 75.7716 89.9559 75.8976 90.6259 76.1906C91.3069 76.4416 91.9059 76.8926 92.4019 77.4106L92.3669 77.4766C91.1609 76.8666 89.8249 76.5026 88.4749 76.4866C87.1309 76.4286 85.7609 76.6596 84.5169 77.1816L84.4849 77.1126Z" fill="#1F1F1F"/>
<path d="M99.6069 79.6807C99.6069 79.6807 103.862 79.7237 106.529 83.4657L99.6069 79.6807Z" fill="#1F1F1F"/>
<path d="M99.6069 79.6436C101.018 79.2156 102.534 79.5256 103.813 80.2046C104.448 80.5596 105.045 80.9996 105.514 81.5606C106.011 82.0896 106.346 82.7606 106.559 83.4446L106.498 83.4886C105.691 82.4046 104.658 81.4826 103.458 80.8656C102.281 80.2136 100.952 79.8086 99.606 79.7206L99.6069 79.6436Z" fill="#1F1F1F"/>
<path d="M99.258 88.803C98.815 90.085 99.111 91.352 99.92 91.631C100.728 91.91 101.743 91.097 102.185 89.815C102.628 88.532 102.331 87.266 101.523 86.987C100.715 86.708 99.7 87.521 99.258 88.803Z" fill="#1F1F1F"/>
<path d="M86.2431 84.1248C85.9141 85.4408 86.3202 86.6758 87.1502 86.8828C87.9802 87.0898 88.9191 86.1908 89.2481 84.8748C89.5771 83.5588 89.1711 82.3238 88.3411 82.1158C87.5111 81.9098 86.5721 82.8088 86.2431 84.1248Z" fill="#1F1F1F"/>
<path d="M95.6067 86.3345L95.2517 92.2675L93.1797 91.3645" stroke="#1F1F1F" stroke-width="0.75" stroke-miterlimit="10"/>
<path d="M97.4259 94.6938C96.0189 96.3058 94.3818 96.5588 92.3938 95.9808C90.3518 95.3868 89.0889 93.2818 89.2619 91.7568" stroke="#1F1F1F" stroke-width="0.75" stroke-miterlimit="10"/>
<path d="M114.871 69.8737C113.806 64.1047 105.526 59.6417 100.666 58.4417C88.1351 55.3467 76.158 64.2837 72.381 75.9687L71.8511 84.1407L75.209 84.4737L77.274 72.3417C79.133 71.1567 81.2111 70.3327 83.7271 69.9427C86.5461 69.5057 89.5421 69.6727 92.3141 70.3527C96.6281 71.4107 100.126 74.3567 104.24 75.8187C107.958 77.1397 114.956 76.4047 114.983 71.1407C114.987 70.7117 114.947 70.2897 114.871 69.8737Z" fill="#1F1F1F"/>
<path d="M116.679 69.3756C115.693 64.5816 111.219 61.1386 107.121 58.9866C102.689 56.6586 97.7941 55.4976 92.7871 56.1396C87.5091 56.8166 82.6452 59.2526 78.7182 62.8166C76.7622 64.5916 75.0511 66.6626 73.6411 68.8946C73.0051 69.9006 72.4341 70.9476 71.9351 72.0286C71.3781 73.2326 70.6391 74.6436 70.5061 75.9736C70.2341 78.6826 70.1531 81.4236 69.9771 84.1406C69.9071 85.2226 70.8981 85.9216 71.8521 86.0156C72.9711 86.1266 74.0912 86.2376 75.2102 86.3486C75.9532 86.4226 76.8912 85.7186 77.0182 84.9716C77.7062 80.9276 78.3952 76.8836 79.0832 72.8396C78.7962 73.2126 78.5092 73.5866 78.2212 73.9606C81.2632 72.0696 84.7112 71.4036 88.2682 71.6166C91.9142 71.8346 94.9782 73.2206 98.1302 74.9496C100.779 76.4026 103.452 77.8656 106.499 78.1916C108.808 78.4386 111.31 78.1056 113.364 76.9776C116.238 75.3986 117.155 72.4786 116.679 69.3756C116.526 68.3766 115.266 67.8156 114.372 68.0656C113.303 68.3646 112.908 69.3636 113.062 70.3726C113.614 73.9716 109.507 74.7446 106.758 74.4676C104.795 74.2696 103 73.3186 101.286 72.4006C98.9692 71.1596 96.6981 69.8156 94.2011 68.9566C88.9481 67.1496 82.6432 67.4056 77.6792 69.9466C76.8192 70.3866 75.7492 70.8656 75.4622 71.8686C75.3862 72.1316 75.3671 72.4266 75.3211 72.6956C75.1081 73.9456 74.8951 75.1956 74.6831 76.4456C74.2561 78.9546 73.8292 81.4646 73.4022 83.9736C74.0052 83.5146 74.6072 83.0556 75.2102 82.5966C74.0912 82.4856 72.9711 82.3746 71.8521 82.2636C72.4771 82.8886 73.1021 83.5136 73.7271 84.1386C73.8851 81.6976 74.0432 79.2576 74.2022 76.8166C74.2872 75.5076 74.8511 74.5296 75.5631 73.1156C76.5861 71.0816 77.8542 69.1736 79.3742 67.4766C85.3772 60.7756 94.6622 57.6926 103.191 61.2526C107.118 62.8916 112.135 65.8556 113.064 70.3716C113.549 72.7346 117.164 71.7346 116.679 69.3756Z" fill="#1F1F1F"/>
<path d="M113.474 145.231C113.474 145.231 110.931 140.963 116.365 141.484C121.798 142.004 128.943 147.106 128.748 149.596C128.553 152.086 121.701 169.367 121.701 169.367L123.013 181.038L107.815 178.887L111.698 168.895C111.698 168.895 107.378 167.182 111.487 159.268C111.487 159.268 104.376 156.845 109.148 152.801C109.148 152.801 106.13 150.014 109.759 148.482C109.759 148.482 108.693 144.554 113.474 145.231Z" fill="#FFFEF9" stroke="#1F1F1F" stroke-width="0.75" stroke-miterlimit="10"/>
<path d="M120.149 148.063L113.464 145.229" stroke="#1F1F1F" stroke-width="0.75" stroke-miterlimit="10"/>
<path d="M109.76 148.481L118.098 151.863" stroke="#1F1F1F" stroke-width="0.75" stroke-miterlimit="10"/>
<path d="M109.148 152.799L115.878 155.483" stroke="#1F1F1F" stroke-width="0.75" stroke-miterlimit="10"/>
<path d="M107.436 172.13L126.537 175.219C126.537 175.219 130.314 216.644 107.092 213.297L104.775 203.209L107.436 172.13Z" fill="#FFFEF9" stroke="#1F1F1F" stroke-width="0.75" stroke-miterlimit="10"/>
<path d="M122.582 178.499C122.582 179.337 121.903 180.016 121.064 180.016C120.226 180.016 119.547 179.337 119.547 178.499C119.547 177.661 120.226 176.981 121.064 176.981C121.902 176.982 122.582 177.661 122.582 178.499Z" fill="#1F1F1F" stroke="#1F1F1F" stroke-width="0.75" stroke-miterlimit="10"/>
</svg>
