<svg width="14" height="14" viewBox="0 0 14 14" fill="none" xmlns="http://www.w3.org/2000/svg">
<g clip-path="url(#clip0_566_679)">
<path d="M7 14C10.866 14 14 10.866 14 7C14 3.13401 10.866 0 7 0C3.13401 0 0 3.13401 0 7C0 10.866 3.13401 14 7 14Z" fill="#E9147A"/>
<path d="M7.68738 8.26005H6.40192L6.24919 3.09277H7.8401L7.68738 8.26005ZM6.08374 9.97823C6.08374 9.46914 6.49101 9.07459 7.0001 9.07459C7.50919 9.07459 7.91647 9.48186 7.91647 9.97823C7.91647 10.4746 7.50919 10.9073 7.0001 10.9073C6.49101 10.9073 6.08374 10.5 6.08374 9.97823Z" fill="#FFFEF9"/>
</g>
<defs>
<clipPath id="clip0_566_679">
<rect width="14" height="14" fill="white"/>
</clipPath>
</defs>
</svg>
