<svg width="227" height="367" viewBox="0 0 227 367" fill="none" xmlns="http://www.w3.org/2000/svg">
<path d="M219.747 10.5298H190.003C186.202 10.5298 183.125 13.6071 183.125 17.4075V47.0964L190.123 40.6729H219.747C223.548 40.6729 226.625 37.5956 226.625 33.7952V17.4075C226.625 13.6071 223.548 10.5298 219.747 10.5298Z" fill="#FFFEF9" stroke="#1F1F1F" stroke-width="0.695183" stroke-linecap="round" stroke-linejoin="round"/>
<path d="M138.516 312.489H115.232V342.086H138.516V312.489Z" fill="#FFFEF9" stroke="#1F1F1F" stroke-width="0.695183" stroke-miterlimit="10"/>
<path d="M119.005 312.489V342.086" stroke="#1F1F1F" stroke-width="0.695183" stroke-miterlimit="10"/>
<path d="M124.01 312.489V342.086" stroke="#1F1F1F" stroke-width="0.695183" stroke-miterlimit="10"/>
<path d="M128.97 312.489V342.086" stroke="#1F1F1F" stroke-width="0.695183" stroke-miterlimit="10"/>
<path d="M133.623 312.489V342.086" stroke="#1F1F1F" stroke-width="0.695183" stroke-miterlimit="10"/>
<path d="M165.693 365.499L111.58 365.898V335.773L142.446 336.367L143.345 347.369L165.693 365.499Z" fill="#FFFEF9" stroke="#1F1F1F" stroke-width="0.695183" stroke-linecap="round" stroke-linejoin="round"/>
<path d="M155.172 351.567L151.678 359.168" stroke="#1F1F1F" stroke-width="0.695183" stroke-linecap="round" stroke-linejoin="round"/>
<path d="M149.731 348.879L146.246 356.471" stroke="#1F1F1F" stroke-width="0.695183" stroke-linecap="round" stroke-linejoin="round"/>
<path d="M145.245 348.063C145.245 348.063 160.65 341.844 158.111 337.858C154.023 331.444 145.245 348.063 145.245 348.063Z" stroke="#1F1F1F" stroke-width="0.695183" stroke-linecap="round" stroke-linejoin="round"/>
<path d="M148.814 334.086L145.245 348.064" stroke="#1F1F1F" stroke-width="0.695183" stroke-linecap="round" stroke-linejoin="round"/>
<path d="M134.772 348.723C134.772 352.393 131.602 355.369 127.699 355.369C123.797 355.369 120.627 352.393 120.627 348.723C120.627 345.052 123.797 342.077 127.699 342.077C131.602 342.077 134.772 345.052 134.772 348.723Z" fill="#1F1F1F"/>
<path d="M106.456 128.451C106.456 128.451 110.451 128.627 110.812 129.517C114.937 139.806 137.229 205.329 139.481 213.199C141.919 221.754 155.767 319.627 155.767 319.627H102.998C102.998 319.627 98.9847 217.138 99.6335 215.145C100.282 213.143 83.7092 166.362 83.7092 166.362L82.2539 129.462" fill="#FFFEF9"/>
<path d="M153.774 305.649H145.275V289.224H151.411C151.374 288.946 151.327 288.677 151.29 288.399H145.275V271.974H148.89C148.853 271.696 148.806 271.427 148.769 271.149H145.275V254.725H146.322C146.285 254.446 146.239 254.178 146.202 253.9H145.275V247.763C144.997 245.928 144.719 244.13 144.45 242.369V253.9H127.71V237.475H143.699C143.653 237.197 143.616 236.928 143.569 236.65H127.71V220.225H140.89C140.844 219.938 140.788 219.669 140.742 219.4H127.71V202.975H136.21C136.117 202.706 136.033 202.428 135.941 202.15H127.71V185.725H130.435C130.342 185.447 130.249 185.178 130.157 184.9H127.71V177.689C127.432 176.883 127.163 176.076 126.885 175.26V184.891H110.145V168.466H124.568C124.475 168.188 124.382 167.919 124.28 167.641H110.136V151.216H118.607C118.515 150.938 118.413 150.66 118.32 150.391H110.136V133.967H112.499C112.397 133.679 112.295 133.41 112.193 133.142H110.136V129.017C109.895 128.924 109.616 128.85 109.311 128.776V133.142H92.5706V129.008L91.7456 129.045V133.142H82.4023L82.4394 133.967H91.7549V150.391H83.0975L83.1346 151.216H91.7641V167.641H84.1913C84.2747 167.882 84.3767 168.16 84.4786 168.466H91.7549V184.891H90.1884C90.2811 185.169 90.3738 185.438 90.4757 185.716H91.7549V189.461C92.0329 190.267 92.3018 191.083 92.5798 191.889V185.716H109.32V202.141H95.9909C96.0835 202.419 96.167 202.697 96.2597 202.966H109.329V219.391H99.6058C99.6058 219.66 99.6058 219.928 99.6151 220.216H109.329V236.641H100.032C100.032 236.909 100.051 237.187 100.06 237.465H109.329V253.89H100.598C100.607 254.168 100.616 254.437 100.625 254.715H109.329V271.14H101.2C101.209 271.418 101.219 271.687 101.228 271.965H109.329V288.39H101.83C101.84 288.668 101.849 288.946 101.858 289.215H109.32V305.64H102.47C102.479 305.918 102.489 306.196 102.498 306.465H109.311V319.618H110.136V306.465H126.876V319.618H127.7V306.465H144.441V319.618H145.265V306.465H153.886C153.849 306.196 153.812 305.918 153.765 305.64L153.774 305.649ZM109.311 184.91H92.5706V168.485H109.311V184.91ZM109.311 167.66H92.5706V151.235H109.311V167.66ZM109.311 150.41H92.5706V133.985H109.311V150.41ZM126.876 305.649H110.136V289.224H126.876V305.649ZM126.876 288.399H110.136V271.974H126.876V288.399ZM126.876 271.149H110.136V254.725H126.876V271.149ZM126.876 253.9H110.136V237.475H126.876V253.9ZM126.876 236.65H110.136V220.225H126.876V236.65ZM126.876 219.4H110.136V202.975H126.876V219.4ZM126.876 202.15H110.136V185.725H126.876V202.15ZM144.441 305.64H127.7V289.215H144.441V305.64ZM144.441 288.39H127.7V271.965H144.441V288.39ZM144.441 271.14H127.7V254.715H144.441V271.14Z" fill="#1F1F1F"/>
<path d="M106.456 128.451C106.456 128.451 110.451 128.627 110.812 129.517C114.937 139.806 137.229 205.329 139.481 213.199C141.919 221.754 155.767 319.627 155.767 319.627H102.998C102.998 319.627 98.9847 217.138 99.6335 215.145C100.282 213.143 83.7092 166.362 83.7092 166.362L82.2539 129.462" stroke="#1F1F1F" stroke-width="0.695183" stroke-linecap="round" stroke-linejoin="round"/>
<path d="M77.3153 312.591H54.0312V342.187H77.3153V312.591Z" fill="#FFFEF9" stroke="#1F1F1F" stroke-width="0.695183" stroke-miterlimit="10"/>
<path d="M57.8037 312.591V342.187" stroke="#1F1F1F" stroke-width="0.695183" stroke-miterlimit="10"/>
<path d="M62.8184 312.591V342.187" stroke="#1F1F1F" stroke-width="0.695183" stroke-miterlimit="10"/>
<path d="M67.7686 312.591V342.187" stroke="#1F1F1F" stroke-width="0.695183" stroke-miterlimit="10"/>
<path d="M72.4297 312.591V342.187" stroke="#1F1F1F" stroke-width="0.695183" stroke-miterlimit="10"/>
<path d="M104.502 365.61L50.3887 366V335.875L81.2455 336.468L82.1446 347.471L104.502 365.61Z" fill="#FFFEF9" stroke="#1F1F1F" stroke-width="0.695183" stroke-linecap="round" stroke-linejoin="round"/>
<path d="M93.9725 351.679L90.4873 359.27" stroke="#1F1F1F" stroke-width="0.695183" stroke-linecap="round" stroke-linejoin="round"/>
<path d="M88.5404 348.981L85.0459 356.582" stroke="#1F1F1F" stroke-width="0.695183" stroke-linecap="round" stroke-linejoin="round"/>
<path d="M84.0459 348.165C84.0459 348.165 99.4512 341.946 96.9114 337.96C92.8238 331.546 84.0459 348.165 84.0459 348.165Z" stroke="#1F1F1F" stroke-width="0.695183" stroke-linecap="round" stroke-linejoin="round"/>
<path d="M87.6238 334.188L84.0459 348.165" stroke="#1F1F1F" stroke-width="0.695183" stroke-linecap="round" stroke-linejoin="round"/>
<path d="M73.5704 348.832C73.5704 352.503 70.4004 355.478 66.4981 355.478C62.5958 355.478 59.4258 352.503 59.4258 348.832C59.4258 345.162 62.5958 342.187 66.4981 342.187C70.4004 342.187 73.5704 345.162 73.5704 348.832Z" fill="#1F1F1F"/>
<path d="M100.934 157.695L94.2878 157.787L95.2888 319.626L36.7822 317.837L59.8345 139.639L96.9666 136.719" fill="#FFFEF9"/>
<path d="M99.4605 152.532L94.2513 152.55H83.0727V137.812L82.6834 137.84L82.2385 137.877V152.55H65.4985V139.194L64.6735 139.258V152.55H58.1573L58.0461 153.375H64.6643V169.8H55.9142L55.803 170.625H64.655V187.05H53.6804L53.6526 187.235L53.5691 187.875H64.655V204.3H51.4465L51.3353 205.125H64.655V221.55H49.2126L49.1478 222.087L49.1107 222.375H64.6643V238.799H47.9242V231.607L47.0993 237.984V238.79H46.9973L46.8861 239.615H47.0993V256.04H44.7635L44.6522 256.865H47.0993V273.29H42.5296L42.4184 274.115H47.09V290.54H40.2865L40.1753 291.365H47.0807V307.789H38.0526L37.9414 308.614H47.0807V318.152L47.9057 318.18V308.624H64.6457V318.699L65.4707 318.727V308.624H72.7376V308.651H81.877V318.189L81.8955 319.228H82.2199L83.0449 319.265V308.651H95.1874V307.799H83.0449V291.402H95.0855V290.577V290.549H83.0542V274.152H94.9835V273.299H83.0542V256.902H94.8815V256.049H83.0542V239.652H94.7703V238.827V238.799H83.0542V222.375H83.9069L94.6591 222.402V221.559V221.55H83.0542V205.125H86.1408L94.5571 205.153V204.3H83.0542V187.875H88.3746V187.903H94.4552V187.05H83.0542V170.625H90.6085L94.3439 170.653V169.819V169.791H83.0542V153.366L99.2566 153.394M64.655 307.78H47.915V291.355H64.655V307.78ZM64.655 290.53H47.915V274.105H64.655V290.53ZM64.655 273.281H47.915V256.856H64.655V273.281ZM64.655 256.031H47.915V239.606H64.655V256.031ZM81.8863 307.78H65.4799V291.355H74.9808V291.383H81.8863V307.78ZM81.8863 290.53H65.4799V274.105H77.2146V274.133H81.8863V290.53ZM81.8863 273.281H65.4799V256.856H79.4392V256.883H81.877V273.281H81.8863ZM81.8863 256.031H65.4799V239.606H81.6731V239.634H81.877V256.031H81.8863ZM82.2292 235.361L81.8863 238.002V238.781H65.4799V222.356H82.2199V235.361H82.2292ZM82.2292 221.531H65.4892V205.106H82.2292V221.531ZM82.2292 204.281H65.4892V187.856H82.2292V204.281ZM82.2292 187.031H65.4892V170.607H82.2292V187.031ZM82.2292 169.782H65.4892V153.357H82.2292V169.782Z" fill="#1F1F1F"/>
<path d="M94.6301 157.787C94.593 151.318 94.5559 144.848 94.5188 138.369L94.1666 138.721L99.2183 138.545L98.866 138.193C98.9495 144.699 99.0236 151.206 99.107 157.713L99.4593 157.361L94.2871 157.435C94.1017 157.435 93.9349 157.593 93.9349 157.787C93.9349 159.233 93.9534 160.679 93.9627 162.125L94.0368 173.869L94.1481 191.314C94.1944 198.377 94.2315 205.431 94.2778 212.494L94.4261 235.806L94.5744 259.34L94.7135 281.178L94.8247 299.725L94.9081 313.008L94.9359 317.179C94.9359 317.837 94.7969 318.699 94.9452 319.339C94.9638 319.422 94.9452 319.524 94.9452 319.608L95.2974 319.255C88.6978 319.051 82.0982 318.848 75.4986 318.653C64.9874 318.328 54.4855 318.013 43.9744 317.689C41.5737 317.615 39.1822 317.541 36.7815 317.466L37.1338 317.819C37.3933 315.789 37.6621 313.768 37.9216 311.738L39.9979 295.665L42.9084 273.142L46.2268 247.503L49.508 222.134L52.3258 200.333L54.2167 185.697C54.4299 184.065 54.6338 182.434 54.847 180.812C55.672 174.416 56.5062 168.021 57.3312 161.625L60.0192 140.853L60.1768 139.629C60.2324 139.184 59.5372 139.194 59.4816 139.629C58.8049 144.839 58.1376 150.048 57.4609 155.257L54.4855 178.235C54.2538 180.015 54.0221 181.804 53.7904 183.583L52.1868 196.004L49.5636 216.303L46.338 241.2L42.9919 267.089L39.9423 290.679L37.625 308.587C37.245 311.534 36.7908 314.473 36.4849 317.429C36.4664 317.559 36.4479 317.689 36.4293 317.828C36.4015 318.023 36.6054 318.171 36.7815 318.18C43.3811 318.384 49.9808 318.588 56.5804 318.783L88.1046 319.747C90.5053 319.821 92.8967 319.895 95.2974 319.969C95.4828 319.969 95.6497 319.802 95.6497 319.617C95.6497 318.171 95.6311 316.725 95.6219 315.279L95.5477 303.535L95.4365 286.09C95.3901 279.027 95.3531 271.974 95.3067 264.911L95.1584 241.599L95.0101 218.064L94.8711 196.226L94.7598 177.679L94.6764 164.396L94.6486 160.225C94.6486 159.567 94.7876 158.705 94.6393 158.066C94.6208 157.982 94.6393 157.88 94.6393 157.797L94.2871 158.149L99.4593 158.075C99.6446 158.075 99.8115 157.917 99.8115 157.723C99.7281 151.216 99.6539 144.709 99.5705 138.202C99.5705 138.016 99.4129 137.85 99.2183 137.85L94.1666 138.026C93.9812 138.026 93.8144 138.183 93.8144 138.378C93.8515 144.848 93.8885 151.318 93.9256 157.797C93.9256 158.242 94.6208 158.242 94.6208 157.797L94.6301 157.787Z" fill="#1F1F1F"/>
<path d="M163.484 63.076C163.484 63.076 169.342 56.7174 172.234 56.8101C175.126 56.9028 175.07 59.7762 173.559 62.2232C172.048 64.6703 169.824 66.6724 166.913 68.035C164.003 69.3975 160.962 66.2368 163.484 63.076Z" fill="#FFFEF9" stroke="#1F1F1F" stroke-width="0.695183" stroke-linecap="round" stroke-linejoin="round"/>
<path d="M143.379 86.4713L156.708 92.0328L162.751 76.127L164.976 69.444L151.044 66.2832L143.379 86.4713Z" fill="#FFFEF9" stroke="#1F1F1F" stroke-width="0.695183" stroke-linecap="round" stroke-linejoin="round"/>
<path d="M171.545 48.0318L160.127 44.0668C158.811 43.61 157.375 44.3061 156.918 45.6214L148.398 70.1563C147.941 71.4716 148.637 72.9082 149.953 73.365L161.371 77.33C162.686 77.7868 164.123 77.0908 164.58 75.7754L173.099 51.2406C173.556 49.9252 172.86 48.4886 171.545 48.0318Z" fill="#1F1F1F"/>
<path d="M171.467 52.0271L157.693 47.2441L149.943 69.5637L163.716 74.3466L171.467 52.0271Z" fill="#FFFEF9"/>
<path d="M169.221 53.612L158.573 49.9146L156.661 55.4222L167.308 59.1196L169.221 53.612Z" stroke="#1F1F1F" stroke-width="0.231728" stroke-linecap="round" stroke-linejoin="round"/>
<path d="M165.516 64.0622L154.868 60.3647L152.956 65.8724L163.603 69.5698L165.516 64.0622Z" stroke="#1F1F1F" stroke-width="0.231728" stroke-linecap="round" stroke-linejoin="round"/>
<path d="M167.079 59.6571L156.493 55.981L156.171 56.9091L166.757 60.5853L167.079 59.6571Z" stroke="#1F1F1F" stroke-width="0.231728" stroke-linecap="round" stroke-linejoin="round"/>
<path d="M163.293 70.3242L155.973 67.7822L155.65 68.7104L162.971 71.2524L163.293 70.3242Z" stroke="#1F1F1F" stroke-width="0.231728" stroke-linecap="round" stroke-linejoin="round"/>
<path d="M166.479 61.4035L160.683 59.3906L160.36 60.3188L166.157 62.3317L166.479 61.4035Z" stroke="#1F1F1F" stroke-width="0.231728" stroke-linecap="round" stroke-linejoin="round"/>
<path d="M167.672 48.8297C167.607 49.0244 167.384 49.1171 167.19 49.0429C166.986 48.9688 166.875 48.7649 166.939 48.5702C167.004 48.3756 167.227 48.2829 167.421 48.357C167.625 48.4312 167.737 48.6351 167.672 48.8297Z" fill="#FFFEF9"/>
<path d="M166.106 48.5885L164.048 47.8748C163.89 47.8191 163.798 47.6523 163.853 47.504C163.909 47.3557 164.076 47.2723 164.242 47.3279L166.3 48.0416C166.458 48.0972 166.55 48.2641 166.495 48.4124C166.439 48.5607 166.272 48.6441 166.106 48.5885Z" fill="#FFFEF9"/>
<path d="M139.951 84.8867C139.951 84.8867 147.691 63.9107 150.212 62.3998C152.724 60.889 160.26 61.028 160.26 63.7809C160.26 66.5338 155.254 67.6091 155.254 67.6091C155.254 67.6091 156.608 72.6422 154.791 78.2778L149.749 89.4286L139.951 84.896V84.8867Z" fill="#FFFEF9"/>
<path d="M154.791 78.2778C156.599 72.6422 155.254 67.6091 155.254 67.6091C155.254 67.6091 160.26 66.5338 160.26 63.7809C160.26 61.028 152.724 60.889 150.212 62.3998C147.7 63.9107 139.951 84.8867 139.951 84.8867L146.115 87.6118" stroke="#1F1F1F" stroke-width="0.695183" stroke-linecap="round" stroke-linejoin="round"/>
<path d="M170.499 68.0446C171.51 66.6913 172.038 64.8004 170.119 63.8364C167.487 62.5202 164.382 65.7829 163.464 67.164C161.61 69.954 162.472 71.0014 164.141 71.0385C164.141 71.0385 161.323 74.1066 165.309 74.2734C168.961 74.431 173.688 70.4916 170.509 68.0353L170.499 68.0446Z" fill="#FFFEF9"/>
<path d="M163.465 67.164C164.382 65.7829 167.497 62.5202 170.12 63.8364C172.678 65.1156 170.889 68.0353 169.425 69.1569C166.403 71.4556 159.887 72.5494 163.465 67.1733V67.164Z" stroke="#1F1F1F" stroke-width="0.695183" stroke-linecap="round" stroke-linejoin="round"/>
<path d="M164.132 71.0481C164.132 71.0481 161.314 74.1162 165.3 74.283C168.952 74.4406 173.679 70.5012 170.5 68.0449" stroke="#1F1F1F" stroke-width="0.695183" stroke-linecap="round" stroke-linejoin="round"/>
<path d="M135.914 85.47L123.373 105.065L92.5904 73.1421L82.2553 73.7909C82.2553 73.7909 76.8236 96.3056 83.4232 116.206C87.446 128.321 91.9879 152.041 123.41 150.604C151.357 149.325 158.466 112.786 162.971 97.5198C164.231 93.2561 162.09 88.7235 158.012 86.9623L146.824 82.1239C142.857 80.4091 138.231 81.8272 135.905 85.4607L135.914 85.47Z" fill="#FFFEF9"/>
<path d="M121.085 108.642L136.147 85.0989C138.334 81.6786 142.682 80.3439 146.417 81.9567L158.439 87.1567C162.276 88.8158 163.945 92.9962 163.111 97.0931C158.606 119.126 147.205 150.418 122.827 150.687C91.377 151.03 87.4562 128.349 83.4334 116.225C79.0584 103.044 79.9667 88.7231 81.079 80.5478C81.6074 76.6362 84.833 73.6423 88.7724 73.4013C91.2009 73.253 93.5738 74.1706 95.2608 75.9225L123.43 105.129" stroke="#1F1F1F" stroke-width="0.695183" stroke-linecap="round" stroke-linejoin="round"/>
<path d="M117.794 119.831C116.959 118.997 116.959 117.653 117.794 116.818L121.928 112.684C122.762 111.85 124.106 111.85 124.94 112.684C125.774 113.518 125.774 114.862 124.94 115.697L120.806 119.831C119.972 120.665 118.628 120.665 117.794 119.831Z" fill="#FFFEF9"/>
<path d="M136.527 139.648C135.359 139.796 134.293 138.962 134.144 137.794L133.421 131.992C133.273 130.824 134.107 129.758 135.275 129.609C136.443 129.461 137.509 130.295 137.657 131.463L138.38 137.266C138.529 138.434 137.694 139.5 136.527 139.648Z" fill="#FFFEF9"/>
<path d="M132.012 99.1328C131.419 98.1132 131.771 96.8063 132.791 96.2223L137.852 93.3026C138.871 92.7093 140.178 93.0616 140.762 94.0812C141.355 95.1008 141.003 96.4077 139.983 96.9917L134.923 99.9114C133.903 100.505 132.596 100.152 132.012 99.1328Z" fill="#FFFEF9"/>
<path d="M153.425 114.612C152.285 114.334 151.58 113.185 151.849 112.036L153.221 106.354C153.499 105.214 154.648 104.509 155.798 104.778C156.938 105.056 157.642 106.205 157.364 107.355L155.992 113.037C155.714 114.177 154.565 114.881 153.416 114.603L153.425 114.612Z" fill="#FFFEF9"/>
<path d="M150.938 97.0007C149.78 97.2232 148.668 96.4538 148.445 95.3045L147.361 89.5576C147.138 88.399 147.907 87.2867 149.057 87.0642C150.215 86.8418 151.328 87.6111 151.55 88.7605L152.635 94.5073C152.857 95.6659 152.088 96.7782 150.938 97.0007Z" fill="#FFFEF9"/>
<path d="M139.204 119.58C138.064 119.302 137.36 118.153 137.638 117.003L139.01 111.321C139.288 110.181 140.437 109.477 141.586 109.755C142.727 110.033 143.431 111.182 143.162 112.332L141.79 118.014C141.512 119.154 140.363 119.858 139.214 119.58H139.204Z" fill="#FFFEF9"/>
<path d="M49.8975 175.297H129.334C129.334 175.297 127.313 111.303 107.82 84.7842C103.927 79.4915 97.4573 74.5233 92.248 75.4595L77.9365 75.7098C77.9365 75.7098 65.2842 79.3247 58.1284 109.904C50.9727 140.473 49.8975 175.297 49.8975 175.297Z" fill="#FFFEF9"/>
<path d="M98.5138 116.3C97.6239 117.078 96.2799 116.986 95.5013 116.096L91.6546 111.693C90.876 110.803 90.9687 109.459 91.8585 108.681C92.7484 107.902 94.0924 107.995 94.871 108.884L98.7177 113.287C99.4963 114.177 99.4036 115.521 98.5138 116.3Z" fill="#FFFEF9"/>
<path d="M102.854 88.2789C103.725 89.0667 103.799 90.42 103.011 91.2913L99.0905 95.6293C98.3026 96.5006 96.9493 96.5747 96.078 95.7868C95.2067 94.999 95.1326 93.6457 95.9205 92.7744L99.8413 88.4364C100.629 87.5651 101.982 87.491 102.854 88.2789Z" fill="#FFFEF9"/>
<path d="M80.8379 123.789C82.0058 123.946 82.8215 125.021 82.6639 126.189L81.8761 131.982C81.7185 133.15 80.6433 133.966 79.4754 133.808C78.3075 133.651 77.4918 132.576 77.6494 131.408L78.4372 125.615C78.5948 124.447 79.67 123.631 80.8379 123.789Z" fill="#FFFEF9"/>
<path d="M108.729 128.229C109.822 127.784 111.064 128.312 111.509 129.406L113.706 134.828C114.151 135.922 113.623 137.164 112.529 137.609C111.435 138.054 110.193 137.526 109.748 136.432L107.551 131.009C107.106 129.916 107.635 128.674 108.729 128.229Z" fill="#FFFEF9"/>
<path d="M67.8798 137.006C68.955 137.488 69.4277 138.749 68.9457 139.824L66.545 145.154C66.063 146.229 64.8024 146.702 63.7272 146.22C62.652 145.738 62.1793 144.477 62.6613 143.402L65.062 138.072C65.544 136.997 66.8046 136.524 67.8798 137.006Z" fill="#FFFEF9"/>
<path d="M92.5076 139.481C93.6755 139.333 94.7415 140.167 94.8898 141.335L95.6128 147.138C95.7611 148.306 94.9268 149.372 93.7589 149.52C92.591 149.668 91.5251 148.834 91.3768 147.666L90.6538 141.864C90.5055 140.696 91.3397 139.63 92.5076 139.481Z" fill="#FFFEF9"/>
<path d="M74.3213 156.101C75.4151 155.656 76.6571 156.185 77.102 157.278L79.2988 162.701C79.7437 163.795 79.2154 165.037 78.1216 165.482C77.0279 165.926 75.7858 165.398 75.3409 164.304L73.1441 158.882C72.6992 157.788 73.2275 156.546 74.3213 156.101Z" fill="#FFFEF9"/>
<path d="M123.031 151.123C123.985 151.809 124.208 153.135 123.531 154.099L120.139 158.854C119.453 159.808 118.127 160.031 117.163 159.354C116.209 158.668 115.986 157.343 116.663 156.379L120.055 151.624C120.741 150.669 122.067 150.447 123.031 151.123Z" fill="#FFFEF9"/>
<path d="M102.491 157.315C103.483 156.685 104.799 156.981 105.43 157.983L108.553 162.923C109.184 163.915 108.887 165.231 107.886 165.861C106.894 166.492 105.578 166.195 104.948 165.194L101.824 160.253C101.194 159.262 101.49 157.945 102.491 157.315Z" fill="#FFFEF9"/>
<path d="M116.367 100.737L113.095 100.134C111.983 99.9302 110.806 100.542 110.509 101.636C110.175 102.859 110.954 104.083 112.178 104.305L117.86 105.353C117.989 105.195 118.017 105.167 118.138 105.01L116.386 100.764C116.386 100.764 116.367 100.746 116.358 100.746L116.367 100.737Z" fill="#FFFEF9"/>
<path d="M49.897 175.297H129.333C129.333 175.297 125.69 76.7201 92.2383 75.4595L77.9268 75.7097C77.9268 75.7097 65.2744 79.3247 58.1187 109.903C50.9629 140.473 49.8877 175.297 49.8877 175.297H49.897Z" stroke="#1F1F1F" stroke-width="0.695183" stroke-linecap="round" stroke-linejoin="round"/>
<path d="M52.9102 168.484H126.099" stroke="#1F1F1F" stroke-width="0.695183" stroke-linecap="round" stroke-linejoin="round"/>
<path d="M67.6635 124.271L82.3921 75.4321C82.3921 75.4321 46.1221 76.8967 18.8153 104.639C-8.49151 132.382 2.09381 148.973 8.37827 155.239C19.909 166.742 37.2979 163.275 42.5164 156.982C46.1406 152.616 47.9574 144.737 41.9881 136.126L42.1734 136.293C42.1734 136.293 53.1017 128.312 67.6728 124.271H67.6635Z" fill="#FFFEF9"/>
<path d="M19.5206 155.953C18.6308 156.732 17.2867 156.639 16.5081 155.749L12.6615 151.346C11.8828 150.456 11.9755 149.112 12.8654 148.334C13.7552 147.555 15.0992 147.648 15.8778 148.538L19.7245 152.941C20.5031 153.83 20.4104 155.174 19.5206 155.953Z" fill="#FFFEF9"/>
<path d="M29.9959 134.356C30.0515 135.533 29.1524 136.534 27.9753 136.589L22.1357 136.886C20.9585 136.942 19.9575 136.043 19.9019 134.865C19.8462 133.688 20.7454 132.687 21.9225 132.632L27.7621 132.335C28.9392 132.279 29.9403 133.178 29.9959 134.356Z" fill="#FFFEF9"/>
<path d="M33.0997 109.672C33.7578 110.645 33.4983 111.971 32.525 112.629L27.6773 115.892C26.704 116.55 25.3785 116.29 24.7204 115.317C24.0623 114.344 24.3219 113.018 25.2951 112.36L30.1429 109.097C31.1161 108.439 32.4416 108.699 33.0997 109.672Z" fill="#FFFEF9"/>
<path d="M48.0428 117.551C49.1737 117.875 49.8318 119.053 49.5166 120.183L47.9223 125.81C47.5979 126.941 46.4207 127.599 45.2899 127.284C44.1591 126.959 43.501 125.782 43.8161 124.651L45.4104 119.025C45.7348 117.894 46.912 117.236 48.0428 117.551Z" fill="#FFFEF9"/>
<path d="M55.0677 101.599C55.0677 102.776 54.113 103.731 52.9358 103.731H47.087C45.9098 103.731 44.9551 102.776 44.9551 101.599C44.9551 100.422 45.9098 99.4668 47.087 99.4668H52.9358C54.113 99.4668 55.0677 100.422 55.0677 101.599Z" fill="#FFFEF9"/>
<path d="M73.7737 109.7C73.7737 110.877 72.819 111.832 71.6418 111.832H65.793C64.6159 111.832 63.6611 110.877 63.6611 109.7C63.6611 108.523 64.6159 107.568 65.793 107.568H71.6418C72.819 107.568 73.7737 108.523 73.7737 109.7Z" fill="#FFFEF9"/>
<path d="M82.254 93.2289C81.3642 94.0075 80.0201 93.9148 79.2415 93.025L75.3949 88.6222C74.6163 87.7323 74.7089 86.3883 75.5988 85.6097C76.4886 84.8311 77.8326 84.9238 78.6112 85.8136L82.4579 90.2164C83.2365 91.1063 83.1438 92.4503 82.254 93.2289Z" fill="#FFFEF9"/>
<path d="M11.9758 122.621C13.0325 123.14 13.4681 124.419 12.949 125.476L10.3722 130.722C9.85316 131.779 8.57402 132.215 7.51734 131.696C6.46066 131.177 6.02502 129.897 6.54409 128.841L9.1209 123.594C9.63997 122.538 10.9191 122.102 11.9758 122.621Z" fill="#FFFEF9"/>
<path d="M33.5644 93.785L32.0443 93.6367C30.0236 95.0734 28.1513 96.4731 26.9463 97.3814C27.0668 97.4185 27.1966 97.4463 27.3263 97.4556L33.1473 98.0303C34.3152 98.1415 35.3626 97.2888 35.4739 96.1208C35.5851 94.9529 34.7323 93.9055 33.5644 93.7943V93.785Z" fill="#FFFEF9"/>
<path d="M58.535 84.1544L54.9571 81.5684C53.7521 82.0225 52.2598 82.6528 50.6377 83.3758C50.786 83.6817 50.9992 83.9691 51.3051 84.1822L56.0416 87.6118C56.9963 88.2977 58.3311 88.0845 59.017 87.1298C59.7029 86.1751 59.4897 84.8403 58.535 84.1544Z" fill="#FFFEF9"/>
<path d="M82.3921 75.4321C82.3921 75.4321 46.1221 76.8967 18.8153 104.639C-8.49151 132.382 2.09381 148.973 8.37827 155.239C19.909 166.742 37.2979 163.275 42.5164 156.982C47.7349 150.688 49.2272 137.118 29.0484 124.549" stroke="#1F1F1F" stroke-width="0.695183" stroke-linecap="round" stroke-linejoin="round"/>
<path d="M42.1738 136.293C42.1738 136.293 53.1021 128.312 67.6732 124.271" stroke="#1F1F1F" stroke-width="0.695183" stroke-linecap="round" stroke-linejoin="round"/>
<path d="M53.6869 145.238C49.729 143.023 32.6831 135.867 28.6696 145.238C24.656 154.609 31.8396 158.511 35.0004 159.67C38.1611 160.829 44.2231 161.839 46.2902 163.971C48.3479 166.103 53.0381 172.332 55.1792 168.976C55.4944 168.476 55.5593 167.892 55.4388 167.261C55.4388 167.261 58.4605 168.995 58.8035 165.194C58.8405 164.796 58.8683 164.036 58.8035 163.118C60.2124 163.683 61.2598 163.405 60.9075 160.634C60.8612 160.235 60.6851 159.79 60.4441 159.318H60.6295C60.6295 159.318 64.1703 161.051 64.1888 158.196C64.2073 155.341 57.6355 147.463 53.6776 145.256L53.6869 145.238Z" fill="#FFFEF9"/>
<path d="M48.0054 158.53C48.0054 158.53 57.3023 165.611 55.1704 168.976C53.0385 172.332 48.3391 166.103 46.2814 163.971C44.2236 161.839 38.1524 160.829 34.9916 159.67C31.8308 158.511 24.6473 154.618 28.6608 145.238C32.6743 135.867 49.7202 143.023 53.6781 145.238C57.636 147.453 64.2078 155.323 64.1893 158.178C64.1707 161.032 60.6299 159.308 60.6299 159.308" stroke="#1F1F1F" stroke-width="0.695183" stroke-linecap="round" stroke-linejoin="round"/>
<path d="M52.0742 150.614C52.0742 150.614 60.4906 157.26 60.917 160.624C61.3341 163.989 59.7212 163.683 57.8767 162.654" stroke="#1F1F1F" stroke-width="0.695183" stroke-linecap="round" stroke-linejoin="round"/>
<path d="M50.0078 153.923C50.0078 153.923 59.0267 162.664 58.7949 165.194C58.452 168.994 55.4302 167.27 55.4302 167.27" stroke="#1F1F1F" stroke-width="0.695183" stroke-linecap="round" stroke-linejoin="round"/>
<path d="M85.7323 65.5975C85.7323 65.5975 73.2468 61.8435 73.5342 50.424C73.8308 38.5224 94.8717 40.6636 94.8717 40.6636C94.8717 40.6636 101.249 44.7327 101.249 49.0614C101.249 53.3901 85.7323 65.5882 85.7323 65.5882V65.5975Z" fill="#1F1F1F"/>
<path d="M80.8197 49.9235C81.9227 49.9235 82.9423 50.2757 83.7673 50.8689V47.8286C83.7673 43.0087 87.2339 39.0601 91.4699 39.0601H97.8378C102.074 39.0601 105.54 43.0087 105.54 47.8286V57.7002C105.54 62.5202 102.074 66.4688 97.8378 66.4688H94.158V71.7893C94.158 73.9675 92.3783 75.7565 90.1908 75.7565H87.6603C85.4821 75.7565 83.6931 73.9768 83.6931 71.7893V59.4336C83.6931 59.3131 83.7024 59.1926 83.7117 59.0721C82.8867 59.6468 81.8857 59.9804 80.8104 59.9804C78.0112 59.9804 75.7402 57.728 75.7402 54.9473C75.7402 52.1666 78.0112 49.9142 80.8104 49.9142L80.8197 49.9235Z" fill="#FFFEF9" stroke="#1F1F1F" stroke-width="0.695183" stroke-linecap="round" stroke-linejoin="round"/>
<path d="M83.5625 55.6147C83.5625 55.6147 83.785 52.1944 80.2812 52.5744" stroke="#1F1F1F" stroke-width="0.463455" stroke-linecap="round" stroke-linejoin="round"/>
<path d="M92.8408 51.0818C92.8408 51.8326 93.4433 52.4351 94.1941 52.4351C94.9449 52.4351 95.5474 51.8326 95.5474 51.0818C95.5474 50.331 94.9449 49.7285 94.1941 49.7285C93.4433 49.7285 92.8408 50.331 92.8408 51.0818Z" fill="#1F1F1F"/>
<path d="M102.083 50.8963C102.083 51.6008 102.658 52.1755 103.362 52.1755C104.067 52.1755 104.641 51.6008 104.641 50.8963C104.641 50.1919 104.067 49.6172 103.362 49.6172C102.658 49.6172 102.083 50.1919 102.083 50.8963Z" fill="#1F1F1F"/>
<path d="M98.6973 54.9469L101.246 53.399L99.0124 49.6172" stroke="#1F1F1F" stroke-width="0.463455" stroke-linecap="round" stroke-linejoin="round"/>
<path d="M91.8848 49.0611L94.3504 48.0786" stroke="#1F1F1F" stroke-width="0.695183" stroke-linecap="round" stroke-linejoin="round"/>
<path d="M102.405 48.2266L104.76 48.5695" stroke="#1F1F1F" stroke-width="0.695183" stroke-linecap="round" stroke-linejoin="round"/>
<path d="M81.6627 30.6622C81.6627 30.6622 80.1518 30.1895 77.056 30.5139C77.056 30.5139 79.7996 27.4273 83.9058 28.6045C83.9058 28.6045 85.083 24.9061 87.4652 24.7207C87.4652 24.7207 86.0192 27.1863 86.0841 28.4376C86.0841 28.4376 92.4241 26.9916 97.9671 28.7157C104.474 30.7456 110.174 36.7613 107.468 48.9316C102.639 44.9644 100.525 40.5338 100.525 40.5338C100.525 40.5338 102.101 46.0489 96.3172 49.0614C96.3172 49.0614 98.1988 44.8996 97.7075 41.0529C97.7075 41.0529 96.1874 49.9234 83.8039 52.7227L86.9554 49.0614L80.2074 53.8535C80.2074 53.8535 80.5133 52.6763 81.431 50.1922C80.1055 51.9812 77.2228 53.7979 72.6717 52.732C72.6717 52.732 65.5159 36.0012 81.672 30.6622H81.6627Z" fill="#1F1F1F"/>
<path d="M97.0024 58.5068C97.0024 59.7304 97.9942 60.7129 99.2085 60.7129C100.423 60.7129 101.415 59.7211 101.415 58.5068H96.9932H97.0024Z" stroke="#1F1F1F" stroke-width="0.463455" stroke-linecap="round" stroke-linejoin="round"/>
<path d="M81.207 79.0191L97.8358 78.8522C99.7452 78.8337 101.284 77.5545 101.265 75.9881L101.219 72.2712C101.2 70.7047 99.634 69.4533 97.7245 69.4719L81.0957 69.6387C79.1863 69.6573 77.6476 70.9364 77.6662 72.5029L77.7125 76.2198C77.7311 77.7863 79.2975 79.0376 81.207 79.0191Z" fill="#1F1F1F"/>
<path d="M81.207 79.0191L97.8358 78.8522C99.7452 78.8337 101.284 77.5545 101.265 75.9881L101.219 72.2712C101.2 70.7047 99.634 69.4533 97.7245 69.4719L81.0957 69.6387C79.1863 69.6573 77.6476 70.9364 77.6662 72.5029L77.7125 76.2198C77.7311 77.7863 79.2975 79.0376 81.207 79.0191Z" stroke="#1F1F1F" stroke-width="0.695183" stroke-miterlimit="10"/>
<path d="M188.816 101.988C191.022 104.935 193.423 107.725 196.009 110.339C196.222 110.553 196.547 110.228 196.334 110.015C193.775 107.429 191.393 104.667 189.215 101.756C189.039 101.524 188.64 101.756 188.816 101.988Z" fill="#1F1F1F"/>
<path d="M212.174 82.217C213.759 80.632 215.344 79.047 216.929 77.462C217.142 77.2488 216.809 76.9244 216.605 77.1375C215.02 78.7226 213.435 80.3076 211.85 81.8926C211.637 82.1058 211.97 82.4302 212.174 82.217Z" fill="#1F1F1F"/>
<path d="M145.53 180.637C147.865 182.982 150.47 185.058 153.269 186.828C153.52 186.986 153.751 186.587 153.501 186.43C150.73 184.687 148.162 182.639 145.854 180.312C145.641 180.099 145.316 180.433 145.53 180.637Z" fill="#1F1F1F"/>
<path d="M168.265 258.283C170.073 256.133 171.889 253.992 173.697 251.841C173.892 251.619 173.558 251.285 173.373 251.517C171.565 253.667 169.748 255.809 167.941 257.959C167.746 258.181 168.08 258.515 168.265 258.283Z" fill="#1F1F1F"/>
<path d="M190.893 175.844C192.701 173.694 194.517 171.553 196.325 169.402C196.52 169.18 196.186 168.846 196 169.078C194.193 171.228 192.376 173.37 190.569 175.52C190.374 175.743 190.708 176.076 190.893 175.844Z" fill="#1F1F1F"/>
<path d="M18.0881 215.795C20.081 217.241 22.0646 218.687 24.0574 220.123C24.2984 220.299 24.5301 219.901 24.2891 219.725C22.2963 218.279 20.3127 216.833 18.3198 215.396C18.0788 215.22 17.8471 215.618 18.0881 215.795Z" fill="#1F1F1F"/>
<path d="M13.3236 313.305C15.0106 309.857 16.6976 306.409 18.3938 302.961C18.5236 302.692 18.125 302.46 17.9952 302.729C16.3083 306.177 14.6213 309.625 12.925 313.073C12.7953 313.342 13.1939 313.574 13.3236 313.305Z" fill="#1F1F1F"/>
<path d="M30.7132 47.3189C32.9564 49.7011 35.2088 52.0739 37.4519 54.4561C37.6558 54.6693 37.9802 54.3449 37.7763 54.1317C35.5332 51.7495 33.2808 49.3766 31.0377 46.9945C30.8337 46.7813 30.5093 47.1057 30.7132 47.3189Z" fill="#1F1F1F"/>
<path d="M61.1996 13.9965C62.6641 10.9655 64.1194 7.92521 65.5839 4.89421C65.7137 4.6254 65.3151 4.39368 65.1853 4.66248C63.7208 7.69348 62.2655 10.7337 60.801 13.7647C60.6713 14.0335 61.0698 14.2653 61.1996 13.9965Z" fill="#1F1F1F"/>
<path d="M131.348 27.149L137.299 32.6919C137.521 32.8958 137.846 32.5714 137.623 32.3675L131.673 26.8246C131.45 26.6206 131.126 26.9451 131.348 27.149Z" fill="#1F1F1F"/>
<path d="M4.14755 94.0813C4.94469 92.8949 5.74184 91.7084 6.52971 90.522C6.69656 90.2717 6.29798 90.04 6.13114 90.2902C5.334 91.4767 4.53685 92.6632 3.74898 93.8496C3.58214 94.0999 3.98071 94.3316 4.14755 94.0813Z" fill="#1F1F1F"/>
<path d="M24.7795 15.2941C26.3738 16.4712 27.9681 17.6484 29.5624 18.8256C29.8034 19.0017 30.0351 18.6031 29.7941 18.427C28.1998 17.2498 26.6055 16.0727 25.0112 14.8955C24.7702 14.7194 24.5385 15.118 24.7795 15.2941Z" fill="#1F1F1F"/>
<path d="M166.663 9.64916L168.156 6.43278C168.276 6.16398 167.877 5.93225 167.757 6.20105L166.265 9.41743C166.144 9.68624 166.543 9.91796 166.663 9.64916Z" fill="#1F1F1F"/>
<path d="M172.345 145.09C172.345 146.137 171.493 146.981 170.454 146.981C169.416 146.981 168.563 146.128 168.563 145.09C168.563 144.051 169.416 143.199 170.454 143.199C171.493 143.199 172.345 144.051 172.345 145.09Z" fill="#1F1F1F"/>
<path d="M156.652 230.198C157.138 230.198 157.533 229.804 157.533 229.318C157.533 228.831 157.138 228.437 156.652 228.437C156.166 228.437 155.771 228.831 155.771 229.318C155.771 229.804 156.166 230.198 156.652 230.198Z" fill="#1F1F1F"/>
<path d="M11.9619 250.989C13.1803 250.989 14.168 250.002 14.168 248.783C14.168 247.565 13.1803 246.577 11.9619 246.577C10.7435 246.577 9.75586 247.565 9.75586 248.783C9.75586 250.002 10.7435 250.989 11.9619 250.989Z" fill="#1F1F1F"/>
<path d="M6.33577 49.5248C6.33577 50.1829 5.79816 50.7205 5.14005 50.7205C4.48195 50.7205 3.94434 50.1829 3.94434 49.5248C3.94434 48.8667 4.48195 48.3291 5.14005 48.3291C5.79816 48.3291 6.33577 48.8667 6.33577 49.5248Z" fill="#1F1F1F"/>
<path d="M121.394 4.76432C122.71 4.76432 123.776 3.69779 123.776 2.38216C123.776 1.06653 122.71 0 121.394 0C120.078 0 119.012 1.06653 119.012 2.38216C119.012 3.69779 120.078 4.76432 121.394 4.76432Z" fill="#1F1F1F"/>
<path d="M204.832 26.2156C207.117 26.2156 208.51 27.9241 208.51 30.1767V32.6469H201.219V30.1223C201.219 27.7827 202.666 26.2156 204.832 26.2156ZM204.832 27.3583C203.286 27.3583 202.242 28.49 202.242 30.1223V31.537H207.498V30.1767C207.498 28.5879 206.497 27.3583 204.832 27.3583Z" fill="black"/>
<path d="M208.64 21.4693C208.64 23.5913 206.997 25.2236 204.853 25.2236C202.742 25.2236 201.099 23.5804 201.099 21.4693C201.099 19.369 202.742 17.7367 204.853 17.7367C206.997 17.7367 208.64 19.369 208.64 21.4693ZM207.585 21.4693C207.585 20.0328 206.388 18.8793 204.853 18.8793C203.341 18.8793 202.155 20.022 202.155 21.4693C202.155 22.9166 203.341 24.081 204.853 24.081C206.388 24.081 207.585 22.9275 207.585 21.4693Z" fill="#A99CFE"/>
</svg>
