<svg width="32" height="35" viewBox="0 0 32 35" fill="none" xmlns="http://www.w3.org/2000/svg">
<path d="M13.9522 12.9615C12.7391 12.3091 11.1856 11.1594 10.0628 9.22258C8.93998 11.1594 7.38643 12.3091 6.17337 12.9615C7.38643 13.614 8.93998 14.7621 10.0628 16.7005C11.1856 14.7621 12.7391 13.614 13.9522 12.9615ZM28.1273 24.4667C26.1478 23.5371 23.1864 21.6098 21.2892 17.9104C19.392 21.6098 16.429 23.5355 14.451 24.4667C16.4306 25.3962 19.392 27.3235 21.2892 31.0229C23.1864 27.3235 26.1478 25.3978 28.1273 24.4667ZM22.0319 15.6711C24.4073 22.1371 30.2826 23.6337 30.5471 23.6986C30.829 23.7635 31.0665 23.9821 31.1394 24.283C31.2423 24.7074 30.981 25.1334 30.5582 25.2363C30.5408 25.2411 24.4596 26.6584 22.0335 33.2653C21.9559 33.476 21.7896 33.6517 21.5631 33.7357C21.153 33.8861 20.6985 33.6755 20.548 33.2653C18.1726 26.7993 12.2989 25.3028 12.0328 25.2379C11.7509 25.173 11.5134 24.9544 11.4405 24.6535C11.3376 24.2291 11.5989 23.8031 12.0217 23.7002C12.0392 23.6954 18.1203 22.2781 20.5464 15.6711C20.624 15.4605 20.7903 15.2847 21.0168 15.2008C21.4269 15.0504 21.8814 15.261 22.0319 15.6711ZM27.6459 6.38946C26.4328 5.737 24.8793 4.58887 23.7565 2.6505C22.6337 4.58887 21.0801 5.737 19.8671 6.38946C21.0801 7.04192 22.6337 8.19164 23.7565 10.1284C24.8793 8.19164 26.4328 7.04192 27.6459 6.38946ZM24.4992 0.520511C25.991 4.58412 29.6476 5.55805 29.8946 5.61982C30.1765 5.68474 30.4125 5.9017 30.4869 6.20101C30.5914 6.62384 30.3317 7.05142 29.9089 7.15594C29.8978 7.15911 26.0417 8.05861 24.4992 12.2584C24.4216 12.469 24.2553 12.6448 24.0289 12.7288C23.6187 12.8792 23.1642 12.6686 23.0137 12.2584C21.522 8.19481 17.8653 7.22087 17.6183 7.15911C17.3364 7.09418 17.1004 6.87722 17.026 6.57791C16.9215 6.15508 17.1812 5.72592 17.604 5.6214C17.6151 5.61823 21.4713 4.71873 23.0137 0.518927C23.0913 0.308304 23.2576 0.13252 23.4841 0.0485876C23.8942 -0.101858 24.3487 0.108766 24.4992 0.518927V0.520511ZM10.8039 7.0926C12.2973 11.1546 15.9539 12.1301 16.2009 12.1919C16.4828 12.2568 16.7188 12.4738 16.7932 12.7731C16.8977 13.1959 16.638 13.6251 16.2152 13.7296C16.2041 13.7328 12.348 14.6323 10.8055 18.8321C10.7279 19.0427 10.5616 19.2185 10.3352 19.3024C9.925 19.4529 9.4705 19.2422 9.32005 18.8321C7.82827 14.7685 4.17165 13.7945 3.92302 13.7328C3.64114 13.6678 3.40517 13.4509 3.33074 13.1516C3.22622 12.7288 3.48594 12.3012 3.90877 12.1951C3.91986 12.1919 7.77601 11.294 9.31847 7.0926C9.39607 6.88197 9.56235 6.70619 9.78881 6.62226C10.199 6.47181 10.6535 6.68243 10.8039 7.0926Z" fill="#CEFF62"/>
<path d="M13.9522 12.9615C12.7391 12.3091 11.1856 11.1594 10.0628 9.22258C8.93998 11.1594 7.38643 12.3091 6.17337 12.9615C7.38643 13.614 8.93998 14.7621 10.0628 16.7005C11.1856 14.7621 12.7391 13.614 13.9522 12.9615Z" fill="#CEFF62"/>
<path d="M27.6459 6.38946C26.4328 5.737 24.8793 4.58887 23.7565 2.6505C22.6337 4.58887 21.0801 5.737 19.8671 6.38946C21.0801 7.04192 22.6337 8.19164 23.7565 10.1284C24.8793 8.19164 26.4328 7.04192 27.6459 6.38946Z" fill="#CEFF62"/>
<path d="M28.1273 24.4667C26.1478 23.5371 23.1864 21.6098 21.2892 17.9104C19.392 21.6098 16.429 23.5355 14.451 24.4667C16.4306 25.3962 19.392 27.3235 21.2892 31.0229C23.1864 27.3235 26.1478 25.3978 28.1273 24.4667Z" fill="#CEFF62"/>
<path d="M10.6446 13.6593C9.4315 13.0068 7.87796 11.8571 6.75516 9.92034C5.63236 11.8571 4.07882 13.0068 2.86575 13.6593C4.07882 14.3118 5.63236 15.4599 6.75516 17.3983C7.87796 15.4599 9.4315 14.3118 10.6446 13.6593ZM24.8197 25.1644C22.8401 24.2348 19.8787 22.3075 17.9815 18.6082C16.0844 22.3075 13.1214 24.2332 11.1434 25.1644C13.123 26.094 16.0844 28.0213 17.9815 31.7207C19.8787 28.0213 22.8401 26.0956 24.8197 25.1644ZM18.7243 16.3689C21.0997 22.8349 26.975 24.3314 27.2395 24.3963C27.5214 24.4613 27.7589 24.6798 27.8318 24.9807C27.9347 25.4051 27.6734 25.8311 27.2506 25.9341C27.2331 25.9388 21.152 27.3562 18.7259 33.9631C18.6483 34.1737 18.482 34.3495 18.2555 34.4334C17.8454 34.5839 17.3909 34.3732 17.2404 33.9631C14.865 27.4971 8.99125 26.0006 8.7252 25.9356C8.44331 25.8707 8.20577 25.6522 8.13292 25.3513C8.02999 24.9269 8.29128 24.5009 8.71412 24.3979C8.73153 24.3932 14.8127 22.9758 17.2388 16.3689C17.3164 16.1583 17.4827 15.9825 17.7092 15.8986C18.1193 15.7481 18.5738 15.9587 18.7243 16.3689ZM24.3383 7.08722C23.1252 6.43476 21.5716 5.28662 20.4489 3.34825C19.3261 5.28662 17.7725 6.43476 16.5594 7.08722C17.7725 7.73967 19.3261 8.88939 20.4489 10.8262C21.5716 8.88939 23.1252 7.73967 24.3383 7.08722ZM21.1916 1.21826C22.6834 5.28187 26.34 6.25581 26.587 6.31757C26.8689 6.3825 27.1049 6.59946 27.1793 6.89876C27.2838 7.32159 27.0241 7.74918 26.6013 7.85369C26.5902 7.85686 22.734 8.75637 21.1916 12.9562C21.114 13.1668 20.9477 13.3426 20.7212 13.4265C20.3111 13.577 19.8566 13.3663 19.7061 12.9562C18.2143 8.89256 14.5577 7.91862 14.3107 7.85686C14.0288 7.79193 13.7928 7.57498 13.7184 7.27567C13.6139 6.85284 13.8736 6.42367 14.2964 6.31915C14.3075 6.31599 18.1637 5.41648 19.7061 1.21668C19.7837 1.00606 19.95 0.830274 20.1765 0.746341C20.5866 0.595896 21.0411 0.80652 21.1916 1.21668V1.21826ZM7.4963 7.79035C8.98967 11.8524 12.6463 12.8279 12.8933 12.8897C13.1752 12.9546 13.4112 13.1715 13.4856 13.4708C13.5901 13.8937 13.3304 14.3228 12.9076 14.4274C12.8965 14.4305 9.04034 15.33 7.49788 19.5298C7.42029 19.7405 7.254 19.9162 7.02754 20.0002C6.61738 20.1506 6.16288 19.94 6.01243 19.5298C4.52065 15.4662 0.864037 14.4923 0.615406 14.4305C0.333519 14.3656 0.0975578 14.1486 0.0231269 13.8493C-0.081393 13.4265 0.178323 12.9989 0.601154 12.8928C0.612239 12.8897 4.46839 11.9917 6.01085 7.79035C6.08845 7.57973 6.25473 7.40394 6.48119 7.32001C6.89135 7.16956 7.34585 7.38019 7.4963 7.79035Z" fill="black"/>
</svg>
