<svg width="20" height="20" viewBox="0 0 20 20" fill="none" xmlns="http://www.w3.org/2000/svg">
<path fill-rule="evenodd" clip-rule="evenodd" d="M2.97724 2L1.87805 3.08126L16.0227 17L17.1219 15.9184L2.97724 2Z" fill="#1F1F1F" fill-opacity="0.6"/>
<path d="M4.20032 5.36632L5.23492 6.38437C4.10236 7.33326 3.20051 8.5144 2.61773 9.54781L2.61595 9.5513C4.23901 12.2216 6.81431 14.7453 10.0647 14.3625C10.942 14.2591 11.7605 13.964 12.5083 13.5418L13.5557 14.572C12.098 15.4926 10.4271 15.9802 8.6166 15.7392C5.35204 15.3047 2.68268 12.67 1 9.57575C1.79005 8.01149 2.87079 6.51498 4.20032 5.36632ZM6.55345 3.85759C7.4663 3.45736 8.45405 3.22197 9.50887 3.2052C9.56744 3.20485 10.2627 3.23733 10.5779 3.28832C10.7756 3.32045 10.9726 3.36062 11.1667 3.41056C14.2634 4.20439 16.5576 6.78041 18 9.43431C17.3949 10.6368 16.6023 11.8102 15.6572 12.8157L14.6538 11.8284C15.3519 11.088 15.934 10.2638 16.3823 9.46434C16.3823 9.46434 15.9315 8.75119 15.5897 8.30346C15.37 8.01568 15.139 7.73629 14.8962 7.46702C14.7046 7.25468 13.9603 6.53349 13.7832 6.38332C12.5949 5.37785 11.1997 4.58891 9.52626 4.60218C8.87818 4.6123 8.25494 4.73803 7.66328 4.94967L6.55345 3.85759Z" fill="#1F1F1F" fill-opacity="0.6"/>
<path fill-rule="evenodd" clip-rule="evenodd" d="M7.01656 8.13802L7.81524 8.9236L10.8895 11.9486C10.4785 12.1756 10.0043 12.3048 9.49994 12.3048C7.92942 12.3048 6.65454 11.0504 6.65454 9.50496C6.65454 9.00869 6.78622 8.54245 7.01656 8.13802ZM9.44741 6.70578C9.4648 6.70543 9.48255 6.70508 9.49994 6.70508C11.0705 6.70508 12.3453 7.95991 12.3453 9.50496C12.3453 9.52242 12.3453 9.53954 12.345 9.55665L9.44741 6.70578Z" fill="#1F1F1F" fill-opacity="0.6"/>
</svg>
